<?xml version="1.0" encoding="UTF-8" standalone="no"?>
<svg xmlns:dc="http://purl.org/dc/elements/1.1/" xmlns:cc="http://creativecommons.org/ns#" xmlns:rdf="http://www.w3.org/1999/02/22-rdf-syntax-ns#" xmlns:svg="http://www.w3.org/2000/svg" xmlns="http://www.w3.org/2000/svg" xmlns:sodipodi="http://sodipodi.sourceforge.net/DTD/sodipodi-0.dtd" xmlns:inkscape="http://www.inkscape.org/namespaces/inkscape" version="1.1" id="svg7941" viewBox="0 0 178 35.000001" height="35" width="178" inkscape:version="0.91 r13725" sodipodi:docname="ocl_academy_logo.svg">
  <sodipodi:namedview pagecolor="#ffffff" bordercolor="#666666" borderopacity="1" objecttolerance="10" gridtolerance="10" guidetolerance="10" inkscape:pageopacity="0" inkscape:pageshadow="2" inkscape:window-width="1366" inkscape:window-height="744" id="namedview12" showgrid="false" inkscape:zoom="1.6741573" inkscape:cx="89" inkscape:cy="17.5" inkscape:window-x="0" inkscape:window-y="24" inkscape:window-maximized="1" inkscape:current-layer="text4188"/>
  <defs id="defs7943"/>
  <metadata id="metadata7946">
    <rdf:RDF>
      <cc:Work rdf:about="">
        <dc:format>image/svg+xml</dc:format>
        <dc:type rdf:resource="http://purl.org/dc/dcmitype/StillImage"/>
        <dc:title/>
      </cc:Work>
    </rdf:RDF>
  </metadata>
  <g transform="translate(0,-1017.3622)" id="layer1">
    <g transform="translate(-275.52934,758.89999)" id="g4300">
      <g style="font-style:normal;font-weight:normal;font-size:40px;line-height:125%;font-family:sans-serif;letter-spacing:0px;word-spacing:0px;fill:#000000;fill-opacity:1;stroke:none;stroke-width:1px;stroke-linecap:butt;stroke-linejoin:miter;stroke-opacity:1" id="text4188">
        <path d="m 275.984,276.03421 q 0,-2.496 1.152,-4.488 1.152,-2.016 3.168,-3.144 2.016,-1.128 4.536,-1.128 2.52,0 4.536,1.128 2.016,1.104 3.144,3.096 1.152,1.968 1.152,4.44 0,2.496 -1.152,4.488 -1.152,1.992 -3.192,3.12 -2.016,1.104 -4.56,1.104 -2.496,0 -4.512,-1.104 -1.992,-1.104 -3.144,-3.072 -1.128,-1.968 -1.128,-4.44 z m 3.48,-0.048 q 0,1.608 0.696,2.88 0.696,1.248 1.896,1.968 1.224,0.696 2.736,0.696 1.488,0 2.712,-0.696 1.248,-0.72 1.968,-1.992 0.72,-1.272 0.72,-2.856 0,-1.632 -0.72,-2.904 -0.696,-1.296 -1.944,-1.992 -1.224,-0.696 -2.712,-0.696 -1.512,0 -2.736,0.72 -1.2,0.696 -1.92,1.968 -0.696,1.272 -0.696,2.904 z" style="font-style:normal;font-variant:normal;font-weight:600;font-stretch:normal;font-size:24px;font-family:'Posterama 2001 W04';-inkscape-font-specification:'Posterama 2001 W04 Semi-Bold';fill:#1a1a1a" id="path4141"/>
        <path d="m 304.50462,281.53021 q 2.47201,0 4.416,-1.56 0.264,-0.216 0.456,-0.216 0.192,0 0.384,0.264 l 1.056,1.512 q 0.144,0.216 0.144,0.36 0,0.12 -0.072,0.24 -0.072,0.12 -0.24,0.264 -1.296,1.08 -2.904,1.68 -1.608,0.576 -3.35999,0.576 -2.44801,0 -4.46401,-1.104 -1.992,-1.128 -3.14399,-3.096 -1.15201,-1.968 -1.15201,-4.416 0,-2.496 1.15201,-4.488 1.17599,-1.992 3.19199,-3.12 2.04,-1.152 4.584,-1.152 1.752,0 3.312,0.6 1.56,0.6 2.832,1.632 0.12,0.12 0.192,0.24 0.072,0.096 0.072,0.192 0,0.168 -0.168,0.408 l -1.056,1.488 q -0.216,0.288 -0.432,0.288 -0.168,0 -0.432,-0.192 -0.96,-0.72 -2.064,-1.128 -1.10399,-0.408 -2.304,-0.408 -1.512,0 -2.76,0.72 -1.224,0.696 -1.94399,1.968 -0.69601,1.272 -0.69601,2.904 0,1.584 0.69601,2.856 0.71999,1.248 1.94399,1.968 1.224,0.72 2.76,0.72 z" style="font-style:normal;font-variant:normal;font-weight:600;font-stretch:normal;font-size:24px;font-family:'Posterama 2001 W04';-inkscape-font-specification:'Posterama 2001 W04 Semi-Bold';fill:#1a1a1a" id="path4143"/>
        <path d="m 316.8665,280.93021 q 0,0.168 0.072,0.24 0.072,0.072 0.24,0.072 l 6.6,0 q 0.312,0 0.432,0.144 0.144,0.12 0.144,0.432 l 0,1.968 q 0,0.312 -0.144,0.456 -0.12,0.12 -0.432,0.12 l -9.696,0 q -0.312,0 -0.456,-0.12 -0.12,-0.144 -0.12,-0.456 l 0,-15.648 q 0,-0.312 0.12,-0.432 0.144,-0.144 0.456,-0.144 l 2.184,0 q 0.312,0 0.456,0.144 0.144,0.12 0.144,0.432 l 0,12.792 z" style="font-style:normal;font-variant:normal;font-weight:600;font-stretch:normal;font-size:24px;font-family:'Posterama 2001 W04';-inkscape-font-specification:'Posterama 2001 W04 Semi-Bold';fill:#1a1a1a" id="path4145"/>
      </g>
      <g style="font-style:normal;font-weight:normal;font-size:40px;line-height:125%;font-family:sans-serif;letter-spacing:0px;word-spacing:0px;fill:#000000;fill-opacity:1;stroke:none;stroke-width:1px;stroke-linecap:butt;stroke-linejoin:miter;stroke-opacity:1" id="text4192">
        <path d="m 337.60318,283.66622 q -0.216,0.456 -0.432,0.6 -0.216,0.144 -0.648,0.144 l -2.136,0 q -0.528,0 -0.528,-0.336 0,-0.12 0.12,-0.408 l 7.464,-15.24 q 0.336,-0.72 0.552,-0.96 0.216,-0.24 0.48,-0.24 0.264,0 0.456,0.24 0.192,0.24 0.552,0.96 l 7.512,15.24 q 0.12,0.288 0.12,0.408 0,0.336 -0.528,0.336 l -2.28,0 q -0.408,0 -0.624,-0.144 -0.216,-0.144 -0.432,-0.6 l -4.848,-10.224 -4.8,10.224 z" style="font-style:normal;font-variant:normal;font-weight:600;font-stretch:normal;font-size:24px;font-family:'Posterama 2001 W04';-inkscape-font-specification:'Posterama 2001 W04 Semi-Bold';fill:#1a1a1a" id="path4148"/>
        <path d="m 360.43581,281.57822 q 2.472,0 4.416,-1.56 0.264,-0.216 0.456,-0.216 0.192,0 0.384,0.264 l 1.056,1.512 q 0.144,0.216 0.144,0.36 0,0.12 -0.072,0.24 -0.072,0.12 -0.24,0.264 -1.296,1.08 -2.904,1.68 -1.608,0.576 -3.36,0.576 -2.448,0 -4.464,-1.104 -1.992,-1.128 -3.144,-3.096 -1.152,-1.968 -1.152,-4.416 0,-2.496 1.152,-4.488 1.176,-1.992 3.192,-3.12 2.04,-1.152 4.584,-1.152 1.752,0 3.312,0.6 1.56,0.6 2.832,1.632 0.12,0.12 0.192,0.24 0.072,0.096 0.072,0.192 0,0.168 -0.168,0.408 l -1.056,1.488 q -0.216,0.288 -0.432,0.288 -0.168,0 -0.432,-0.192 -0.96,-0.72 -2.064,-1.128 -1.104,-0.408 -2.304,-0.408 -1.512,0 -2.76,0.72 -1.224,0.696 -1.944,1.968 -0.696,1.272 -0.696,2.904 0,1.584 0.696,2.856 0.72,1.248 1.944,1.968 1.224,0.72 2.76,0.72 z" style="font-style:normal;font-variant:normal;font-weight:600;font-stretch:normal;font-size:24px;font-family:'Posterama 2001 W04';-inkscape-font-specification:'Posterama 2001 W04 Semi-Bold';fill:#1a1a1a" id="path4150"/>
        <path d="m 371.63443,283.66622 q -0.216,0.456 -0.432,0.6 -0.216,0.144 -0.648,0.144 l -2.136,0 q -0.528,0 -0.528,-0.336 0,-0.12 0.12,-0.408 l 7.464,-15.24 q 0.336,-0.72 0.552,-0.96 0.216,-0.24 0.48,-0.24 0.264,0 0.456,0.24 0.192,0.24 0.552,0.96 l 7.512,15.24 q 0.12,0.288 0.12,0.408 0,0.336 -0.528,0.336 l -2.28,0 q -0.408,0 -0.624,-0.144 -0.216,-0.144 -0.432,-0.6 l -4.848,-10.224 -4.8,10.224 z" style="font-style:normal;font-variant:normal;font-weight:600;font-stretch:normal;font-size:24px;font-family:'Posterama 2001 W04';-inkscape-font-specification:'Posterama 2001 W04 Semi-Bold';fill:#1a1a1a" id="path4152"/>
        <path d="m 387.01581,268.18622 q 0,-0.312 0.12,-0.432 0.144,-0.144 0.456,-0.144 l 5.496,0 q 2.832,0 4.896,1.008 2.064,1.008 3.144,2.88 1.08,1.848 1.08,4.32 0,2.616 -1.128,4.56 -1.128,1.92 -3.288,2.976 -2.136,1.056 -5.088,1.056 l -5.112,0 q -0.312,0 -0.456,-0.12 -0.12,-0.144 -0.12,-0.456 l 0,-15.648 z m 3.672,2.544 q -0.168,0 -0.24,0.072 -0.072,0.072 -0.072,0.24 l 0,9.936 q 0,0.168 0.072,0.24 0.072,0.072 0.24,0.072 l 2.016,0 q 1.92,0 3.264,-0.648 1.368,-0.648 2.064,-1.848 0.696,-1.2 0.696,-2.856 0,-1.584 -0.696,-2.76 -0.696,-1.176 -2.04,-1.8 -1.32,-0.648 -3.192,-0.648 l -2.112,0 z" style="font-style:normal;font-variant:normal;font-weight:600;font-stretch:normal;font-size:24px;font-family:'Posterama 2001 W04';-inkscape-font-specification:'Posterama 2001 W04 Semi-Bold';fill:#1a1a1a" id="path4154"/>
        <path d="m 415.38043,281.29022 q 0.312,0 0.456,0.144 0.144,0.12 0.144,0.432 l 0,1.968 q 0,0.312 -0.144,0.456 -0.144,0.12 -0.456,0.12 l -9.648,0 q -0.312,0 -0.456,-0.12 -0.12,-0.144 -0.12,-0.456 l 0,-15.648 q 0,-0.312 0.12,-0.432 0.144,-0.144 0.456,-0.144 l 9.624,0 q 0.312,0 0.456,0.144 0.144,0.12 0.144,0.432 l 0,1.968 q 0,0.312 -0.144,0.456 -0.144,0.12 -0.456,0.12 l -6.528,0 q -0.168,0 -0.24,0.072 -0.072,0.072 -0.072,0.24 l 0,3.048 q 0,0.168 0.072,0.24 0.072,0.072 0.24,0.072 l 5.712,0 q 0.312,0 0.456,0.144 0.144,0.144 0.144,0.456 l 0,1.944 q 0,0.312 -0.144,0.456 -0.144,0.12 -0.456,0.12 l -5.712,0 q -0.168,0 -0.24,0.072 -0.072,0.048 -0.072,0.24 l 0,3.144 q 0,0.168 0.072,0.24 0.072,0.072 0.24,0.072 l 6.552,0 z" style="font-style:normal;font-variant:normal;font-weight:600;font-stretch:normal;font-size:24px;font-family:'Posterama 2001 W04';-inkscape-font-specification:'Posterama 2001 W04 Semi-Bold';fill:#1a1a1a" id="path4156"/>
        <path d="m 422.43831,283.83422 q 0,0.312 -0.144,0.456 -0.144,0.12 -0.456,0.12 l -2.184,0 q -0.312,0 -0.456,-0.12 -0.12,-0.144 -0.12,-0.456 l 0,-15.6 q 0,-0.864 0.528,-0.864 0.216,0 0.432,0.168 0.216,0.144 0.552,0.552 l 6.816,7.728 6.744,-7.728 q 0.384,-0.408 0.576,-0.552 0.192,-0.168 0.408,-0.168 0.288,0 0.408,0.216 0.12,0.216 0.12,0.648 l 0,15.6 q 0,0.312 -0.144,0.456 -0.12,0.12 -0.432,0.12 l -2.184,0 q -0.312,0 -0.456,-0.12 -0.144,-0.144 -0.144,-0.456 l 0,-9.048 -4.056,4.824 q -0.336,0.384 -0.528,0.528 -0.168,0.12 -0.36,0.12 -0.168,0 -0.36,-0.12 -0.192,-0.144 -0.504,-0.528 l -4.056,-4.824 0,9.048 z" style="font-style:normal;font-variant:normal;font-weight:600;font-stretch:normal;font-size:24px;font-family:'Posterama 2001 W04';-inkscape-font-specification:'Posterama 2001 W04 Semi-Bold';fill:#1a1a1a" id="path4158"/>
        <path d="m 449.18668,268.23422 q 0.24,-0.384 0.432,-0.504 0.192,-0.12 0.624,-0.12 l 2.376,0 q 0.456,0 0.456,0.288 0,0.168 -0.12,0.36 l -5.928,9.888 0,5.688 q 0,0.312 -0.144,0.456 -0.144,0.12 -0.456,0.12 l -2.184,0 q -0.312,0 -0.456,-0.12 -0.12,-0.144 -0.12,-0.456 l 0,-5.568 -6,-10.008 q -0.12,-0.192 -0.12,-0.36 0,-0.288 0.48,-0.288 l 2.472,0 q 0.408,0 0.6,0.12 0.216,0.12 0.456,0.504 l 3.792,6.672 3.84,-6.672 z" style="font-style:normal;font-variant:normal;font-weight:600;font-stretch:normal;font-size:24px;font-family:'Posterama 2001 W04';-inkscape-font-specification:'Posterama 2001 W04 Semi-Bold';fill:#1a1a1a" id="path4160"/>
      </g>
      <path transform="matrix(1.5,0,0,1.25,228.50001,258.46221)" style="fill:#1a1a1a" d="m 67,28 0,-28 0,0 1,0 0,28 z" id="polygon10-9-3"/>
    </g>
  </g>
</svg>