<?xml version="1.0" encoding="UTF-8" standalone="no"?>
<!-- Created with Inkscape (http://www.inkscape.org/) -->

<svg
   xmlns:dc="http://purl.org/dc/elements/1.1/"
   xmlns:cc="http://creativecommons.org/ns#"
   xmlns:rdf="http://www.w3.org/1999/02/22-rdf-syntax-ns#"
   xmlns:svg="http://www.w3.org/2000/svg"
   xmlns="http://www.w3.org/2000/svg"
   xmlns:sodipodi="http://sodipodi.sourceforge.net/DTD/sodipodi-0.dtd"
   xmlns:inkscape="http://www.inkscape.org/namespaces/inkscape"
   width="210mm"
   height="297mm"
   viewBox="0 0 210 297"
   version="1.1"
   id="svg2048"
   inkscape:version="0.92.4 (unknown)"
   sodipodi:docname="pic_2.svg">
  <defs
     id="defs2042" />
  <sodipodi:namedview
     id="base"
     pagecolor="#ffffff"
     bordercolor="#666666"
     borderopacity="1.0"
     inkscape:pageopacity="0.0"
     inkscape:pageshadow="2"
     inkscape:zoom="0.35"
     inkscape:cx="-104.28571"
     inkscape:cy="560"
     inkscape:document-units="mm"
     inkscape:current-layer="layer1"
     showgrid="false"
     inkscape:window-width="1366"
     inkscape:window-height="713"
     inkscape:window-x="0"
     inkscape:window-y="27"
     inkscape:window-maximized="1" />
  <metadata
     id="metadata2045">
    <rdf:RDF>
      <cc:Work
         rdf:about="">
        <dc:format>image/svg+xml</dc:format>
        <dc:type
           rdf:resource="http://purl.org/dc/dcmitype/StillImage" />
        <dc:title></dc:title>
      </cc:Work>
    </rdf:RDF>
  </metadata>
  <g
     inkscape:label="Layer 1"
     inkscape:groupmode="layer"
     id="layer1">
    <path
       style="fill:#333333;stroke-width:0.55425578"
       d="m 29.244898,292.71219 c 0.0095,-0.53351 0.257617,-1.96761 0.556451,-3.18699 0.617376,-2.51987 2.64061,-20.34206 3.114528,-27.43567 0.27479,-4.11607 0.143595,-5.16618 -1.04072,-8.31383 -1.827117,-4.856 -2.167648,-4.98196 -11.701151,-4.32722 -8.932638,0.61346 -8.5611,0.77069 -12.0361943,-5.09388 -2.6614094,-4.49144 -3.8476356,-8.96116 -3.8476356,-14.49815 0,-2.35808 -0.2595236,-7.35632 -0.5765812,-11.10725 -0.3883325,-4.59449 -0.407893,-13.33053 -0.059631,-26.773 l 0.5170444,-19.95322 1.9476716,-5.2885 c 1.8178138,-4.93607 4.3987911,-16.40813 5.1724961,-22.99122 0.223745,-1.90464 0.01909,-4.15033 -0.613459,-6.6649 -0.6778173,-2.70272 -0.8458393,-4.77521 -0.584837,-7.21267 0.50903,-4.75331 2.260819,-11.2832 3.45668,-12.88491 3.219912,-4.31277 29.307856,-15.52903 51.704637,-22.229945 0.886009,-0.265249 2.078963,-1.598181 3.325539,-3.716117 1.0691,-1.816481 2.784112,-4.50317 3.811039,-5.970391 l 1.867236,-2.667703 0.915501,2.704387 c 0.503534,1.487401 3.052929,6.064906 5.665356,10.172208 8.980907,14.120011 17.477566,30.276061 24.025482,45.683591 2.32546,5.4718 4.41998,10.21069 4.6545,10.53086 0.23471,0.32011 1.33205,2.95156 2.43899,5.84754 4.81685,12.60251 6.71047,17.24109 7.1489,17.51205 0.25761,0.15934 0.47039,1.21013 0.47231,2.3353 0.003,1.12517 0.47715,2.76397 1.05587,3.64183 l 1.05222,1.59607 -1.47156,1.36245 c -1.20183,1.11276 -1.26837,1.29557 -0.36305,0.99731 2.02672,-0.66776 5.81968,-1.25697 5.81968,-0.90413 0,0.19128 -1.05998,0.67748 -2.35555,1.0805 -2.66572,0.8292 -4.2955,2.08583 -4.2955,3.31199 0,0.4575 -0.62353,1.64922 -1.38565,2.64838 -0.76207,0.99917 -1.38564,2.16078 -1.38564,2.58131 0,1.05871 -2.9036,3.74335 -4.04866,3.74335 -0.51677,0 -0.93964,0.22041 -0.93964,0.48961 0,0.64314 -2.36119,1.25141 -2.87003,0.73931 -0.55449,-0.55802 -0.66489,-5.12316 -0.16173,-6.68803 0.41648,-1.29528 0.40933,-1.29748 -1.30673,-0.40981 -3.46302,1.79082 -3.49723,2.66661 -0.69695,17.85627 1.83834,9.97192 2.02525,10.61061 3.53331,12.07282 0.90456,0.87719 1.27558,0.94354 2.16606,0.38739 0.68803,-0.42984 1.95789,-0.53857 3.53082,-0.30295 1.351,0.20275 2.45637,0.23185 2.45637,0.0644 0,-0.16696 -1.31112,-1.6296 -2.91368,-3.24986 -2.1383,-2.16207 -3.09702,-3.64871 -3.60267,-5.58668 -0.90351,-3.46293 -0.8101,-5.19073 0.12696,-2.34765 0.40171,1.21937 0.75682,1.78054 0.78879,1.24711 0.0382,-0.61667 0.51237,-0.9727 1.3052,-0.97752 2.06909,-0.0143 3.80046,-0.6494 3.56165,-1.31008 -0.2891,-0.79965 0.61046,-2.56214 1.30759,-2.56214 0.29387,0 0.53473,0.47231 0.53473,1.04922 0,0.57705 0.35972,1.18732 0.79986,1.3561 0.50593,0.19418 0.8623,1.28509 0.96991,2.96918 l 0.17032,2.66222 2.81059,0.34301 c 1.54585,0.18892 3.29171,0.59246 3.87979,0.89736 1.14563,0.59395 7.47932,-0.10352 9.23697,-1.0173 0.52934,-0.27525 1.32213,-0.50029 1.76174,-0.50029 1.46475,0 2.54129,-1.68543 2.54129,-3.97865 0,-1.91985 -0.13735,-2.17756 -0.96997,-1.81905 -1.33578,0.5752 -10.71863,1.17817 -11.00953,0.70749 -0.2438,-0.39452 1.93773,-0.73549 8.05782,-1.25927 4.62217,-0.39547 5.69269,-1.31645 5.47177,-4.70639 l -0.16459,-2.52339 -5.26544,-0.30963 c -2.89603,-0.1703 -4.26778,-0.35876 -3.04844,-0.41886 4.23826,-0.20896 8.7503,-1.18374 9.77608,-2.11207 1.59421,-1.44274 1.35172,-4.30987 -0.48685,-5.75603 -1.35697,-1.06745 -1.9915,-1.16281 -5.95822,-0.89556 l -4.43953,0.29912 5.99657,-0.97527 c 3.74294,-0.60878 6.18728,-1.27677 6.504,-1.77745 0.95419,-1.50818 0.53456,-3.39633 -1.09262,-4.91636 -1.15178,-1.07593 -1.47323,-1.73805 -1.117,-2.30083 0.8238,-1.30173 0.60029,-1.62162 -1.13294,-1.62162 -1.14835,0 -1.92596,0.42126 -2.55789,1.38561 -0.76416,1.16632 -1.33827,1.38568 -3.62671,1.38568 h -2.7188 l 1.15918,-2.27222 c 0.89578,-1.75585 1.07302,-2.7949 0.78,-4.57258 -0.20848,-1.26523 -0.61255,-2.59 -0.89769,-2.94395 -0.33109,-0.41073 -0.28672,-0.78656 0.12162,-1.03917 0.38691,-0.23902 0.43032,-0.53285 0.10969,-0.74218 -0.66218,-0.43223 -4.41358,-15.24437 -4.0995,-16.18657 0.22184,-0.66541 0.83984,1.21975 4.60255,14.03883 1.7121,5.83294 3.13962,8.04318 2.50575,3.87978 -0.17414,-1.14315 -0.48815,-3.94907 -0.698,-6.23541 -0.20992,-2.28628 -0.74641,-4.8759 -1.19232,-5.75466 -0.5836,-1.15011 -0.63623,-1.70559 -0.18796,-1.98268 0.69688,-0.4308 0.32201,-3.12311 -3.35838,-24.13232 -1.91194,-10.91373 -3.55853,-18.53307 -6.0773,-28.12196 -0.29959,-1.13957 -0.82589,-2.0125 -1.17014,-1.93989 -0.43748,0.0921 -0.60407,-1.62217 -0.55336,-5.687674 0.0382,-3.200841 -0.12878,-6.144187 -0.37449,-6.540874 -0.74179,-1.196143 -2.99359,0.252371 -4.1063,2.641669 -2.08187,4.470186 -7.48165,9.324539 -9.5075,8.547159 -1.10642,-0.42458 -1.13671,-2.43094 -0.0382,-2.43094 0.96076,0 5.05679,-3.559859 5.89229,-5.121027 0.50196,-0.93791 0.44223,-0.992726 -0.52138,-0.47711 -2.12486,1.137185 -8.99285,1.142854 -13.2573,0.0093 -4.856736,-1.289124 -5.678526,-1.327913 -4.273026,-0.201794 1.03408,0.828473 1.02764,0.838586 -0.16555,0.260476 -0.68282,-0.330608 -1.18164,-0.872275 -1.10851,-1.203406 0.13594,-0.614312 -3.411308,-2.933428 -3.83642,-2.508317 -0.128783,0.128784 0.587166,0.759641 1.590681,1.402197 1.0035,0.642556 1.633708,1.172534 1.400468,1.177632 -0.835674,0.0191 -6.26422,-3.305581 -8.166902,-5.00075 -1.886884,-1.681082 -1.892136,-1.696826 -0.191771,-0.576099 2.145364,1.413825 2.171036,1.414261 2.171036,0.03819 0,-0.613315 -0.253326,-1.030648 -0.563179,-0.927409 -0.677385,0.225644 -2.518626,-1.531767 -3.843103,-3.66841 -1.160653,-1.872292 -2.501547,-2.488234 -3.14621,-1.44517 -0.312957,0.506019 -0.06348,1.200538 0.735739,2.051436 0.84368,0.89803 0.939333,1.183124 0.316761,0.94425 -0.490416,-0.187965 -1.692767,-1.339027 -2.671901,-2.557401 -1.872432,-2.330001 -2.988678,-7.040363 -2.165446,-9.137836 0.2266,-0.577041 0.429352,-2.483305 0.450826,-4.23614 0.0191,-1.752832 0.125414,-3.186965 0.230897,-3.186965 0.105472,0 0.991678,0.398921 1.969084,0.886543 1.456112,0.726385 2.065032,0.76728 3.370859,0.226361 0.876571,-0.363094 1.73261,-1.021982 1.902303,-1.464229 0.451783,-1.177563 -0.897117,-5.745476 -1.696783,-5.745476 -0.375931,0 -0.836111,-0.246557 -1.022306,-0.547913 -0.194159,-0.314193 0.02866,-0.407081 0.521538,-0.217823 0.59093,0.226741 0.860139,0.0011 0.860139,-0.720444 0,-1.167858 -1.823291,-6.618691 -2.410275,-7.205688 -0.206095,-0.20604 -1.119771,0.176322 -2.030582,0.849677 -2.178718,1.610834 -2.151093,0.550455 0.02866,-1.156652 1.026308,-0.803233 1.559293,-1.632252 1.362072,-2.118624 -1.016969,-2.507657 -6.524552,-4.171704 -8.214413,-2.481886 -0.676529,0.676571 -0.935963,0.730683 -0.950274,0.198232 -0.0098,-0.402839 -0.333938,-0.166408 -0.718028,0.525357 -0.671291,1.208924 -0.737354,1.149447 -1.701265,-1.531007 -1.47677,-4.106806 -1.384543,-14.75488 0.16315,-18.827925 0.618512,-1.627813 1.281348,-4.004987 1.47295,-5.282604 0.650996,-4.341033 2.30923,-6.372906 8.024104,-9.832123 2.887253,-1.747666 6.785028,-3.6652833 8.661673,-4.2613806 1.876632,-0.5960955 4.85916,-1.9004992 6.627834,-2.8986711 2.839404,-1.6024794 3.802214,-1.839682 8.22727,-2.0269446 3.53555,-0.1496083 5.66451,0.031491 7.22857,0.6152054 12.38813,4.622677 12.61878,4.7804248 18.42736,12.6035689 l 2.69184,3.625491 -1.85541,-0.945958 c -1.02048,-0.520272 -2.15581,-1.193729 -2.52292,-1.496567 -0.36734,-0.30284 -2.94254,-0.727692 -5.72317,-0.944128 -4.37346,-0.340386 -5.64498,-0.22255 -9.42235,0.873509 -2.40164,0.69686 -4.61605,1.446571 -4.92089,1.666021 -0.73634,0.530097 -4.20563,1.071773 -8.385146,1.309232 -2.974699,0.169024 -3.607663,0.413568 -5.092817,1.967627 -1.278596,1.337956 -1.785851,2.49428 -2.06131,4.699191 -0.361143,2.89023 0.0014,4.121102 2.080059,7.061415 0.515991,0.729936 0.497621,1.237599 -0.0844,2.32469 -0.502916,0.939784 -0.617417,2.164774 -0.353025,3.777307 0.58888,3.591124 0.486598,4.334221 -0.973882,7.073492 -1.804655,3.384762 -2.275129,9.786894 -0.97933,13.326308 1.169051,3.193273 2.930578,6.088826 3.706805,6.09332 0.575439,0.0028 2.02654,3.866345 1.80989,4.818079 -0.17793,0.782097 0.73464,3.499249 1.1754,3.499249 0.23186,0 1.656526,0.983138 3.165626,2.184673 2.12694,1.693498 3.42051,2.271844 5.75353,2.572343 1.65532,0.213245 3.67169,0.851278 4.48084,1.417941 0.80919,0.566703 1.74906,1.030367 2.08868,1.030367 0.33968,0 1.87107,0.65549 3.40321,1.456631 2.19808,1.149348 3.8329,1.516346 7.74936,1.73966 2.73002,0.155523 4.96364,0.494054 4.96364,0.751959 0,0.258086 -1.23173,1.408052 -2.73725,2.555828 -1.5055,1.147775 -2.67101,2.336292 -2.59001,2.641145 0.081,0.30484 1.50343,0.825985 3.161,1.158069 3.49104,0.699476 10.61317,2.994895 16.57691,5.342632 2.2863,0.900035 8.64639,2.615313 14.13354,3.811693 5.4871,1.19644 10.67201,2.45513 11.522,2.7971 1.96532,0.79078 3.72203,3.80012 6.17671,10.58142 1.07111,2.95891 2.67311,6.8202 3.56008,8.58065 1.73079,3.4354 3.74171,9.44746 5.9834,17.88857 0.76908,2.89599 3.0183,10.62785 4.99833,17.18192 1.98,6.5541 4.31363,15.40834 5.18584,19.67609 2.15644,10.55136 4.56823,19.47871 6.04341,22.37036 0.67385,1.32085 1.09157,2.74965 0.92832,3.17521 -0.16314,0.42553 0.16174,1.21193 0.72223,1.74758 2.7407,2.61905 3.50784,7.31676 2.21354,13.55594 -0.89693,4.32375 -2.57028,6.80791 -8.3558,12.40491 -4.44664,4.30171 -5.75632,5.23504 -9.0629,6.45844 -5.8423,2.16164 -6.6122,2.23095 -11.53662,1.03871 -6.82492,-1.65231 -8.00029,-1.83714 -9.2209,-1.44971 -1.48977,0.47277 -1.40293,1.22096 0.46086,3.9699 1.05349,1.55392 2.59665,5.97169 4.74337,13.57927 2.06967,7.33431 3.87344,12.53545 5.16009,14.87874 5.23919,9.54166 5.69875,10.92072 4.50919,13.53157 -0.4983,1.09367 -0.43937,2.08195 0.27718,4.63503 1.57245,5.60429 2.86778,5.11215 -13.45428,5.11215 h -14.36471 l -0.55096,-2.63273 c -0.30294,-1.44799 -0.85949,-4.58289 -1.23665,-6.96647 -0.37689,-2.38352 -0.83577,-4.09099 -1.01917,-3.79439 -0.18366,0.29674 -0.36829,-1.11117 -0.41122,-3.12841 -0.043,-2.01728 -0.29865,-3.7414 -0.56843,-3.83137 -0.27002,-0.0901 -0.39262,-1.19194 -0.27289,-2.44887 0.1498,-1.57305 0.0286,-2.16718 -0.39501,-1.90636 -0.37544,0.23185 -0.49553,0.0725 -0.31008,-0.41124 0.16696,-0.43461 -0.3268,-4.75001 -1.09677,-9.5897 -0.77004,-4.8397 -1.6457,-10.54531 -1.9459,-12.67924 l -0.54581,-3.87978 0.28528,4.42026 c 0.15694,2.43119 0.61794,6.4218 1.02477,8.86809 1.33245,8.01171 1.45792,9.25499 0.89927,8.90976 -0.29435,-0.18178 -1.55634,1.41739 -2.80423,3.55412 -1.24795,2.13674 -2.83578,4.54396 -3.52858,5.34935 -1.12827,1.3117 -1.38354,1.38693 -2.44897,0.72158 -0.65421,-0.40838 -1.36218,-0.57017 -1.57322,-0.35925 -0.55898,0.55893 -0.30961,13.40209 0.29101,14.98146 l 0.5095,1.34021 3.78492,-0.73233 c 2.08164,-0.40264 4.91964,-0.7415 6.30666,-0.75271 1.38703,-0.009 2.79537,-0.29387 3.12961,-0.62806 0.44081,-0.44081 0.77571,0.17556 1.21937,2.24432 0.33633,1.56859 0.61166,2.96444 0.61166,3.10182 0,0.13736 -4.39146,0.24999 -9.75878,0.24999 -8.67173,0 -9.72134,-0.0978 -9.42229,-0.87683 0.1851,-0.48227 0.49447,-5.65763 0.6876,-11.50079 0.19321,-5.84321 0.55959,-10.9981 0.81443,-11.45538 0.40455,-0.72539 0.46561,-0.72003 0.48023,0.043 0.009,0.48038 0.65352,1.47147 1.43166,2.20255 1.19305,1.12075 1.49585,1.20109 1.93145,0.5123 0.28434,-0.44939 0.52039,-1.26809 0.52506,-1.81954 0.005,-0.62329 0.25381,-0.85103 0.65694,-0.60191 0.43507,0.26908 0.53282,0.0993 0.2972,-0.51488 -0.2166,-0.56456 -0.0935,-0.86507 0.32155,-0.78374 0.3702,0.0725 0.60034,-0.21038 0.51165,-0.62891 -0.10072,-0.47467 0.14933,-0.64157 0.66565,-0.44367 0.5864,0.22517 1.2241,-0.52082 2.19284,-2.56471 1.39581,-2.94509 2.15916,-6.48468 1.39853,-6.48468 -0.23284,0 -0.27958,-0.88663 -0.10353,-1.97024 0.36161,-2.22794 -0.82199,-5.20668 -1.58874,-3.99856 -0.30054,0.47372 -0.44939,0.28528 -0.45511,-0.57645 -0.005,-0.71363 0.23661,-1.12822 0.54581,-0.93719 0.30485,0.18845 0.55426,0.10729 0.55426,-0.17986 0,-0.28718 -0.49887,-0.65276 -1.10852,-0.81221 -1.28819,-0.3368 -1.50322,-1.50218 -0.27717,-1.50218 0.49515,0 0.82794,-0.5043 0.8229,-1.24704 -0.005,-1.03333 -0.10969,-1.10456 -0.59768,-0.41553 -0.46132,0.65072 -0.53673,0.50286 -0.34779,-0.68064 0.17843,-1.11852 -0.0287,-1.59697 -0.78796,-1.83866 -0.56615,-0.17985 -1.03319,-0.62167 -1.03781,-0.98218 -0.005,-0.3974 -0.23997,-0.32822 -0.59648,0.17603 -0.52262,0.73903 -0.56274,0.73903 -0.36114,0 0.12498,-0.45702 0.57687,-0.83138 1.00455,-0.83138 0.42745,0 0.86564,-0.45704 0.97322,-1.01592 0.16412,-0.85168 0.0191,-0.92207 -0.88945,-0.43507 -1.06427,0.56955 -1.78512,0.3349 -1.78512,-0.58116 0,-0.2538 0.62351,-0.46181 1.38563,-0.46181 1.55687,0 1.90713,-1.34405 0.49182,-1.88718 -0.69681,-0.26716 -0.75206,-0.51374 -0.25046,-1.11796 0.52143,-0.62825 0.31581,-0.84679 -1.08518,-1.15455 -1.22277,-0.26859 -1.63587,-0.6207 -1.41211,-1.20372 0.17411,-0.45322 0.31628,-1.5519 0.31628,-2.44148 0,-1.06826 0.28243,-1.61745 0.83139,-1.61745 0.45702,0 0.83138,-0.24951 0.83138,-0.55426 0,-0.30485 -0.62357,-0.55425 -1.38563,-0.55425 -1.72478,0 -1.81424,-0.85868 -0.13874,-1.33011 1.16431,-0.32774 1.18273,-0.40026 0.27717,-1.09569 -0.53346,-0.40979 -0.96993,-1.13699 -0.96993,-1.61634 0,-1.14367 -1.79711,-1.67842 -4.03083,-1.19944 -2.61957,0.56175 -2.67013,0.65959 -1.42881,2.76351 0.62467,1.05873 1.25807,3.10942 1.40753,4.55708 0.15028,1.45786 0.62572,2.83281 1.06511,3.08189 0.43651,0.24759 0.61225,0.7426 0.39119,1.10054 -0.55331,0.89522 -0.19369,4.46806 0.49214,4.89293 0.36641,0.22709 0.34779,0.47726 -0.0539,0.72553 -0.90078,0.55673 -0.76602,4.16975 0.16889,4.52851 0.65763,0.25236 0.63555,0.55806 -0.13876,1.91762 l -0.92097,1.6173 -0.64743,-4.56773 c -0.60219,-4.24828 -0.6272,-3.90878 -0.35732,4.85463 0.26907,8.7357 -0.55325,35.76199 -1.25197,41.15351 l -0.30532,2.35557 H 81.849418 c -49.75015,0 -52.619609,-0.053 -52.607111,-0.96992 z M 131.07643,276.36165 c -0.34922,-1.0488 -2.07871,-1.19786 -2.07871,-0.17938 0,0.51413 0.47371,0.87203 1.15473,0.87203 0.67729,0 1.05931,-0.28624 0.92398,-0.69285 z m 43.26052,-6.10358 c -0.93152,-2.66366 -1.93814,-4.843 -2.23686,-4.843 -0.30199,0 -0.36353,0.43079 -0.13877,0.96998 0.22231,0.53345 0.98607,2.53442 1.69709,4.44653 1.36903,3.68187 1.89365,4.74815 2.19009,4.45166 0.10028,-0.10007 -0.57992,-2.36153 -1.51143,-5.02517 z m -95.37234,0.36447 c -0.184146,-0.18414 -0.662218,-0.20371 -1.062332,-0.043 -0.442231,0.177 -0.310569,0.30818 0.334907,0.3349 0.58426,0.0238 0.911626,-0.10688 0.727481,-0.29101 z m 92.71082,-8.77765 c 0,-0.13453 -0.2495,-0.39835 -0.55424,-0.58697 -0.30485,-0.18844 -0.55427,-0.0782 -0.55427,0.24426 0,0.32297 0.24951,0.58697 0.55427,0.58697 0.30483,0 0.55424,-0.10968 0.55424,-0.24426 z m -25.42447,-29.96253 c -0.39072,-8.02926 -0.47086,-8.59478 -0.54201,-3.82482 -0.0815,5.45983 0.48538,14.90264 0.82843,13.79985 0.0943,-0.30389 -0.0334,-4.79275 -0.28623,-9.97503 z m -11.19303,1.10851 c -0.37545,-1.82902 -1.02873,-3.94905 -1.45178,-4.71116 l -0.76911,-1.38564 0.38118,1.38564 c 1.52203,5.52904 1.8742,7.22359 1.95822,9.42234 0.0868,2.26662 0.11685,2.3172 0.32965,0.55425 0.12878,-1.06696 -0.0729,-3.43635 -0.44844,-5.26543 z m -0.87146,3.32554 c -0.17555,-0.45751 -0.41695,-0.83138 -0.53689,-0.83138 -0.11979,0 -0.21802,0.37402 -0.21802,0.83138 0,0.45751 0.24139,0.83138 0.53689,0.83138 0.29531,0 0.3931,-0.374 0.21802,-0.83138 z m 8.66768,-2.43485 c 0,-0.2724 -0.37401,-0.6385 -0.83139,-0.81396 -0.50646,-0.19418 -0.83138,-0.001 -0.83138,0.49495 0,0.44748 0.37403,0.81396 0.83138,0.81396 0.45704,0 0.83139,-0.22278 0.83139,-0.49495 z m 16.8113,-7.95743 c -0.48079,-2.52592 -0.73788,-2.60635 -0.73788,-0.2309 0,1.11773 0.24331,2.03225 0.54036,2.03225 0.31057,0 0.39453,-0.7663 0.19751,-1.80135 z m -27.48657,-1.14457 c -0.6096,-1.31284 -1.51842,-2.01713 -1.51842,-1.17672 0,0.40073 1.89701,2.94583 2.07267,2.78091 0.0729,-0.0686 -0.1765,-0.79045 -0.55425,-1.60419 z m 35.15741,0.92007 c 0.5575,-0.50449 1.01362,-1.26747 1.01362,-1.69544 0,-0.42793 0.2018,-0.65349 0.44843,-0.50107 0.24665,0.15218 1.1547,-0.47133 2.01789,-1.38578 1.22297,-1.29571 1.42172,-1.80865 0.90009,-2.32289 -0.51953,-0.51217 -0.92107,-0.31677 -1.79324,0.87285 -0.61809,0.84303 -1.64747,1.81305 -2.28749,2.15557 -0.85907,0.45989 -0.66393,0.0144 0.74532,-1.70774 3.71501,-4.53543 5.99791,-8.09559 6.33153,-9.87405 0.1937,-1.03308 1.20121,-2.63899 2.36357,-3.76785 1.96305,-1.90651 2.03151,-2.10831 2.21025,-6.51536 0.10166,-2.5013 0.21993,-5.36174 0.26334,-6.35652 0.0922,-2.11513 -2.27855,-4.97384 -4.53318,-5.46622 -5.40702,-1.1808 -6.45127,-1.81925 -7.82473,-4.78393 -1.53396,-3.31103 -3.02202,-4.27189 -6.6339,-4.28359 -2.90033,-0.009 -4.75411,1.04459 -4.23177,2.40584 0.23994,0.6252 0.0506,0.91733 -0.60277,0.92999 -1.41508,0.0286 -3.44665,1.9359 -3.44665,3.23786 0,1.75508 1.69529,2.35652 4.9194,1.74507 1.53768,-0.29149 3.29833,-0.84408 3.91261,-1.22774 0.82489,-0.51508 1.27929,-0.53507 1.73814,-0.0763 0.45893,0.45893 0.0334,0.72079 -1.63261,1.00202 -3.68343,0.62233 -6.28079,3.32596 -4.36497,4.54358 0.38119,0.24236 2.56343,0.73221 4.84976,1.0889 l 4.15692,0.64863 -5.45687,-0.004 c -3.00127,-0.004 -5.70194,0.23949 -6.00159,0.53904 -0.29961,0.2996 -0.46277,1.26098 -0.36258,2.13645 0.14933,1.30698 0.70213,1.83966 3.08976,2.97736 3.51856,1.67667 3.74111,2.29456 0.55621,1.54427 -3.66166,-0.86257 -3.921,-0.81544 -4.74232,0.86246 -0.72251,1.47593 -0.67157,1.67936 0.80782,3.22578 1.94877,2.03706 4.88998,3.89914 5.84973,3.70355 0.39454,-0.0806 1.33631,0.19511 2.09265,0.61231 0.75635,0.41744 2.6007,1.03076 4.09853,1.36336 2.89455,0.64279 3.68,1.59422 1.56383,1.89425 -1.60576,0.22755 -7.15925,-1.49041 -8.20817,-2.53929 -1.12315,-1.1232 -5.84086,-3.56279 -6.19838,-3.20527 -0.16506,0.16507 0.0191,0.89923 0.41315,1.63182 0.39214,0.73258 0.55296,1.59063 0.35779,1.90683 -0.47038,0.76096 2.63899,3.89839 5.15346,5.20006 4.00026,2.07087 10.68839,1.71798 8.87406,-0.468 -0.48665,-0.58642 -0.30007,-0.87073 0.86063,-1.31213 0.81507,-0.31008 1.6846,-0.56341 1.93226,-0.56341 0.2476,0 0.76585,-0.38021 1.15145,-0.84479 0.38547,-0.46465 0.81106,-0.73482 0.94541,-0.60043 0.13454,0.13454 -0.21277,0.72829 -0.7718,1.31986 -0.55889,0.59152 -1.88909,2.20572 -2.95601,3.58706 -1.86002,2.40818 -4.26783,4.41458 -6.15139,5.12595 -1.28822,0.4865 -6.13769,-3.55044 -7.92144,-6.59422 -1.27062,-2.16807 -2.55483,-3.2983 -2.55483,-2.24846 0,1.06095 2.49992,4.77175 4.52682,6.71943 1.94687,1.87073 8.33291,6.17771 9.2859,6.26269 0.12837,0.009 0.68961,-0.39214 1.24707,-0.89646 z m -0.64915,-21.25293 c -0.45751,-0.29529 -0.58197,-0.53725 -0.27719,-0.53725 0.30486,0 0.92838,0.24186 1.38565,0.53725 0.45704,0.29531 0.58198,0.53728 0.27719,0.53728 -0.30486,0 -0.92844,-0.24187 -1.38565,-0.53728 z m -4.98831,-1.78233 c -1.13,-0.49217 -1.20865,-0.6462 -0.42602,-0.83489 0.52779,-0.12739 1.51861,0.16028 2.20176,0.63869 1.44145,1.00961 0.36497,1.12859 -1.77574,0.19607 z m 39.11981,12.45035 c -0.63946,-0.63946 -0.9675,0.36209 -0.53151,1.62241 l 0.44606,1.28885 0.20371,-1.29467 c 0.11206,-0.71207 0.0587,-1.43956 -0.11825,-1.61659 z m -11.43308,-3.73982 c -0.005,-0.30484 -0.37544,-0.0701 -0.82296,0.52162 -0.44749,0.59175 -0.79709,1.96353 -0.77667,3.04841 l 0.0382,1.97252 0.78593,-2.49415 c 0.43221,-1.37174 0.78171,-2.74354 0.77664,-3.0484 z m -75.74866,3.59403 c -0.16079,-0.61441 -0.54997,-1.27649 -0.86512,-1.47127 -0.31534,-0.19464 -0.44798,-0.12837 -0.29578,0.14741 0.15266,0.27574 0.4327,0.93782 0.62247,1.47133 0.47658,1.3386 0.89683,1.22366 0.53832,-0.14696 z m 86.3056,-1.11768 c 0,-2.34624 -5.02897,-8.85027 -6.8431,-8.85027 -1.2181,0 -1.16925,1.41626 0.0802,2.32415 0.54818,0.39836 1.98235,2.15544 3.18699,3.90465 2.00116,2.90581 3.57593,4.06027 3.57593,2.62147 z m 4.84022,-3.69336 c -0.70897,-0.70895 -0.84957,-0.70285 -1.13824,0.0496 -0.18128,0.47181 0.0964,1.28421 0.61705,1.80473 0.89236,0.89236 0.95734,0.88955 1.13823,-0.0496 0.10547,-0.54777 -0.17222,-1.35988 -0.61704,-1.80476 z m -12.78702,-0.30721 c -0.1536,-0.38118 -0.27956,-0.0693 -0.27956,0.69284 0,0.76206 0.12598,1.07382 0.27956,0.69279 0.15361,-0.38116 0.15361,-1.00461 0,-1.38563 z m 9.60956,-1.24706 c 0,-0.45749 -0.2495,-0.83143 -0.5543,-0.83143 -0.30483,0 -0.5542,0.37402 -0.5542,0.83143 0,0.45704 0.24951,0.83139 0.5542,0.83139 0.30485,0 0.5543,-0.37402 0.5543,-0.83139 z m -6.48049,-6.88987 c -0.15408,-0.58862 -0.64235,-1.20928 -1.08541,-1.3793 -0.80968,-0.31059 -0.64228,0.26047 0.51472,1.75664 0.74673,0.96554 0.89606,0.86679 0.57069,-0.37734 z m -40.2642,-10.70777 c -0.15361,-0.38117 -0.27957,-0.0693 -0.27957,0.69279 0,0.76211 0.12598,1.07388 0.27957,0.69285 0.15362,-0.38117 0.15362,-1.00461 0,-1.38564 z m -43.94549,-4.65306 c -0.63541,-1.5207 -0.68231,-2.12042 -0.18988,-2.42488 0.42745,-0.26429 0.45847,-0.52578 0.0882,-0.75439 -0.31152,-0.19227 -0.67323,-0.0382 -0.80418,0.34635 -0.13118,0.38308 -0.91732,-0.63793 -1.74736,-2.26864 -0.83014,-1.63076 -1.62984,-2.84442 -1.77721,-2.69706 -0.14742,0.14742 0.45512,1.60629 1.33907,3.24206 0.88387,1.63581 2.02523,3.78481 2.53647,4.77553 1.25173,2.42598 1.60185,2.28767 0.55449,-0.21897 z m 38.44986,-24.02969 c -0.0892,-1.98645 -0.47929,0.42696 -1.11985,6.92824 -1.27067,12.89672 -1.14419,15.7722 0.20705,4.71113 0.57729,-4.72501 0.988,-9.96273 0.91266,-11.63937 z m -3.34755,-0.13216 c -0.13258,-0.68944 -0.24617,-0.25569 -0.25237,0.9635 -0.005,1.21936 0.10207,1.78346 0.24091,1.25353 0.13889,-0.52993 0.1436,-1.52756 0.009,-2.21703 z m 4.04207,-5.65485 c 0,-1.35382 -0.2495,-2.61561 -0.55426,-2.80401 -0.34158,-0.21085 -0.55424,0.73325 -0.55424,2.46148 0,1.54216 0.24952,2.80396 0.55424,2.80396 0.30485,0 0.55426,-1.10767 0.55426,-2.46143 z m -55.393642,-0.94015 c -0.624959,-1.02512 -1.137229,-1.6529 -1.138381,-1.39509 -0.0028,0.64595 1.832842,3.70075 2.07711,3.4565 0.108702,-0.10871 -0.313912,-1.0363 -0.938729,-2.06141 z m -2.248981,-3.80375 c -0.326313,-0.60968 -0.717944,-1.10852 -0.870364,-1.10852 -0.152181,0 -0.0098,0.49884 0.316299,1.10852 0.326313,0.60968 0.717987,1.10851 0.870406,1.10851 0.152181,0 0.0098,-0.49883 -0.316299,-1.10851 z m 56.931803,-3.73362 c -0.12738,-0.8425 -0.23519,-0.2848 -0.23902,1.23947 -0.004,1.52422 0.10028,2.21355 0.23187,1.5318 0.1316,-0.68167 0.13497,-1.92877 0.009,-2.77127 z m -58.40332,1.21557 c -0.180326,-0.47038 -0.447008,-0.7364 -0.592321,-0.59113 -0.14551,0.14551 -0.09971,0.53016 0.101115,0.85528 0.546537,0.8843 0.865926,0.71249 0.491147,-0.26429 z m -4.957819,-8.78874 c -0.80152,-1.43403 -1.557045,-2.50757 -1.67899,-2.38559 -0.122183,0.12219 0.434144,1.39494 1.235564,2.82897 0.801465,1.43399 1.557004,2.50755 1.678934,2.3856 0.122183,-0.12217 -0.434128,-1.39499 -1.235508,-2.82898 z m 61.901969,-12.58432 c -0.29195,-0.73015 -0.54684,-1.03614 -0.56615,-0.68005 -0.0478,0.86502 0.59869,2.50608 0.8766,2.22818 0.12121,-0.12119 -0.0191,-0.81796 -0.31057,-1.54813 z m -3.61586,-22.50092 c -0.55458,-1.44517 -0.95198,-0.42125 -0.50193,1.29338 0.30772,1.17191 0.47278,1.32623 0.62812,0.58727 0.11586,-0.55131 0.0592,-1.39757 -0.1264,-1.88065 z M 85.52131,50.865256 c 0.550497,-0.890741 -0.783529,-3.058083 -2.310563,-3.753838 -1.632715,-0.743911 -1.671505,-0.16989 -0.161731,2.389365 1.209456,2.049906 1.835034,2.395192 2.472056,1.364473 z m -5.852351,-4.867599 c 0,-1.14012 -1.661295,-1.818474 -3.441373,-1.405215 l -1.824065,0.423441 2.21703,0.691484 c 2.774044,0.865196 3.048408,0.891333 3.048408,0.29029 z m 13.579256,-2.839138 c 0.188442,-0.304839 -0.06109,-0.554261 -0.554248,-0.554261 -0.49324,0 -0.742662,0.249422 -0.554261,0.554261 0.188442,0.304841 0.437949,0.554263 0.554261,0.554263 0.116425,0 0.365904,-0.249422 0.554248,-0.554263 z M 152.32024,283.93647 c 0.0286,-0.64567 0.15791,-0.77701 0.33489,-0.33491 0.1603,0.40026 0.1403,0.87818 -0.043,1.06232 -0.18415,0.18417 -0.31534,-0.14311 -0.29101,-0.72746 z m -12.79163,-14.39716 c 0,-0.47515 0.2495,-0.70997 0.55425,-0.52157 0.30485,0.18842 0.55427,0.57724 0.55427,0.8641 0,0.28672 -0.24952,0.52154 -0.55427,0.52154 -0.30483,0 -0.55425,-0.38881 -0.55425,-0.86407 z m 0.93882,-2.26162 c -0.51727,-0.51725 0.10785,-1.30835 1.03376,-1.30835 0.43937,0 0.79871,0.37401 0.79871,0.83137 0,0.83486 -1.17007,1.13937 -1.83247,0.47706 z m -1.44932,-1.07742 c 0.0286,-0.64565 0.15791,-0.77699 0.33489,-0.33489 0.16031,0.40025 0.14031,0.87818 -0.043,1.06233 -0.18416,0.18415 -0.31534,-0.14312 -0.29101,-0.72744 z m 4.53404,-0.0935 c 0.19749,-0.8017 5.3e-4,-1.42007 -0.55025,-1.72831 -1.04291,-0.58365 -0.43509,-1.80985 0.68439,-1.38035 0.8251,0.31677 0.81597,3.20397 -0.0144,3.96362 -0.23614,0.21658 -0.29052,-0.16841 -0.12175,-0.85496 z m -5.13206,-2.35427 c 0,-0.30485 0.37402,-0.55426 0.8314,-0.55426 0.45704,0 0.83137,0.24951 0.83137,0.55426 0,0.30485 -0.37401,0.55425 -0.83137,0.55425 -0.45704,0 -0.8314,-0.24952 -0.8314,-0.55425 z m 6.65108,-0.24427 c 0,-0.47515 0.24951,-0.86405 0.55425,-0.86405 0.30485,0 0.55425,0.23471 0.55425,0.52152 0,0.28672 -0.2495,0.67567 -0.55425,0.86406 -0.30484,0.18845 -0.55425,-0.0478 -0.55425,-0.52153 z m -6.56358,-2.52687 c 0,-0.76206 0.12598,-1.07386 0.27956,-0.69279 0.15362,0.38117 0.15362,1.00459 0,1.38564 -0.15362,0.38118 -0.27956,0.0692 -0.27956,-0.69285 z m 6.56358,0.5543 c -0.54811,-0.33871 -0.6374,-0.69288 -0.26764,-1.06238 0.34397,-0.34395 0.86629,-0.36113 1.37638,-0.0478 0.54806,0.33871 0.63736,0.69283 0.26765,1.06238 -0.34398,0.34396 -0.8663,0.36114 -1.37635,0.0478 z m -5.24177,-0.51599 c -0.17557,-0.28385 -0.0877,-0.65869 0.19464,-0.83316 0.7229,-0.44653 2.33375,0.25334 1.96304,0.85296 -0.40123,0.64957 -1.75141,0.63722 -2.15744,-0.0191 z m -1.41932,-2.26149 c -0.64675,-0.39978 -0.67199,-0.64203 -0.12401,-1.19009 0.82662,-0.82661 1.95588,0.043 1.34333,1.0331 -0.26287,0.42554 -0.69504,0.48108 -1.21939,0.15695 z m 3.95651,-0.19083 c -0.90267,-1.08761 0.47563,-2.22326 1.4341,-1.18173 0.52449,0.5699 0.51042,0.8593 -0.0648,1.33688 -0.5431,0.45082 -0.89976,0.41028 -1.36903,-0.15504 z m -3.859,-3.68303 c 0,-0.76212 0.12598,-1.07389 0.27956,-0.69281 0.15362,0.38118 0.15362,1.00457 0,1.38564 -0.15362,0.38117 -0.27956,0.0693 -0.27956,-0.69283 z m 1.29572,0.55033 c -0.41839,-0.6768 1.10226,-1.34661 1.91575,-0.84387 0.31963,0.1975 0.58084,0.59364 0.58084,0.88051 0,0.699 -2.06065,0.66875 -2.49659,-0.0382 z m 4.43404,0 c -0.42077,-0.68091 1.10451,-1.34524 1.92481,-0.8383 0.32442,0.20037 0.44655,0.59676 0.27099,0.88052 -0.42317,0.6845 -1.76258,0.65873 -2.19575,-0.0431 z m -6.37151,-3.09066 c 0,-0.48271 0.29626,-0.77887 0.65816,-0.65817 1.0277,0.34253 1.19816,1.53572 0.21946,1.53572 -0.4827,0 -0.87756,-0.39501 -0.87756,-0.87755 z m 4.0181,0.18462 c 0.3492,-1.04874 2.07871,-1.19786 2.07871,-0.17938 0,0.51413 -0.47373,0.87203 -1.15474,0.87203 -0.67729,0 -1.05931,-0.28625 -0.92397,-0.69285 z m -2.17757,-2.88974 c 0.31201,-0.93758 2.03929,-1.01821 2.03929,-0.095 0,0.49757 -0.45275,0.80347 -1.11526,0.75357 -0.61338,-0.0478 -1.02918,-0.34253 -0.92403,-0.65836 z m 2.40121,-2.46471 c -0.85285,-0.31582 -0.89603,-0.48484 -0.25857,-1.01391 0.4806,-0.39883 1.06574,-0.44941 1.57332,-0.13552 1.10866,0.6852 0.0144,1.64149 -1.31475,1.14945 z m -3.13322,-3.37506 c 0,-0.30485 0.49883,-0.55426 1.1085,-0.55426 0.60966,0 1.10852,0.24951 1.10852,0.55426 0,0.30484 -0.49886,0.55427 -1.10852,0.55427 -0.60967,0 -1.1085,-0.24951 -1.1085,-0.55427 z m -1.10852,-5.54255 c 0,-0.30486 0.62352,-0.55431 1.38565,-0.55431 0.76205,0 1.38564,0.24951 1.38564,0.55431 0,0.30484 -0.62359,0.55421 -1.38564,0.55421 -0.76213,0 -1.38565,-0.24951 -1.38565,-0.55421 z m 0,-5.54261 c 0,-0.30484 0.51353,-0.5542 1.1412,-0.5542 0.62766,0 0.98709,0.2495 0.7987,0.5542 -0.18843,0.30485 -0.70195,0.55429 -1.14124,0.55429 -0.43937,0 -0.79866,-0.24949 -0.79866,-0.55429 z m -1.1085,-5.81963 c 0,-0.93248 0.10165,-0.97026 1.33711,-0.49621 1.01463,0.38929 0.63412,1.32754 -0.53846,1.32754 -0.43938,0 -0.79865,-0.37402 -0.79865,-0.83133 z m -14.41071,-65.15782 c 0,-0.32299 0.24951,-0.43272 0.55426,-0.24427 0.30485,0.18844 0.55426,0.45274 0.55426,0.58694 0,0.13455 -0.24951,0.24425 -0.55426,0.24425 -0.30485,0 -0.55426,-0.26429 -0.55426,-0.58692 z m 7.23076,-8.78794 c -0.34061,-0.63617 -0.38737,-1.15599 -0.10406,-1.15599 0.56961,0 1.35606,1.6788 0.96811,2.06669 -0.13497,0.13498 -0.52368,-0.27478 -0.86393,-0.9107 z m -1.6882,-5.03578 c -0.43937,-0.27192 -0.67456,-0.61865 -0.52214,-0.77109 0.15266,-0.15218 0.63684,-0.0549 1.07639,0.21708 0.43986,0.27191 0.67463,0.61866 0.52221,0.77108 -0.15219,0.15217 -0.63684,0.0549 -1.07646,-0.21707 z m -1.45477,-2.2964 c -1.1012,-1.7081 -1.85453,-3.03845 -2.38747,-4.21608 -0.31058,-0.68588 -0.76527,-1.24711 -1.01081,-1.24711 -0.52401,0 -1.8978,-3.41045 -1.52426,-3.78399 0.13973,-0.13974 0.43173,0.21754 0.64879,0.79485 0.21707,0.5771 1.17354,2.17165 2.12586,3.5434 0.95237,1.37181 1.91657,2.98601 2.1427,3.58717 0.34492,0.91654 0.49437,0.96129 0.92709,0.27717 0.28385,-0.44892 0.51593,-0.56643 0.51593,-0.26143 0,0.30484 -0.21468,0.89264 -0.47658,1.30621 -0.40121,0.63315 -0.55311,0.63315 -0.96134,0 z m -15.1729,-10.45148 c 0,-0.30485 0.38882,-0.55426 0.86411,-0.55426 0.47516,0 0.70999,0.24951 0.52154,0.55426 -0.18845,0.30484 -0.57721,0.55426 -0.86407,0.55426 -0.28672,0 -0.52158,-0.2495 -0.52158,-0.55426 z m 11.92137,-2.07843 c -0.59324,-1.14315 -1.64765,-2.7835 -2.34306,-3.64522 -0.69547,-0.86169 -1.26447,-1.92172 -1.26447,-2.35557 0,-0.43365 -0.24951,-0.78887 -0.55426,-0.78887 -0.30484,0 -0.55425,-0.24951 -0.55425,-0.55426 0,-0.30485 0.31201,-0.55373 0.69285,-0.55316 0.38116,5.8e-4 1.86007,2.24536 3.28674,4.9883 1.42667,2.74298 2.41868,4.98721 2.20448,4.98721 -0.21421,0 -0.8748,-0.9353 -1.46803,-2.07843 z m -9.80825,-1.07145 c 0.40026,-0.1603 0.87814,-0.1403 1.06233,0.043 0.18415,0.18416 -0.14312,0.31536 -0.72748,0.29101 -0.64565,-0.0286 -0.77699,-0.15791 -0.3349,-0.33489 z m -3.22162,-6.82672 c 0,-0.30486 0.37402,-0.55427 0.83137,-0.55427 0.45704,0 0.83139,0.24951 0.83139,0.55427 0,0.30484 -0.37403,0.55425 -0.83139,0.55425 -0.45702,0 -0.83137,-0.24951 -0.83137,-0.55425 z m 7.01419,-2.2112 c -0.45797,-0.9177 -0.62251,-1.6686 -0.3659,-1.6686 1.21013,0 2.21985,0.76842 2.21985,1.68934 0,1.73725 -0.98239,1.72628 -1.85389,-0.0191 z m -8.50108,-2.37785 c -0.8588,-0.92354 -1.26699,-1.51186 -0.90698,-1.3073 0.36017,0.20466 0.81368,0.11446 1.00822,-0.20037 0.51723,-0.83686 1.51612,-0.0334 1.14858,0.92679 -0.23519,0.61314 0.0506,0.77066 1.15461,0.63679 1.01971,-0.12358 1.50805,0.0969 1.60127,0.72272 0.22993,1.54373 -2.30419,1.0512 -4.0057,-0.77854 z m -7.47928,-1.93673 c 2.21095,-2.79328 2.66623,-3.11699 3.03438,-2.15749 0.15456,0.40311 -0.50513,1.35242 -1.46613,2.10987 -3.070876,2.42038 -3.455586,2.43208 -1.56825,0.0478 z m 13.76974,0.0597 c -0.20324,-0.20324 -0.3621,-0.76441 -0.35254,-1.24706 0.0144,-0.7207 0.12218,-0.69674 0.60505,0.13399 0.59682,1.02632 0.42364,1.78933 -0.25236,1.11309 z m -8.9605,-0.73898 c -0.18844,-0.30485 -0.0782,-0.55425 0.24426,-0.55425 0.32297,0 0.58693,0.2495 0.58693,0.55425 0,0.30484 -0.11025,0.55425 -0.24425,0.55425 -0.13454,0 -0.39836,-0.2495 -0.58698,-0.55425 z m 12.32964,-1.80136 c -0.14264,-0.38116 -0.0625,-1.19166 0.1789,-1.8013 0.35732,-0.90271 0.44559,-0.77409 0.47755,0.69278 0.0383,1.87325 -0.21087,2.29752 -0.65645,1.10852 z m -5.11687,-1.86899 c -1.0369,-2.48167 -1.06815,-3.00963 -0.0935,-1.57986 0.75501,1.10756 1.5501,3.58743 1.15027,3.58743 -0.11981,0 -0.59529,-0.90341 -1.05666,-2.00757 z m -5.27287,0.34491 c 0,-0.30485 0.26429,-0.55425 0.58698,-0.55425 0.32297,0 0.4327,0.2495 0.24425,0.55425 -0.18844,0.30485 -0.45273,0.55426 -0.58691,0.55426 -0.13455,0 -0.24427,-0.24951 -0.24427,-0.55426 z m 10.28464,-2.72129 c -0.46991,-0.7603 0.26381,-2.26701 1.10422,-2.26701 1.11734,0 1.53892,1.05532 0.78464,1.96419 -0.76669,0.92382 -1.4385,1.03155 -1.88886,0.30292 z m -7.00284,-3.78064 c -0.0239,-0.58022 -0.15792,-0.69767 -0.32346,-0.28768 -0.31296,0.77604 -1.29572,0.9486 -1.29572,0.22757 0,-0.64862 2.56752,-1.75174 4.07711,-1.75174 0.68945,0 1.73777,0.39262 2.32947,0.87249 1.05121,0.85247 1.04788,0.86661 -0.14456,0.61308 -0.67128,-0.14264 -1.2948,-0.0748 -1.38563,0.15029 -0.0905,0.22517 -0.85105,0.57772 -1.68935,0.78309 -1.22147,0.29913 -1.5329,0.17891 -1.56797,-0.60706 z m 12.86828,-30.515318 c -1.51583,-0.505262 0.22947,-1.226394 2.9684,-1.226394 1.63877,0 3.68172,-0.262862 4.53992,-0.584652 l 1.56022,-0.584639 -1.13864,1.153688 c -0.83087,0.841742 -1.97062,1.194387 -4.21542,1.304155 -1.69219,0.083 -3.36374,0.05491 -3.71448,-0.06207 z m 8.79143,-4.288678 c 0,-1.113718 -0.34206,-1.467866 -1.67427,-1.734351 -0.92088,-0.184188 -1.80857,-0.552056 -1.97263,-0.81753 -0.48689,-0.78784 -6.2062,-0.549134 -8.35508,0.348742 -2.33821,0.976971 -2.40867,0.986366 -2.40867,0.321691 0,-0.938954 5.77994,-2.497265 9.54066,-2.572232 4.08694,-0.08145 5.46961,-0.781787 5.01043,-2.537725 -0.17316,-0.661698 0.0286,-1.351258 0.47277,-1.633908 1.32634,-0.839875 2.80362,-0.553307 3.10585,0.602503 0.3349,1.279858 0.42126,1.304702 1.8598,0.534753 1.60293,-0.857851 1.39399,0.63236 -0.31343,2.236524 -0.80233,0.753713 -1.38563,1.920406 -1.38563,2.771277 0,1.480421 -1.99305,3.879771 -3.22273,3.879771 -0.36116,0 -0.65712,-0.629748 -0.65712,-1.399472 z m -4.43406,-12.242685 c 0,-0.747241 -0.43317,-0.835928 -2.63268,-0.539277 -2.43113,0.327844 -2.55035,0.290247 -1.5568,-0.491331 0.5917,-0.465516 1.73775,-0.846361 2.54676,-0.846361 1.49814,0 3.61097,1.726823 2.93725,2.400557 -0.65515,0.655125 -1.29453,0.39649 -1.29453,-0.523588 z m 3.89096,-1.058989 c 0.38548,-0.464605 0.81521,-0.730627 0.95471,-0.591128 0.38451,0.384371 -0.39645,1.435917 -1.06644,1.435917 -0.36734,0 -0.32537,-0.318013 0.11164,-0.844789 z m 3.17584,-11.5148 c -0.83831,-0.331271 -1.52423,-0.911457 -1.52423,-1.289326 0,-0.892763 -1.9095,-1.488299 -3.32827,-1.038006 -1.76794,0.561142 -1.89975,-1.028724 -0.29578,-3.569399 1.02103,-1.61742 1.94277,-2.385979 3.15141,-2.627705 0.93958,-0.187922 2.52537,-1.158674 3.52391,-2.157245 l 1.81557,-1.815568 0.33776,1.689705 c 0.63021,3.151014 0.46991,3.543783 -1.4634,3.583232 -0.99073,0.02008 -3.04842,0.624005 -4.57264,1.341737 -2.2642,1.066194 -2.5431,1.340333 -1.52418,1.498272 0.68589,0.106313 1.24705,0.452062 1.24705,0.76832 0,0.316243 0.41648,0.415183 0.92567,0.219831 0.51026,-0.195788 1.12824,-0.03581 1.37715,0.356409 0.35159,0.55398 0.45322,0.558151 0.45987,0.01854 0.005,-0.38103 0.38262,-0.692821 0.83982,-0.692821 0.45705,0 0.83144,-0.249407 0.83144,-0.55426 0,-0.304839 0.51014,-0.554247 1.13361,-0.554247 1.00703,0 1.0918,0.232091 0.7591,2.078458 -0.37116,2.059835 -1.15178,3.518756 -1.82204,3.405139 -0.19131,-0.03244 -1.0337,-0.329991 -1.87202,-0.661249 z m -23.62682,-0.802098 c -0.47372,-0.846714 -0.76894,-0.882274 -2.35457,-0.28376 -1.24102,0.468439 -1.92576,0.501401 -2.17107,0.104489 -0.2037,-0.329515 -0.99353,-0.420352 -1.82993,-0.210394 -0.88677,0.222556 -1.47165,0.140018 -1.47165,-0.207613 0,-0.852344 1.66248,-1.237221 6.38825,-1.478919 2.32528,-0.118952 4.55889,-0.491035 4.96359,-0.826898 1.03838,-0.861796 3.76792,-0.103084 3.369,0.936455 -0.17078,0.444578 -0.31009,1.064031 -0.31009,1.376552 0,0.312535 -0.37402,0.416813 -0.8314,0.231812 -0.45701,-0.185059 -1.18292,-0.479183 -1.61268,-0.653651 -0.47824,-0.194158 -0.92268,0.128222 -1.14585,0.831391 -0.44415,1.399276 -2.25051,1.508244 -2.9935,0.180564 z m 8.53472,-3.430096 c -0.5355,-1.687347 -4.82672,-2.809688 -9.85523,-2.577583 -2.36567,0.109263 -4.67878,0.511863 -5.14025,0.894815 -0.46132,0.382938 -0.97761,0.557687 -1.147,0.388289 -0.55307,-0.553068 1.47107,-3.062367 2.71955,-3.371447 1.75251,-0.433793 12.94835,0.152672 14.55172,0.762266 1.53634,0.584119 1.58882,0.811589 0.74551,3.230784 -0.69337,1.989067 -1.37848,2.235006 -1.8743,0.672889 z"
       id="path854"
       inkscape:connector-curvature="0" />
  </g>
</svg>
