<?xml version="1.0" encoding="UTF-8" standalone="no"?>
<svg
   xmlns:dc="http://purl.org/dc/elements/1.1/"
   xmlns:cc="http://creativecommons.org/ns#"
   xmlns:rdf="http://www.w3.org/1999/02/22-rdf-syntax-ns#"
   xmlns:svg="http://www.w3.org/2000/svg"
   xmlns="http://www.w3.org/2000/svg"
   id="svg4724"
   version="1.1"
   viewBox="0 0 25.664583 13.758334"
   height="52"
   width="97">
  <defs
     id="defs4718" />
  <metadata
     id="metadata4721">
    <rdf:RDF>
      <cc:Work
         rdf:about="">
        <dc:format>image/svg+xml</dc:format>
        <dc:type
           rdf:resource="http://purl.org/dc/dcmitype/StillImage" />
        <dc:title></dc:title>
      </cc:Work>
    </rdf:RDF>
  </metadata>
  <g
     transform="translate(0,-283.24165)"
     id="layer1">
    <g
       transform="matrix(0.18795418,0,0,-0.18795418,-9.2820707,440.31727)"
       id="g4481">
      <g
         transform="translate(83.7847,787.9447)"
         id="g4371">
        <path
           id="path4369"
           style="fill:#4ac2b7;fill-opacity:1;fill-rule:nonzero;stroke:none"
           d="m 0,0 c -0.773,-0.109 -1.452,-0.455 -2.034,-1.037 -0.728,-0.728 -1.092,-1.602 -1.092,-2.621 0,-0.565 0.127,-1.101 0.382,-1.611 0.219,0.218 0.551,0.55 0.997,0.997 0.446,0.445 0.919,0.918 1.419,1.419 0.501,0.5 0.983,0.978 1.448,1.433 0.463,0.455 0.822,0.81 1.078,1.065 C 1.506,-0.009 0.773,0.109 0,0" />
      </g>
      <path
         transform="translate(102.6362,779.3993)"
         id="path4373"
         style="fill:#4ac2b7;fill-opacity:1;fill-rule:nonzero;stroke:none"
         d="M 0,0 C 0,-0.855 -0.16,-1.651 -0.479,-2.389 -0.797,-3.126 -1.233,-3.776 -1.789,-4.341 -2.344,-4.905 -2.99,-5.346 -3.727,-5.665 -4.464,-5.983 -5.26,-6.143 -6.116,-6.143 h -1.228 v 2.431 h 1.228 c 0.509,0 0.988,0.095 1.433,0.286 0.447,0.191 0.838,0.456 1.175,0.792 0.336,0.337 0.6,0.732 0.791,1.188 0.191,0.454 0.287,0.936 0.287,1.446 v 0.027 c -0.509,-0.4 -1.078,-0.709 -1.707,-0.927 -0.627,-0.219 -1.287,-0.328 -1.979,-0.328 -0.837,0 -1.629,0.158 -2.375,0.477 -0.746,0.319 -1.402,0.76 -1.966,1.325 -0.564,0.563 -1.005,1.218 -1.324,1.966 -0.319,0.745 -0.477,1.537 -0.477,2.375 v 6.115 h 2.429 V 4.915 c 0,-0.51 0.096,-0.993 0.287,-1.448 0.191,-0.454 0.455,-0.851 0.792,-1.187 0.336,-0.337 0.732,-0.6 1.188,-0.793 0.454,-0.19 0.937,-0.286 1.446,-0.286 0.509,0 0.988,0.096 1.433,0.286 0.447,0.193 0.838,0.456 1.175,0.793 0.336,0.336 0.6,0.733 0.791,1.187 0.191,0.455 0.287,0.938 0.287,1.448 V 11.03 H 0 Z m -17.677,1.215 c 0.773,0.118 1.451,0.468 2.033,1.051 l 0.847,0.846 1.719,-1.72 -0.846,-0.846 c -0.582,-0.583 -1.246,-1.028 -1.993,-1.337 -0.746,-0.31 -1.529,-0.464 -2.348,-0.464 -0.818,0 -1.601,0.154 -2.347,0.464 -0.747,0.309 -1.411,0.754 -1.993,1.337 -0.601,0.601 -1.047,1.279 -1.338,2.034 -0.292,0.755 -0.437,1.524 -0.437,2.307 0,0.782 0.145,1.547 0.437,2.294 0.291,0.745 0.737,1.42 1.338,2.02 0.6,0.6 1.278,1.05 2.033,1.35 0.756,0.302 1.524,0.451 2.307,0.451 0.783,0 1.552,-0.149 2.307,-0.451 0.756,-0.3 1.434,-0.75 2.034,-1.35 l 0.846,-0.847 -6.797,-6.797 c 0.691,-0.347 1.424,-0.46 2.198,-0.342 m -7.44,-2.417 h -2.43 v 6.143 c 0,0.51 -0.096,0.988 -0.286,1.434 -0.192,0.445 -0.456,0.837 -0.792,1.173 -0.337,0.337 -0.733,0.602 -1.187,0.793 -0.457,0.191 -0.938,0.286 -1.448,0.286 -0.51,0 -0.988,-0.095 -1.433,-0.286 C -33.139,8.15 -33.53,7.885 -33.867,7.548 -34.204,7.212 -34.468,6.82 -34.659,6.375 -34.85,5.929 -34.945,5.451 -34.945,4.941 v -6.143 h -2.43 v 17.173 h 2.43 v -6.17 c 0.509,0.4 1.078,0.71 1.706,0.929 0.628,0.218 1.287,0.327 1.979,0.327 0.855,0 1.652,-0.159 2.389,-0.478 0.737,-0.319 1.388,-0.756 1.952,-1.31 0.564,-0.556 1.005,-1.202 1.324,-1.939 0.318,-0.737 0.478,-1.533 0.478,-2.389 z M 14.794,32.11 C 14.428,31.46 13.507,31.064 12.236,31.064 H 1.209 c -0.302,0 -0.557,-0.253 -0.557,-0.552 V 19.481 c 0,-1.509 -1.227,-2.734 -2.732,-2.734 h -6.343 c -1.507,0 -2.731,1.225 -2.731,2.734 l -0.004,11.031 c 0,0.198 -0.102,0.326 -0.163,0.388 -0.061,0.064 -0.192,0.164 -0.389,0.164 h -11.036 c -1.506,0 -2.731,1.226 -2.731,2.733 v 6.215 1.709 c 0,1.154 0.968,1.154 2.731,1.154 h 11.036 c 0.296,0 0.556,0.253 0.556,0.554 l -0.004,11.031 c 0,0.378 0.077,0.738 0.217,1.066 -2.371,0.511 -4.828,0.787 -7.351,0.787 -19.169,0 -34.709,-15.54 -34.709,-34.709 0,-19.17 15.54,-34.709 34.709,-34.709 19.169,0 34.709,15.539 34.709,34.709 0,3.663 -0.571,7.191 -1.623,10.506" />
      <g
         transform="translate(132.7036,792.1537)"
         id="g4379">
        <path
           id="path4377"
           style="fill:#2c2a2a;fill-opacity:1;fill-rule:nonzero;stroke:none"
           d="m 0,0 c 0.882,0 1.705,-0.163 2.466,-0.492 0.762,-0.329 1.432,-0.781 2.015,-1.353 0.583,-0.574 1.039,-1.24 1.367,-2.001 0.33,-0.762 0.494,-1.585 0.494,-2.467 v -6.342 H 3.834 v 6.342 c 0,0.526 -0.099,1.019 -0.297,1.48 C 3.34,-4.372 3.068,-3.969 2.72,-3.622 2.371,-3.274 1.962,-3.001 1.494,-2.804 1.023,-2.606 0.525,-2.508 0,-2.508 c -0.527,0 -1.02,-0.098 -1.481,-0.296 -0.46,-0.197 -0.864,-0.47 -1.211,-0.818 -0.348,-0.347 -0.621,-0.75 -0.817,-1.211 -0.198,-0.461 -0.297,-0.954 -0.297,-1.48 v -6.342 h -2.508 v 6.342 c 0,0.526 -0.099,1.019 -0.296,1.48 -0.198,0.461 -0.471,0.864 -0.818,1.211 -0.347,0.348 -0.757,0.621 -1.227,0.818 -0.47,0.198 -0.967,0.296 -1.492,0.296 -0.527,0 -1.02,-0.098 -1.48,-0.296 -0.461,-0.197 -0.866,-0.47 -1.213,-0.818 -0.348,-0.347 -0.62,-0.75 -0.818,-1.211 -0.197,-0.461 -0.295,-0.954 -0.295,-1.48 v -6.342 h -2.51 v 6.342 c 0,0.882 0.165,1.705 0.494,2.467 0.328,0.761 0.779,1.427 1.353,2.001 0.574,0.572 1.244,1.024 2.015,1.353 0.771,0.329 1.588,0.492 2.454,0.492 1.051,0 2.015,-0.229 2.888,-0.69 0.873,-0.46 1.603,-1.085 2.185,-1.874 0.581,0.789 1.315,1.414 2.198,1.874 C -1.993,-0.229 -1.033,0 0,0" />
      </g>
      <g
         transform="translate(143.584,788.4906)"
         id="g4383">
        <path
           id="path4381"
           style="fill:#2c2a2a;fill-opacity:1;fill-rule:nonzero;stroke:none"
           d="m 0,0 c -0.752,-0.752 -1.127,-1.655 -1.127,-2.707 0,-0.582 0.131,-1.137 0.394,-1.663 0.226,0.226 0.568,0.567 1.028,1.028 0.461,0.461 0.95,0.949 1.467,1.467 0.517,0.517 1.015,1.01 1.494,1.479 0.479,0.47 0.85,0.837 1.114,1.101 C 3.655,1.061 2.898,1.184 2.101,1.071 1.301,0.958 0.601,0.602 0,0 M 6.286,-4.54 8.062,-6.314 7.188,-7.188 C 6.587,-7.79 5.9,-8.25 5.13,-8.569 c -0.771,-0.32 -1.579,-0.48 -2.423,-0.48 -0.847,0 -1.654,0.16 -2.426,0.48 -0.769,0.319 -1.457,0.779 -2.057,1.381 -0.62,0.62 -1.08,1.319 -1.38,2.1 -0.302,0.778 -0.452,1.573 -0.452,2.381 0,0.809 0.15,1.597 0.452,2.368 0.3,0.771 0.76,1.465 1.38,2.087 0.62,0.62 1.319,1.084 2.101,1.394 0.779,0.311 1.573,0.466 2.382,0.466 0.808,0 1.601,-0.155 2.381,-0.466 0.78,-0.31 1.479,-0.774 2.1,-1.394 L 8.062,0.874 1.043,-6.146 c 0.713,-0.357 1.47,-0.474 2.27,-0.352 0.798,0.122 1.498,0.483 2.099,1.086 z" />
      </g>
      <g
         transform="translate(158.8613,782.0067)"
         id="g4387">
        <path
           id="path4385"
           style="fill:#2c2a2a;fill-opacity:1;fill-rule:nonzero;stroke:none"
           d="M 0,0 C 0.527,0 1.02,0.099 1.481,0.296 1.941,0.493 2.345,0.766 2.694,1.113 3.041,1.461 3.313,1.871 3.51,2.34 3.708,2.81 3.807,3.308 3.807,3.834 V 7.639 H 0 C -0.525,7.639 -1.024,7.541 -1.493,7.343 -1.964,7.146 -2.372,6.873 -2.719,6.525 -3.067,6.178 -3.34,5.775 -3.538,5.314 -3.733,4.853 -3.833,4.36 -3.833,3.834 -3.833,3.308 -3.733,2.81 -3.538,2.34 -3.34,1.871 -3.067,1.461 -2.719,1.113 -2.372,0.766 -1.964,0.493 -1.493,0.296 -1.024,0.099 -0.525,0 0,0 M 6.315,15.222 V 3.834 C 6.315,2.969 6.15,2.151 5.821,1.381 5.493,0.61 5.042,-0.065 4.469,-0.648 3.896,-1.232 3.224,-1.686 2.453,-2.015 1.683,-2.344 0.865,-2.508 0,-2.508 c -0.864,0 -1.681,0.164 -2.452,0.493 -0.77,0.329 -1.447,0.783 -2.028,1.367 -0.583,0.583 -1.04,1.258 -1.368,2.029 -0.329,0.77 -0.493,1.588 -0.493,2.453 0,0.882 0.164,1.705 0.493,2.467 0.328,0.761 0.785,1.427 1.368,2.001 0.581,0.572 1.258,1.024 2.028,1.353 0.771,0.329 1.588,0.492 2.452,0.492 h 3.807 v 5.075 z" />
      </g>
      <g
         transform="translate(185.0259,790.8949)"
         id="g4391">
        <path
           id="path4389"
           style="fill:#4ac2b7;fill-opacity:1;fill-rule:nonzero;stroke:none"
           d="m 0,0 c 1.396,-2.118 0.56,-5.805 -2.489,-10.956 l -0.939,0.556 c 3.503,5.927 3.303,8.597 2.516,9.795 -1.046,1.594 -3.599,1.293 -3.623,1.289 l -0.14,1.085 C -4.543,1.786 -1.427,2.164 0,0" />
      </g>
      <g
         transform="translate(166.7402,790.8949)"
         id="g4395">
        <path
           id="path4393"
           style="fill:#4ac2b7;fill-opacity:1;fill-rule:nonzero;stroke:none"
           d="m 0,0 c -1.396,-2.118 -0.56,-5.805 2.487,-10.956 l 0.942,0.556 c -3.505,5.927 -3.303,8.597 -2.517,9.795 1.046,1.594 3.598,1.293 3.623,1.289 l 0.14,1.085 C 4.543,1.786 1.428,2.164 0,0" />
      </g>
      <g
         transform="translate(183.0645,780.9384)"
         id="g4399">
        <path
           id="path4397"
           style="fill:#211d1d;fill-opacity:1;fill-rule:nonzero;stroke:none"
           d="m 0,0 c 0.131,-0.042 0.2,-0.18 0.152,-0.309 0,0 -2.911,-6.666 -7.095,-7.114 -2.679,-0.288 -7.223,6.633 -7.223,6.633 -0.081,0.112 -0.048,0.259 0.072,0.328 l 0.99,0.561 c 0.118,0.068 0.281,0.031 0.359,-0.083 0,0 3.685,-6.016 5.626,-5.807 2.587,0.274 5.688,5.979 5.688,5.979 0.058,0.125 0.212,0.193 0.345,0.153 z" />
      </g>
      <g
         transform="translate(183.0645,780.9384)"
         id="g4403">
        <path
           id="path4401"
           style="fill:#2c2a2a;fill-opacity:1;fill-rule:nonzero;stroke:none"
           d="m 0,0 c 0.131,-0.042 0.2,-0.18 0.152,-0.309 0,0 -2.911,-6.666 -7.095,-7.114 -2.679,-0.288 -7.223,6.633 -7.223,6.633 -0.081,0.112 -0.048,0.259 0.072,0.328 l 0.99,0.561 c 0.118,0.068 0.281,0.031 0.359,-0.083 0,0 3.685,-6.016 5.626,-5.807 2.587,0.274 5.688,5.979 5.688,5.979 0.058,0.125 0.212,0.193 0.345,0.153 z" />
      </g>
      <g
         transform="translate(175.2212,765.2533)"
         id="g4407">
        <path
           id="path4405"
           style="fill:#2c2a2a;fill-opacity:1;fill-rule:nonzero;stroke:none"
           d="m 0,0 c -7.678,-7.679 -10.589,3.196 -10.878,3.347 l 0.505,0.97 c 1.796,-0.931 2.357,-9.542 9.71,-3.448 1.171,0.97 1.487,2.903 0.832,5.875 L 1.238,6.979 C 1.991,3.555 1.402,1.402 0,0" />
      </g>
      <g
         transform="translate(165.6343,769.1864)"
         id="g4411">
        <path
           id="path4409"
           style="fill:#2c2a2a;fill-opacity:1;fill-rule:nonzero;stroke:none"
           d="M 0,0 -1.469,-0.941 -2.058,-0.02 -0.59,0.921 Z" />
      </g>
      <g
         transform="translate(162.5757,769.5707)"
         id="g4415">
        <path
           id="path4413"
           style="fill:#2c2a2a;fill-opacity:1;fill-rule:nonzero;stroke:none"
           d="m 0,0 c -1.642,0 -2.976,1.334 -2.976,2.975 0,1.642 1.334,2.977 2.976,2.977 1.64,0 2.977,-1.335 2.977,-2.977 C 2.977,1.334 1.64,0 0,0 m 0,6.788 c -2.102,0 -3.812,-1.711 -3.812,-3.813 0,-2.101 1.71,-3.81 3.812,-3.81 2.102,0 3.811,1.709 3.811,3.81 0,2.102 -1.709,3.813 -3.811,3.813" />
      </g>
      <g
         transform="translate(162.5757,770.4169)"
         id="g4419">
        <path
           id="path4417"
           style="fill:#4ac2b7;fill-opacity:1;fill-rule:nonzero;stroke:none"
           d="m 0,0 c -1.175,0 -2.13,0.955 -2.13,2.129 0,1.174 0.955,2.129 2.13,2.129 1.175,0 2.129,-0.955 2.129,-2.129 C 2.129,0.955 1.175,0 0,0 m 0,5.157 c -1.668,0 -3.028,-1.36 -3.028,-3.028 0,-1.669 1.36,-3.027 3.028,-3.027 1.667,0 3.026,1.358 3.026,3.027 0,1.668 -1.359,3.028 -3.026,3.028" />
      </g>
      <g
         transform="translate(162.5757,770.9076)"
         id="g4423">
        <path
           id="path4421"
           style="fill:#2c2a2a;fill-opacity:1;fill-rule:nonzero;stroke:none"
           d="m 0,0 c -0.903,0 -1.64,0.734 -1.64,1.638 0,0.904 0.737,1.64 1.64,1.64 0.903,0 1.639,-0.736 1.639,-1.64 C 1.639,0.734 0.903,0 0,0 m 0,4.349 c -1.495,0 -2.71,-1.216 -2.71,-2.711 0,-1.493 1.215,-2.709 2.71,-2.709 1.495,0 2.71,1.216 2.71,2.709 0,1.495 -1.215,2.711 -2.71,2.711" />
      </g>
      <g
         transform="translate(160.9312,772.5609)"
         id="g4427">
        <path
           id="path4425"
           style="fill:#ffffff;fill-opacity:1;fill-rule:nonzero;stroke:none"
           d="M 0,0 C 0,-0.908 0.736,-1.646 1.645,-1.646 2.553,-1.646 3.29,-0.908 3.29,0 3.29,0.91 2.553,1.647 1.645,1.647 0.736,1.647 0,0.91 0,0" />
      </g>
      <g
         transform="translate(175.2979,774.0863)"
         id="g4431">
        <path
           id="path4429"
           style="fill:#2c2a2a;fill-opacity:1;fill-rule:nonzero;stroke:none"
           d="m 0,0 c -0.484,0 -0.79,-0.385 -0.673,-0.859 0,0 0.452,-1.841 1.267,-1.841 0.815,0 1.266,1.841 1.266,1.841 C 1.977,-0.385 1.673,0 1.187,0 Z" />
      </g>
      <g
         transform="translate(178.1265,791.5726)"
         id="g4435">
        <path
           id="path4433"
           style="fill:#2c2a2a;fill-opacity:1;fill-rule:nonzero;stroke:none"
           d="m 0,0 c 0,-0.487 0.386,-0.79 0.858,-0.674 0,0 1.842,0.452 1.842,1.267 C 2.7,1.409 0.858,1.86 0.858,1.86 0.386,1.976 0,1.672 0,1.187 Z" />
      </g>
      <g
         transform="translate(173.6523,791.6493)"
         id="g4439">
        <path
           id="path4437"
           style="fill:#2c2a2a;fill-opacity:1;fill-rule:nonzero;stroke:none"
           d="m 0,0 c 0,-0.487 -0.386,-0.79 -0.858,-0.674 0,0 -1.841,0.45 -1.841,1.266 0,0.815 1.841,1.267 1.841,1.267 C -0.386,1.975 0,1.671 0,1.185 Z" />
      </g>
    </g>
  </g>
</svg>
