<?xml version="1.0" encoding="UTF-8" standalone="no"?>
<svg
   xmlns:dc="http://purl.org/dc/elements/1.1/"
   xmlns:cc="http://creativecommons.org/ns#"
   xmlns:rdf="http://www.w3.org/1999/02/22-rdf-syntax-ns#"
   xmlns:svg="http://www.w3.org/2000/svg"
   xmlns="http://www.w3.org/2000/svg"
   id="svg2708"
   version="1.1"
   viewBox="0 0 210 297"
   height="297mm"
   width="210mm">
  <defs
     id="defs2702" />
  <metadata
     id="metadata2705">
    <rdf:RDF>
      <cc:Work
         rdf:about="">
        <dc:format>image/svg+xml</dc:format>
        <dc:type
           rdf:resource="http://purl.org/dc/dcmitype/StillImage" />
        <dc:title></dc:title>
      </cc:Work>
    </rdf:RDF>
  </metadata>
  <g
     id="layer1">
    <path
       id="path986"
       d="m 143.38412,292.68629 c 0.54573,-3.65718 1.07305,-8.92831 1.04838,-10.47936 -0.0944,-5.94339 -0.42793,-9.47121 -1.03334,-10.93353 l -0.70866,-1.7117 3.11643,1.57197 c 1.71406,0.86458 3.66486,1.57199 4.33514,1.57199 0.67029,0 2.20673,0.49299 3.41437,1.09553 l 2.19569,1.09551 -1.95617,0.0306 c -3.13924,0.0481 -4.18046,0.53319 -4.96949,2.31572 -0.40788,0.92146 -0.61437,1.80263 -0.45891,1.95811 0.75363,0.75361 6.66738,1.87618 9.91496,1.88209 4.75113,0.006 6.13252,0.91283 6.13252,4.01404 0,2.58465 0.863,2.5187 -7.82459,0.59788 l -4.75063,-1.05035 4.15374,-0.4241 c 2.93564,-0.29963 3.91905,-0.58121 3.35341,-0.95985 -0.54143,-0.36244 -0.077,-0.42512 1.43526,-0.19361 1.55602,0.23792 1.99382,0.17384 1.44033,-0.21168 -1.55818,-1.08491 -8.08025,-1.36636 -10.28776,-0.44402 -1.12813,0.47139 -2.05113,1.12136 -2.05113,1.44447 0,1.45784 -1.10499,0.38558 -1.43938,-1.39674 -0.26587,-1.41804 -0.6302,-1.93445 -1.27641,-1.81 -1.16863,0.22498 -1.49072,1.91516 -0.53649,2.81519 1.85936,1.75375 2.81,2.11616 7.75918,2.95779 7.44926,1.26677 9.21604,1.95675 10.7181,4.18563 0.70901,1.05212 2.13771,2.48482 3.1749,3.1838 l 1.88577,1.27082 h -13.56982 -13.56983 z m 3.41565,-3.75822 c 0.8653,-1.24859 1.47303,-2.36916 1.35051,-2.49017 -0.12234,-0.12095 -0.91439,-0.0873 -1.75971,0.0754 -1.10063,0.21134 -1.53915,0.6338 -1.5446,1.4876 -0.004,0.65583 -0.16975,1.7976 -0.36752,2.53732 -0.48213,1.80191 0.36311,1.21566 2.32132,-1.61002 z m 16.44207,-4.51979 c -1.0832,-0.66946 -1.34771,-0.14453 -0.46384,0.92038 0.53905,0.64951 0.82377,0.71544 0.98613,0.22837 0.12536,-0.37666 -0.10949,-0.89354 -0.52229,-1.14868 z m -16.71156,-8.34921 c -0.32893,-0.61479 -0.87987,-1.11781 -1.22407,-1.11781 -0.34425,0 -0.17078,0.50302 0.38572,1.11781 0.55639,0.61478 1.1072,1.11776 1.22408,1.11776 0.11693,0 -0.0566,-0.50298 -0.38573,-1.11776 z m -0.15134,-3.69108 c -0.18577,-0.18578 -0.66776,-0.20555 -1.07125,-0.044 -0.4458,0.17827 -0.31324,0.31087 0.33781,0.33779 0.58919,0.0238 0.91928,-0.10772 0.73358,-0.29348 z m 21.38955,17.91001 c 0,-0.47922 0.25156,-0.71589 0.55889,-0.52592 0.30745,0.18986 0.55891,0.5821 0.55891,0.87132 0,0.2894 -0.25156,0.52593 -0.55891,0.52593 -0.30747,0 -0.55889,-0.39211 -0.55889,-0.87133 z m 3.41711,-0.57187 c -1.34455,-1.70927 -1.54934,-4.26257 -0.41724,-5.2021 0.62351,-0.51747 0.88799,-0.006 1.43606,2.78038 0.36947,1.87807 0.55725,3.52923 0.41722,3.66923 -0.14009,0.14009 -0.78621,-0.42136 -1.43604,-1.24751 z m -3.39936,-10.10737 c 0.0101,-0.87099 0.38014,-2.06232 0.823,-2.64745 0.75893,-1.00275 0.82697,-1.00701 1.18492,-0.0743 0.46283,1.20613 -0.36749,3.75471 -1.32707,4.07332 -0.45147,0.14999 -0.69234,-0.32825 -0.68085,-1.35157 z m -6.91737,-0.0907 c -1.35266,-1.49466 -1.13344,-2.33083 0.61199,-2.33475 l 1.53697,-0.004 -1.60084,-0.83492 c -0.8805,-0.45929 -1.99131,-0.83499 -2.4685,-0.83499 -1.20041,0 -0.70262,-0.32927 1.18197,-0.78211 1.01253,-0.24338 1.45784,-0.17657 1.23464,0.18441 -0.1919,0.31052 0.28974,0.7253 1.07097,0.92132 1.21655,0.30542 1.42011,0.6682 1.42011,2.53144 0,1.74149 -0.20553,2.17501 -1.03118,2.17501 -0.56714,0 -1.44738,-0.45993 -1.95613,-1.02209 z m -5.39618,-0.76401 c -1.38327,-0.29382 -3.11058,-0.65303 -3.8385,-0.79844 -2.64374,-0.52811 -0.62925,-0.85745 2.9199,-0.47739 2.30111,0.24645 3.7502,0.67576 3.9387,1.16699 0.16396,0.42741 0.11755,0.74695 -0.10331,0.71003 -0.22089,-0.0372 -1.5334,-0.30746 -2.9167,-0.60119 z m 1.67671,-5.4796 c -0.66141,-0.42745 -0.54348,-0.5368 0.55889,-0.51815 0.76849,0.0136 2.40328,0.23179 3.63285,0.48607 l 2.23561,0.46243 -2.79448,0.0559 c -1.53701,0.0306 -3.17177,-0.18816 -3.63287,-0.48607 z m 9.22184,-0.6653 c 0.61479,-0.34724 1.84764,-1.23578 2.73965,-1.9745 1.26498,-1.04762 1.7243,-1.18169 2.08733,-0.60923 0.69857,1.1016 0.58008,1.57235 -0.39572,1.57235 -0.48303,0 -1.25551,0.37724 -1.7166,0.83833 -0.46109,0.46109 -1.51205,0.83072 -2.33541,0.82134 -1.40157,-0.017 -1.42574,-0.0573 -0.37925,-0.64829 z M 17.020449,268.48552 c -4.953985,-2.2638 -4.524493,-4.39008 2.700889,-13.37179 2.931826,-3.64444 3.679582,-4.25398 5.594437,-4.56017 1.215663,-0.1943 2.522344,-0.79893 2.90374,-1.34346 1.114289,-1.59089 2.093325,-1.47149 6.53093,0.79647 l 4.191738,2.14235 2.04e-4,3.71124 c 2.42e-4,4.92498 0.549477,6.85341 1.821935,6.39698 1.562222,-0.56031 0.637318,0.14828 -2.660466,2.03855 -9.832086,5.63542 -15.468689,6.75557 -21.083407,4.18983 z M 170.15725,267.6188 c 0.17349,-0.73729 0.75358,-2.59808 1.28929,-4.13505 0.5357,-1.537 1.09799,-3.17177 1.24951,-3.63286 0.22293,-0.67887 0.32042,-0.65065 0.51113,0.14829 0.28531,1.1949 -1.93165,8.0741 -2.76879,8.59147 -0.38767,0.23963 -0.48603,-0.10055 -0.28122,-0.97203 z m -28.76392,-1.08753 c -0.57096,-0.33303 -1.08853,-1.59878 -1.30712,-3.19669 -0.57815,-4.22654 -0.76174,-5.28935 -0.93673,-5.42329 -0.0903,-0.0692 -6.20044,-0.5376 -13.57789,-1.04103 -13.58267,-0.92685 -23.35961,-2.49351 -30.73947,-4.92566 -9.302383,-3.06575 -21.536014,-10.63204 -24.686234,-15.26796 -1.43348,-2.10956 -3.531853,-2.70011 -3.546716,-0.99816 -0.0068,0.82483 -0.09067,0.84843 -0.531819,0.15067 -0.343662,-0.54348 -0.419778,0.22394 -0.221564,2.23561 l 0.301667,3.06309 -3.477451,3.35341 c -1.912636,1.84436 -4.386919,4.32188 -5.49845,5.50558 -1.111566,1.18369 -2.775505,2.5415 -3.697686,3.0173 -0.92218,0.47582 -3.458193,2.59015 -5.63558,4.69848 -2.177384,2.10833 -3.958857,3.46524 -3.958857,3.01544 0,-0.44984 0.192249,-0.69912 0.427143,-0.55395 0.234857,0.14521 0.5688,0.0348 0.741961,-0.24542 0.173159,-0.28019 -0.06852,-0.65657 -0.53724,-0.83642 -0.740737,-0.28428 -0.706923,-0.61165 0.258718,-2.50468 1.142345,-2.23919 2.03259,-2.86134 4.138527,-2.89222 1.189454,-0.017 3.886288,-1.62122 2.855575,-1.69823 -0.289395,-0.0204 -0.02386,-0.2553 0.591814,-0.51962 0.953608,-0.40975 0.865289,-0.48607 -0.601186,-0.51961 -1.035928,-0.0238 -2.201896,-0.55331 -2.934248,-1.33282 -1.453792,-1.54751 -1.555954,-2.15554 -0.279851,-1.66583 0.716739,0.27509 0.848894,0.13363 0.565292,-0.60548 -0.239969,-0.62524 -0.154753,-0.8313 0.242357,-0.58595 0.414016,0.256 0.482905,-0.0306 0.212701,-0.88096 -0.399393,-1.25848 -0.39861,-1.25861 1.040393,-0.20963 0.792037,0.57735 1.447966,1.36411 1.457647,1.74837 0.0102,0.42134 0.738453,0.68108 1.833964,0.65449 0.999045,-0.0238 1.500493,-0.17145 1.114326,-0.32723 -0.386167,-0.15578 -0.559941,-0.5131 -0.386201,-0.79422 0.173841,-0.28121 -0.04227,-0.51116 -0.480043,-0.51116 -0.437775,0 -1.466032,-0.52708 -2.284999,-1.17132 -0.818965,-0.6442 -1.828271,-1.04111 -2.242866,-0.88199 -0.414597,0.15918 -1.035962,0.006 -1.380817,-0.3378 -0.372602,-0.37261 -0.62699,-0.40025 -0.62699,-0.0682 0,0.30746 0.272693,0.83157 0.605993,1.16488 0.435388,0.43539 0.243037,0.86021 -0.683268,1.50901 -1.636261,1.1461 -2.120188,1.12221 -3.826668,-0.18884 -1.898116,-1.45836 -1.186216,-1.90404 1.349251,-0.84467 2.083411,0.87051 2.087228,0.86959 1.69305,-0.41182 -0.217133,-0.70638 -0.427481,-1.32707 -0.467124,-1.37929 -0.03954,-0.0522 -1.15898,-0.46941 -2.487367,-0.92708 -1.717221,-0.59165 -2.927127,-0.68533 -4.186253,-0.32417 -0.974057,0.2795 -2.343457,0.50789 -3.043121,0.50789 -1.074816,0 -1.230012,-0.23247 -1.000442,-1.49831 0.541637,-2.98705 1.334904,-3.10195 5.862631,-0.84913 4.105737,2.04284 4.238846,2.068 10.939463,2.068 6.302656,0 6.926339,-0.0982 8.804036,-1.38471 1.111498,-0.76162 1.90991,-1.49572 1.774279,-1.63135 -0.135666,-0.13566 0.08862,-0.64427 0.49821,-1.13031 0.409687,-0.48605 1.186147,-2.07997 1.725501,-3.54205 0.539386,-1.46212 1.192657,-2.52735 1.45175,-2.36721 0.259058,0.1602 0.594982,-0.15271 0.746395,-0.69506 0.151344,-0.54239 0.438014,-1.55207 0.636807,-2.24373 0.472441,-1.64355 -0.305758,-1.59358 -2.176093,0.13977 -0.829226,0.76848 -2.123461,1.39724 -2.876094,1.39724 -1.134984,0 -1.368477,-0.2744 -1.368477,-1.60825 0,-0.88454 -0.362307,-1.90895 -0.805127,-2.27647 -0.442819,-0.36749 -0.682858,-0.98678 -0.533456,-1.37611 0.1493,-0.38941 -0.116923,-1.03055 -0.592119,-1.42482 -0.475066,-0.39429 -0.863789,-0.96166 -0.863789,-1.26081 0,-0.29927 -0.503937,-1.25163 -1.119883,-2.11664 -0.615913,-0.86498 -1.173774,-2.22422 -1.239698,-3.02049 -0.06578,-0.79629 -0.292122,-1.44779 -0.502368,-1.44779 -0.551523,0 -2.754816,-7.42868 -3.574395,-12.05151 -0.638034,-3.5987 -0.707878,-10.15233 -0.14555,-13.65784 0.13396,-0.83474 -0.195317,-1.87422 -0.817773,-2.582 -1.023077,-1.16333 -1.019021,-1.19071 0.22463,-1.51596 1.52623,-0.39912 2.259638,0.51341 1.932646,2.4047 -0.155776,0.90173 0.227357,1.93446 1.104577,2.97711 1.017521,1.20929 1.343287,2.25895 1.343287,4.32849 0,1.50264 0.347582,3.80976 0.772404,5.12694 0.424822,1.31717 1.227801,4.21826 1.784436,6.44688 0.5566,2.22861 1.195078,4.05201 1.418789,4.05201 0.223608,0 0.571837,0.75161 0.773596,1.67028 0.201793,0.91867 0.599005,1.81379 0.882776,1.98912 0.283602,0.17521 0.515902,0.80705 0.515902,1.40366 0,0.74988 0.388281,1.08747 1.257524,1.0934 1.041381,0.006 1.113441,0.11037 0.419164,0.60142 -0.745203,0.52701 -0.745203,0.56659 0,0.35607 0.917817,-0.2594 0.93135,-0.61622 0.333367,-8.79064 -0.272011,-3.71828 -0.215427,-5.05829 0.189522,-4.47122 0.90074,1.30648 0.721376,-2.77454 -0.194635,-4.42795 l -0.750144,-1.35403 -0.91492,1.63347 -0.91492,1.63347 0.122366,-1.96418 c 0.0675,-1.0803 -0.06954,-2.27497 -0.304393,-2.65477 -0.57143,-0.92456 0.04567,-1.83171 0.99775,-1.46644 0.420186,0.16124 0.923169,0.0354 1.117803,-0.27951 0.194635,-0.31496 0.747589,-0.42151 1.228756,-0.2369 0.552237,0.21202 1.386542,-0.26076 2.262501,-1.28194 1.037155,-1.20902 1.297405,-1.33528 1.030303,-0.49984 -0.234856,0.73474 -0.169411,0.92627 0.191226,0.55892 0.301668,-0.30746 0.721819,-1.50207 0.933634,-2.65477 0.35566,-1.93534 0.283942,-2.09756 -0.934554,-2.11778 -1.178682,-0.0204 -1.129973,-0.10432 0.455909,-0.79421 1.36742,-0.59478 1.70757,-1.03258 1.479599,-1.90432 -0.162935,-0.6226 -0.710332,-1.24205 -1.216724,-1.37655 -0.709376,-0.1885 -0.664144,-0.26145 0.197022,-0.31804 0.93452,-0.0614 0.980331,-0.16361 0.27951,-0.62371 -0.745202,-0.48921 -0.745202,-0.61151 0,-1.1007 0.560589,-0.36799 0.606879,-0.55319 0.139756,-0.55887 -0.38426,-0.004 -0.69864,-0.24169 -0.69864,-0.52651 0,-0.28496 0.314278,-0.62345 0.69864,-0.75243 0.522548,-0.17555 0.515526,-0.22088 -0.02726,-0.18066 -0.399597,0.0306 -1.332412,1.79145 -2.072912,3.91519 -0.740532,2.12377 -1.645123,4.13584 -2.010259,4.47121 -0.488223,0.44848 -0.559498,0.42497 -0.269285,-0.089 0.48686,-0.86232 -0.342844,-0.92152 -1.180182,-0.0842 -0.375157,0.37516 -1.126018,0.44088 -1.928213,0.16873 -0.72257,-0.24509 -1.502403,-0.39589 -1.732966,-0.33507 -0.681461,0.17997 -0.477587,-0.89444 0.213382,-1.12479 0.359785,-0.11995 -0.122366,-1.03733 -1.117803,-2.12728 -2.072877,-2.26953 -2.204998,-3.6239 -0.492825,-5.05222 1.681018,-1.40236 2.539558,-1.34902 2.756315,0.17145 0.09851,0.69165 0.343968,1.00535 0.545285,0.69714 0.201451,-0.30815 0.02386,-1.55432 -0.393327,-2.76917 -0.577564,-1.68003 -0.604765,-2.3951 -0.113508,-2.98684 0.502607,-0.60562 0.432184,-0.89754 -0.317688,-1.31718 -0.529877,-0.29655 -0.833316,-0.7497 -0.674268,-1.00705 0.277125,-0.44813 -0.194635,-0.96974 -3.860109,-4.27051 -1.631216,-1.46883 -2.676722,-5.25309 -1.451307,-5.25309 0.315984,0 0.574565,0.25154 0.574565,0.55891 0,0.30746 0.334731,0.55889 0.743907,0.55889 0.409142,0 1.099567,0.66458 1.534308,1.47687 0.964414,1.80206 8.836896,9.1422 9.805195,9.1422 0.382759,0 0.85152,0.49017 1.041654,1.08928 0.219518,0.69124 0.658725,0.96919 1.202339,0.76058 0.621672,-0.23861 0.674098,-0.4415 0.191226,-0.73996 -0.485326,-0.29996 -0.495518,-0.51627 -0.03784,-0.79919 0.345229,-0.21339 0.480452,-0.62617 0.300645,-0.91734 -0.179979,-0.2911 -0.54958,-0.39196 -0.821387,-0.22395 -0.271671,0.16804 -1.050721,-0.14214 -1.730955,-0.6895 -1.892661,-1.52258 -5.507414,-5.40864 -5.515219,-5.92911 -0.0034,-0.25462 -1.012749,-1.42936 -2.242049,-2.61046 -1.395236,-1.34052 -2.11368,-2.46381 -1.911989,-2.98936 0.242356,-0.63173 0.03408,-0.76603 -0.838906,-0.53802 -0.809388,0.21167 -1.161947,0.0398 -1.161947,-0.5667 0,-0.47882 0.25156,-1.026 0.55892,-1.21597 0.930565,-0.57514 0.625592,-1.38777 -0.376487,-1.00323 -0.671473,0.25769 -0.586904,0.0101 0.299962,-0.87627 0.679382,-0.67938 1.085455,-1.47755 0.90241,-1.77373 -0.758735,-1.2276 1.182023,-0.40188 3.478781,1.48014 1.354911,1.11027 2.577701,1.90449 2.717286,1.7649 0.139414,-0.13941 -0.502982,-1.92269 -1.42789,-3.96254 -1.929304,-4.25496 -1.937349,-4.29222 -0.926577,-4.29222 0.415311,0 1.924361,1.26932 3.35341,2.8207 2.86679,3.11215 2.971368,3.05796 1.765995,-0.91546 -0.457749,-1.50895 -0.835021,-2.83577 -0.838361,-2.94846 -0.0033,-0.11277 0.62273,-0.0846 1.391213,0.0624 1.233765,0.23589 1.408903,0.0638 1.496881,-1.47183 0.268603,-4.68885 -0.536422,-10.18545 -2.043801,-13.9533 -0.775097,-1.93738 -1.409245,-3.70173 -1.409245,-3.92085 0,-0.44016 5.995297,6.60606 7.325903,8.61002 l 0.838259,1.2625 0.843201,-1.74098 0.843168,-1.74101 1.72458,1.57515 c 1.275454,1.16495 1.907386,2.43382 2.426629,4.87234 l 0.702082,3.2972 0.504039,-1.87578 c 0.609742,-2.26911 3.019736,-6.02574 4.141972,-6.45635 0.474315,-0.18203 0.221904,0.46293 -0.605379,1.54776 -0.78021,1.02288 -1.41855,2.22932 -1.41855,2.68092 0,1.50997 -5.508607,11.89549 -7.712003,14.53966 -2.908409,3.49021 -5.858439,8.1399 -5.51597,8.69404 0.152026,0.2461 0.345264,1.82691 0.429424,3.51318 0.104651,2.09758 0.449705,3.2803 1.092374,3.74452 0.516619,0.37321 1.092035,1.4421 1.278693,2.37533 0.449979,2.24995 1.354468,2.14585 2.364796,-0.27201 0.594062,-1.42182 0.663803,-2.26575 0.250878,-3.03719 -0.31428,-0.58759 -0.571736,-2.31278 -0.571736,-3.8338 0,-2.46951 0.245765,-3.02672 2.295293,-5.20653 1.262399,-1.34261 2.689676,-2.88124 3.171729,-3.41916 0.541467,-0.60426 1.683471,-0.97809 2.987933,-0.97809 2.357467,0 4.069298,-0.64805 7.722808,-2.92358 1.366602,-0.8512 2.657668,-1.54759 2.869039,-1.54759 0.711798,0 0.975969,2.23418 0.313938,2.65606 -0.360535,0.22975 -1.10843,2.17841 -1.661996,4.33017 -0.553534,2.15175 -1.869927,5.7453 -2.925317,7.98565 -1.055391,2.24031 -1.929475,4.50387 -1.942394,5.0301 -0.01363,0.52619 -1.389747,1.96274 -3.059584,3.19231 -1.669802,1.22961 -3.042505,2.55629 -3.050414,2.94822 -0.0068,0.39193 0.768348,0.86914 1.725024,1.06047 1.480008,0.29588 1.594744,0.42885 0.769198,0.89086 -0.53366,0.2986 -2.072979,0.39182 -3.420765,0.20725 -2.210349,-0.30304 -2.593414,-0.17555 -3.908511,1.30047 -0.801889,0.89995 -1.9894,1.71286 -2.638887,1.80636 -0.928214,0.13361 -1.441729,1.00718 -2.399768,4.08231 -1.469783,4.71767 -4.326755,16.3681 -4.230665,17.25208 0.03784,0.34798 0.16089,1.63871 0.273375,2.86832 0.112488,1.22957 0.353512,2.61284 0.535604,3.07393 0.182023,0.46109 0.470191,1.82888 0.640147,3.03958 0.170092,1.21068 1.053755,3.39922 1.963936,4.86338 0.910183,1.46416 2.21836,4.20751 2.907046,6.09632 0.688687,1.88882 1.564202,3.55395 1.945564,3.70028 0.381396,0.14624 0.840577,0.8524 1.020418,1.56901 0.179978,0.71657 1.648703,2.64755 3.264104,4.29104 3.395167,3.4541 4.403722,4.25428 7.272591,5.76998 1.150526,0.60783 2.091864,1.29949 2.091864,1.53696 0,0.23759 0.440126,0.43979 0.978082,0.44957 0.537921,0.0101 1.466271,0.38706 2.062958,0.83836 0.596686,0.45131 1.438934,0.82057 1.871698,0.82057 0.847633,0 3.668917,1.16222 6.850535,2.8221 1.09039,0.56888 2.72519,1.16618 3.63285,1.32738 0.90766,0.16122 3.03358,0.58489 4.72424,0.94163 5.7331,1.20964 11.39115,1.57041 14.81086,0.94434 2.37928,-0.43556 6.91188,-2.60814 9.30225,-4.45873 1.12011,-0.86721 2.26747,-1.57672 2.54967,-1.57672 1.27584,0 3.51709,-4.35702 4.31248,-8.38351 0.15169,-0.76844 0.65514,-2.78051 1.11851,-4.47117 2.84941,-10.3965 1.91417,-31.35039 -1.95889,-43.88998 -2.80468,-9.08051 -6.77718,-15.37056 -11.09418,-17.56656 -3.64369,-1.85349 -10.76265,-2.93018 -18.11852,-2.74026 -5.96339,0.15408 -6.80223,0.063 -6.95961,-0.75426 -0.0985,-0.5111 1.25064,-3.73573 2.99792,-7.16583 l 3.17691,-6.23654 -0.25872,-4.46739 c -0.17623,-3.04626 -0.0869,-4.1603 0.28156,-3.50199 1.04916,1.87476 2.06194,6.71875 2.06852,9.89335 0.004,1.76752 0.25258,3.21364 0.55311,3.21364 0.30065,0 1.87252,-0.59801 3.49314,-1.32897 3.90463,-1.76105 6.58356,-2.6982 8.10434,-2.83505 2.39294,-0.21543 3.5052,-1.87728 3.5052,-5.23759 0,-3.95381 0.39795,-3.54354 0.87173,0.8987 0.29212,2.73859 0.17657,3.77502 -0.54273,4.87289 -1.14811,1.75226 -0.54824,1.79193 3.5833,0.23691 2.32297,-0.87429 15.52019,-7.1459 22.07652,-10.4913 0.30747,-0.1568 -0.74742,0.90156 -2.344,2.35205 -2.06552,1.87643 -3.23081,3.51355 -4.03954,5.67508 -0.62515,1.67083 -1.44712,3.53504 -1.82657,4.14269 -0.81699,1.30822 -0.24815,2.14538 0.84261,1.24014 1.09843,-0.91164 1.46915,-0.25224 0.92499,1.64505 -0.28803,1.00468 -0.26826,1.51952 0.0512,1.32219 1.07772,-0.66604 0.46934,3.03059 -0.93272,5.66749 -1.25101,2.35276 -1.29682,2.59403 -0.32587,1.71538 0.84262,-0.76259 1.39016,-0.88308 2.15431,-0.47408 0.56353,0.30167 1.27611,0.51024 1.5835,0.46371 0.75362,-0.11415 1.05625,3.45057 0.36377,4.28494 -0.37008,0.44596 -0.30031,1.00643 0.21303,1.70839 0.65117,0.89048 0.63994,1.16862 -0.076,1.88447 -1.14212,1.14214 -0.76975,3.0541 0.74091,3.80418 0.8071,0.40075 1.05092,0.8074 0.69652,1.16181 -0.35441,0.3544 -0.25735,0.926 0.27747,1.63302 0.62842,0.83096 0.82909,0.88984 0.84994,0.24952 0.0362,-1.1114 3.33986,4.4829 3.35212,5.67637 0.008,0.65219 -0.32075,0.83939 -1.10825,0.63344 -0.62499,-0.16328 -1.11781,-0.017 -1.11781,0.33166 0,0.34326 0.37096,0.6241 0.82438,0.6241 0.62089,0 0.74024,0.42076 0.48345,1.7046 -0.25905,1.29601 -0.0634,1.96301 0.81635,2.78273 1.15029,1.07165 1.15833,1.06895 1.33688,-0.44708 l 0.17963,-1.52521 0.72987,1.2865 c 0.61072,1.07653 0.58806,1.66943 -0.13907,3.63282 -0.47792,1.29053 -0.9641,3.22665 -1.08044,4.30252 -0.33302,3.08014 -1.88895,8.48236 -3.64547,12.65726 -2.14459,5.09738 -2.58417,6.58687 -1.80107,6.10287 0.35508,-0.21952 0.61878,0.003 0.61878,0.52191 0,0.49735 0.24099,0.75542 0.53533,0.57346 0.2945,-0.18201 0.17554,0.36287 -0.26451,1.21073 -0.70406,1.35705 -0.6964,1.59938 0.0641,2.02495 1.20968,0.677 3.57737,-0.0238 3.57737,-1.05829 0,-0.47339 0.2202,-0.72468 0.48905,-0.55843 0.26893,0.16633 0.48903,0.95446 0.48903,1.75157 0,0.79715 0.28292,1.73232 0.62876,2.07812 0.46573,0.46577 0.62877,0.38246 0.62877,-0.32144 0,-0.52253 0.23451,-0.95012 0.52121,-0.95012 0.59693,0 0.92075,0.97191 1.44323,4.33149 0.20316,1.3064 0.62571,2.37533 0.93895,2.37533 0.31326,0 0.4494,0.31428 0.30269,0.6986 -0.37856,0.99046 1.44457,4.17859 2.23823,3.914 0.47692,-0.15884 0.56922,0.54969 0.33235,2.55071 -0.61179,5.16543 3.65029,11.45595 7.14302,10.54259 1.58182,-0.41368 1.88769,0.67723 0.54157,1.93134 -1.58015,1.47215 -6.46337,2.20787 -13.88492,2.09204 -5.83168,-0.091 -6.82309,0.10534 -10.16158,2.01265 -1.27169,0.72655 -1.44741,0.66555 -2.60595,-0.90476 -0.68323,-0.92614 -1.61234,-1.97918 -2.06462,-2.34009 -0.81021,-0.64648 -1.28118,-2.11711 -1.91046,-5.96574 -0.26997,-1.65139 -0.38831,-1.78201 -0.75918,-0.83836 -0.64959,1.6527 -0.62001,4.87971 0.0409,4.47119 0.30746,-0.18987 0.55889,-0.006 0.55889,0.40774 0,0.41426 0.47588,1.6866 1.05753,2.82748 0.83543,1.63865 0.89412,2.07435 0.27952,2.07435 -0.42796,0 -0.7781,-0.29349 -0.7781,-0.65208 0,-0.35862 -0.15954,-0.49241 -0.35468,-0.29724 -0.40017,0.40021 0.7523,3.58558 1.75901,4.86175 1.78918,2.26799 1.25865,3.49869 -0.95232,2.20919 z M 39.221663,240.91671 c 0,-0.26962 -0.35488,-0.78495 -0.788598,-1.1449 -0.875854,-0.72689 -1.771651,0.0992 -1.167567,1.0765 0.425636,0.68868 1.956165,0.74223 1.956165,0.0685 z M 155.85449,230.12444 c -0.17827,-0.44586 -0.31087,-0.31326 -0.33779,0.3378 -0.0238,0.58915 0.10772,0.91925 0.29348,0.73354 0.18578,-0.18578 0.20554,-0.66779 0.044,-1.07124 z M 70.795476,180.49359 c 0.195657,-0.317 -0.02727,-0.41054 -0.525923,-0.21952 -0.968231,0.37155 -1.145414,0.77213 -0.34148,0.77213 0.289396,0 0.679585,-0.24848 0.867403,-0.55247 z m 11.461397,-13.43753 c 0,-0.62444 -0.375839,-1.27955 -0.835157,-1.45581 -0.459317,-0.17623 -0.671984,-0.58448 -0.472542,-0.90715 0.211677,-0.34261 0.09408,-0.4208 -0.28258,-0.18781 -0.84044,0.51941 -0.8266,2.16348 0.02386,3.0155 0.989298,0.9893 1.564919,0.81839 1.564919,-0.46463 z m 0.558884,-3.33586 c 0,-0.30746 -0.110774,-0.55888 -0.246445,-0.55888 -0.135666,0 -0.401917,0.25156 -0.591881,0.55888 -0.189863,0.30747 -0.07907,0.55892 0.246447,0.55892 0.325527,0 0.591879,-0.25156 0.591879,-0.55892 z m -40.520198,99.48408 c 0.556362,-0.61479 1.137336,-1.11781 1.291032,-1.11781 0.153731,0 -0.175886,0.50302 -0.732148,1.11781 -0.556358,0.61478 -1.137334,1.1178 -1.291031,1.1178 -0.15373,0 0.175887,-0.50302 0.732147,-1.1178 z m -0.733541,-8.41842 c 0.134642,-0.40349 0.574599,-0.84361 0.978045,-0.97809 0.4192,-0.13975 0.628762,0.0699 0.48904,0.48905 -0.134641,0.40345 -0.574598,0.84357 -0.978047,0.97807 -0.419198,0.13977 -0.62876,-0.0699 -0.489038,-0.48903 z M 169.18087,251.1299 c -0.60548,-0.44272 -1.42199,-0.68177 -1.81444,-0.53118 -1.07307,0.4118 -2.52534,-2.21529 -2.67318,-4.8357 -0.10092,-1.78652 0.16464,-2.6138 1.15667,-3.60589 0.70808,-0.70812 1.10594,-1.39963 0.88414,-1.53673 -0.22191,-0.13702 -0.3724,-0.9593 -0.33439,-1.82712 0.0471,-1.07924 0.40661,-1.64113 1.13802,-1.77816 0.58813,-0.11012 0.88284,-0.006 0.65497,0.22804 -0.22771,0.23555 -0.15646,0.73924 0.15885,1.11917 0.40436,0.48727 0.30882,0.95538 -0.32418,1.5884 -0.49366,0.49368 -0.76005,0.89758 -0.59199,0.89758 0.16804,0 0.0825,0.58689 -0.19022,1.30418 -0.27814,0.73158 -0.28496,1.6453 -0.017,2.08113 0.28565,0.46231 0.24441,0.92272 -0.1023,1.13696 -0.32042,0.19804 0.0804,0.52637 0.8907,0.72976 0.81025,0.2035 1.33882,0.58714 1.1746,0.85289 -0.16431,0.26587 0.0917,1.41728 0.5688,2.55905 1.01544,2.43031 0.91482,2.71085 -0.58023,1.61764 z M 36.427137,249.7668 c -2.231213,-1.19607 -2.614279,-1.54807 -1.39728,-1.28397 3.03862,0.65934 5.522613,1.66752 5.743836,2.33129 0.351436,1.05429 -1.060979,0.71397 -4.346556,-1.04732 z m 9.501275,0.86223 c 0,-0.46109 0.25156,-0.83833 0.558885,-0.83833 0.307462,0 0.558918,0.37724 0.558918,0.83833 0,0.46109 -0.251559,0.83836 -0.558918,0.83836 -0.307462,0 -0.558885,-0.37727 -0.558885,-0.83836 z m -3.57528,-1.49038 c 0.158161,-0.25633 0.524525,-0.46576 0.813754,-0.46576 0.289395,0 0.525919,0.20964 0.525919,0.46576 0,0.25634 -0.366193,0.46573 -0.813751,0.46573 -0.447588,0 -0.684255,-0.20963 -0.525922,-0.46573 z m -11.514675,-2.2505 c -1.7e-4,-0.21305 0.558646,-0.77898 1.241811,-1.25753 0.683202,-0.4785 0.997584,-0.87803 0.69864,-0.88782 -0.29894,-0.0101 -0.08317,-0.36669 0.479666,-0.79322 0.878585,-0.66585 1.155027,-0.65477 1.956135,0.0784 0.513141,0.46968 1.871694,1.39622 3.019052,2.05904 l 2.086067,1.20506 -4.740495,-0.006 c -2.60729,-0.004 -4.740672,-0.1827 -4.740876,-0.39575 z m 8.103696,-2.68647 c -0.983197,-0.4225 -0.92876,-0.48505 0.452155,-0.51958 0.912264,-0.0238 1.425269,0.19498 1.224564,0.51958 -0.189864,0.30746 -0.393463,0.54122 -0.452157,0.51961 -0.05863,-0.0204 -0.609745,-0.2553 -1.224562,-0.51961 z m 130.502987,-2.48206 c 0,-0.44294 0.25156,-0.96079 0.55892,-1.15076 0.30746,-0.18986 0.55888,0.17248 0.55888,0.80536 0,0.63292 -0.25156,1.15077 -0.55888,1.15077 -0.30746,0 -0.55892,-0.36241 -0.55892,-0.80537 z m -4.42707,-1.19735 c 0.0272,-0.65109 0.15918,-0.78352 0.3378,-0.3378 0.16156,0.40344 0.14145,0.8855 -0.044,1.07124 -0.18578,0.18577 -0.31768,-0.14453 -0.29349,-0.73355 z m -2.00028,-0.23281 c 0.18987,-0.30747 0.45636,-0.55889 0.59188,-0.55889 0.13567,0 0.24645,0.25156 0.24645,0.55889 0,0.30745 -0.26622,0.55891 -0.59187,0.55891 -0.32554,0 -0.43645,-0.25156 -0.24646,-0.55891 z m 0.0931,-1.49038 c -0.53413,-0.53414 -0.45945,-1.30412 0.12646,-1.30412 0.2744,0 0.64387,0.37728 0.8208,0.83837 0.3269,0.85192 -0.26825,1.14462 -0.94729,0.46575 z m 7.52013,-2.36797 c -0.42364,-0.26825 -0.59624,-0.76943 -0.38354,-1.11354 0.27338,-0.44224 0.62202,-0.39032 1.18939,0.17691 1.34269,1.34267 0.81098,1.96056 -0.80585,0.93651 z M 38.546884,234.39849 c -0.485501,-0.48549 0.652997,-6.59985 1.860036,-9.98943 1.067188,-2.99682 1.116443,-3.67475 0.528003,-7.26571 -0.811498,-4.95211 -0.542588,-20.28704 0.383065,-21.84524 0.610186,-1.02717 0.665409,-0.97584 0.681017,0.63343 0.01363,1.30889 0.317688,1.82988 1.207384,2.06255 0.795176,0.20793 1.079353,0.60071 0.855882,1.18298 -0.216451,0.56375 -0.02045,0.87169 0.551525,0.87169 0.611037,0 0.795207,0.34714 0.593479,1.11856 -0.161911,0.61891 -0.05931,0.97437 0.229745,0.79572 0.722739,-0.44668 2.766539,2.08379 2.529876,3.13233 -0.106012,0.47014 0.151686,1.17686 0.573133,1.57047 0.421345,0.39359 0.619968,0.95204 0.441388,1.24102 -0.178614,0.28906 -0.04363,0.52539 0.300303,0.52539 0.343662,0 0.457716,0.27029 0.253605,0.60094 -0.239629,0.38766 -0.811432,0.18748 -1.611412,-0.56403 -1.289495,-1.21141 -2.137503,-1.05741 -1.618945,0.29382 0.164638,0.42929 0.541465,0.63098 0.837239,0.44818 0.295872,-0.18271 0.478849,0.006 0.406926,0.42239 -0.217472,1.25573 0.70467,4.94645 1.236014,4.94645 0.273374,0 0.496709,0.46437 0.496709,1.03195 0,1.17452 1.546239,4.48979 2.581588,5.53512 0.380576,0.38423 1.154071,0.69864 1.718922,0.69864 1.000408,0 4.641851,4.82244 4.641851,6.14729 0,0.344 0.220199,0.48945 0.48904,0.32314 0.268945,-0.16634 0.489042,0.34582 0.489042,1.13782 0,1.29964 -0.170433,1.41289 -1.746566,1.16157 -7.275352,-1.16001 -14.024031,-4.04643 -15.277838,-6.53427 l -0.704161,-1.39726 -0.0068,1.5549 c -0.0034,0.8552 -0.385486,2.45785 -0.846575,3.56138 -0.461092,1.10355 -0.838362,2.96693 -0.838362,4.14081 0,1.96577 -0.576508,3.11422 -1.233528,2.4572 z m 7.910826,-30.21311 c -0.395062,-0.73818 -0.958108,-1.34212 -1.251181,-1.34212 -0.293146,0 -0.237243,0.35624 0.124079,0.79166 0.521491,0.62835 0.44916,0.84668 -0.350752,1.05852 -0.878208,0.23248 -0.846132,0.31872 0.249856,0.6708 0.691651,0.22224 1.277396,0.68892 1.301667,1.03732 0.02386,0.35379 0.176569,0.30064 0.344377,-0.12032 0.16532,-0.41456 -0.02386,-1.35771 -0.418005,-2.0959 z m 124.68264,29.08993 c -0.0101,-0.63016 -0.29622,-1.4233 -0.63542,-1.76255 -0.44206,-0.44208 -0.44688,-0.9092 -0.017,-1.64874 0.32996,-0.56758 0.60746,-0.7345 0.6168,-0.371 0.0101,0.36353 0.52003,0.82064 1.1348,1.01575 1.39978,0.44425 1.40326,0.93076 0.0204,2.59283 -1.0536,1.26475 -1.09997,1.27194 -1.11779,0.17384 z m -11.17846,-1.33538 c -0.38572,-0.72076 -0.39234,-1.19988 -0.0204,-1.43024 0.83633,-0.51685 1.67822,0.20008 1.67822,1.42932 0,1.39523 -0.91205,1.39575 -1.65854,8.8e-4 z m 8.36535,-1.7106 c 0,-0.92218 0.25156,-1.67673 0.55892,-1.67673 0.30746,0 0.55888,0.75455 0.55888,1.67673 0,0.92218 -0.25156,1.67668 -0.55888,1.67668 -0.30746,0 -0.55892,-0.7545 -0.55892,-1.67668 z m 0.44654,-5.74081 c -0.17521,-0.91592 0.0101,-1.76798 0.47001,-2.14869 0.59358,-0.49265 0.77265,-0.40158 0.81724,0.41565 0.0341,0.62488 0.29177,0.31462 0.63972,-0.7699 0.57236,-1.78421 1.54236,-2.49051 1.53509,-1.11782 -0.004,0.8682 -2.2083,4.26308 -2.26751,3.4931 -0.0238,-0.30746 -0.23689,-0.063 -0.4737,0.54328 -0.38694,0.99018 -0.4602,0.94795 -0.72085,-0.41562 z m 4.14703,-1.84979 c 0.32997,-0.7242 0.81471,-1.18406 1.07716,-1.02184 0.86057,0.53185 0.49963,1.76941 -0.59998,2.05693 -0.95036,0.24848 -1.0065,0.1268 -0.47718,-1.03509 z m -3.47577,-1.63124 c -0.56982,-0.68664 -0.53165,-0.83837 0.211,-0.83837 0.49871,0 0.90677,0.37728 0.90677,0.83837 0,0.46109 -0.0951,0.83832 -0.211,0.83832 -0.11629,0 -0.52408,-0.37723 -0.90677,-0.83832 z M 53.193982,220.76105 c 0,-0.2894 0.248492,-0.67959 0.55251,-0.86741 0.317005,-0.19566 0.410506,0.0272 0.219518,0.52592 -0.371544,0.96827 -0.772165,1.14542 -0.772165,0.34149 z m -0.233153,-3.31139 c -0.240652,-0.38954 -0.286669,-0.85922 -0.102257,-1.04371 0.500221,-0.50018 1.045574,0.23555 0.775436,1.04596 -0.189181,0.56795 -0.321096,0.56751 -0.673108,-0.001 z m 122.911481,-6.22289 c -0.18986,-0.30747 -0.0791,-0.55889 0.24645,-0.55889 0.32553,0 0.59188,0.25156 0.59188,0.55889 0,0.30746 -0.11074,0.55891 -0.24644,0.55891 -0.13567,0 -0.40189,-0.25156 -0.59189,-0.55891 z M 50.443563,209.78296 c 0.02727,-0.65109 0.159186,-0.78351 0.3378,-0.33781 0.16157,0.40346 0.141459,0.88551 -0.04397,1.07125 -0.185772,0.18578 -0.317687,-0.14453 -0.293486,-0.73358 z M 179.01109,191.80505 c -0.0358,-0.38426 -0.58878,-1.22263 -1.22921,-1.86301 -1.51296,-1.51297 -1.16699,-1.83812 0.50956,-0.47889 0.77724,0.63014 1.19726,1.45482 1.04293,2.04776 -0.14215,0.546 -0.2877,0.67836 -0.32315,0.29416 z m -91.934568,-8.78141 c 0.363909,-0.94839 2.353989,-1.71067 2.907147,-1.11358 0.207247,0.22396 0.06102,0.51979 -0.325186,0.65767 -0.386169,0.13771 -0.559942,0.48069 -0.386203,0.7618 0.173843,0.28122 -0.319732,0.5112 -1.096772,0.5112 -1.009748,0 -1.323243,-0.23316 -1.099124,-0.81709 z M 57.806076,181.9115 c 0.231107,-0.27235 0.07805,-0.8928 -0.340184,-1.37884 -0.418415,-0.48601 -0.893446,-1.38668 -1.05563,-2.00147 -0.162253,-0.61482 -0.491768,-1.62082 -0.732489,-2.2356 -0.431706,-1.10268 -0.421208,-1.10339 0.774961,-0.0532 0.666906,0.58557 1.212564,1.44607 1.212564,1.91213 0,0.46609 0.383577,1.27133 0.852438,1.78938 0.766951,0.84749 0.752941,1.01824 -0.139754,1.70229 -0.545693,0.41817 -0.802979,0.53754 -0.57177,0.26519 z m 136.509894,-4.77759 c -0.18986,-0.30745 -1.06578,-0.55888 -1.94623,-0.55888 -0.90483,0 -2.3449,-0.6261 -3.31224,-1.44003 -0.94124,-0.79204 -2.54614,-1.67055 -3.56642,-1.95225 -2.03244,-0.56119 -3.3485,-2.81296 -4.06034,-6.94737 -0.21167,-1.22956 -0.85731,-3.0198 -1.43468,-3.97825 -0.5774,-0.95848 -1.0498,-2.43995 -1.0498,-3.29219 0,-0.85223 -0.55575,-2.6623 -1.235,-4.02239 -2.66466,-5.33544 -7.16533,-9.0288 -11.17825,-9.17309 l -1.83866,-0.0661 1.67668,-0.42665 c 3.30906,-0.84201 3.67287,-0.64224 11.30283,6.20731 1.90896,1.71374 2.71478,2.07314 2.05979,0.91867 -0.21815,-0.38426 0.53825,0.18168 1.6806,1.25752 2.61328,2.4613 4.44087,5.36879 3.91226,6.22405 -0.23997,0.38818 -0.1643,0.50654 0.18577,0.29042 0.65527,-0.40499 1.81749,2.41975 1.81749,4.41739 0,1.32294 2.43845,6.86267 3.99997,9.08723 0.50029,0.71272 1.25111,1.22115 1.66851,1.12984 0.78816,-0.17248 3.27393,1.68712 3.27393,2.44916 0,0.63173 -1.54978,0.53331 -1.95614,-0.1241 z M 182.8647,155.90352 c -1.79565,-2.26721 -3.41206,-3.68848 -2.49067,-2.19 0.63366,1.03061 3.71476,4.41784 4.01854,4.41784 0.13021,0 -0.55742,-1.00253 -1.52787,-2.22784 z m -1.68286,16.79688 c 0,-0.28667 -0.50301,-0.68088 -1.11779,-0.87603 -1.2581,-0.39929 -1.51955,-1.39724 -0.36605,-1.39724 0.75474,0 2.60165,1.71749 2.60165,2.41933 0,0.20623 -0.25156,0.37515 -0.55888,0.37515 -0.30747,0 -0.55893,-0.23451 -0.55893,-0.52121 z M 85.051194,153.99194 c 0,-0.51089 0.391282,-0.6837 1.117805,-0.49372 0.614785,0.1609 1.117769,0.51448 1.117769,0.78601 0,0.27168 -0.502984,0.49372 -1.117769,0.49372 -0.614821,0 -1.117805,-0.35369 -1.117805,-0.78601 z m 71.719776,-7.82718 c 0.66794,-1.41865 1.16751,-1.4678 4.56997,-0.4497 0.88502,0.26485 0.71043,0.40838 -0.83836,0.68953 -1.07588,0.19531 -2.5036,0.5355 -3.17272,0.75604 -1.1312,0.37284 -1.17044,0.30303 -0.55889,-0.99587 z m -57.747317,-0.71582 c -1.39462,-0.5654 -1.660838,-1.44051 -1.327572,-4.36401 0.224972,-1.97294 -0.0011,-3.78038 -0.769438,-6.14791 -3.120462,-9.61803 -3.169241,-9.83309 -2.480349,-10.93622 0.876197,-1.40301 0.838906,-2.97233 -0.161912,-6.81491 -1.264138,-4.85341 0.09272,-6.63771 2.008896,-2.64192 1.021203,2.12937 2.516106,2.90446 4.055632,2.10274 0.57518,-0.29953 1.90197,-0.54457 2.94843,-0.54457 1.49742,0 2.20359,-0.39459 3.31584,-1.85282 1.19231,-1.56323 1.41906,-2.47176 1.4505,-5.81256 0.0204,-2.17785 0.12612,-3.95973 0.23485,-3.95973 0.10874,0 0.58139,0.74202 1.05039,1.64894 1.12492,2.17541 1.07553,4.19372 -0.20792,8.49209 -1.78895,5.99158 -1.77694,6.29543 0.30473,7.7218 1.01789,0.69746 2.20247,1.13314 2.6324,0.96816 0.42995,-0.16498 1.11461,-0.005 1.5215,0.35498 0.48781,0.43187 0.46341,0.27422 -0.0716,-0.46286 -0.44627,-0.61481 -1.18867,-1.4134 -1.64976,-1.77469 -0.71163,-0.55758 -0.59226,-0.75081 0.78965,-1.2783 1.2217,-0.46634 1.77963,-0.45628 2.23561,0.0402 0.44524,0.48486 0.42265,0.55732 -0.0845,0.27119 -0.46451,-0.262 -0.58275,-0.10508 -0.35938,0.4769 0.18339,0.47829 0.0406,0.86737 -0.3187,0.86737 -0.35843,0 -0.47408,0.28742 -0.25702,0.63871 0.2502,0.40503 0.69574,0.0641 1.21761,-0.93188 1.70345,-3.25112 5.1809,-13.86963 5.81325,-17.75081 0.36135,-2.21789 0.96079,-4.766074 1.3321,-5.662627 0.64257,-1.55151 0.69362,-1.57172 1.05945,-0.419159 0.21133,0.665995 0.63586,1.210909 0.94325,1.210909 0.30745,0 0.39922,-0.503008 0.20417,-1.117799 -0.21134,-0.666209 -0.10054,-1.117799 0.27474,-1.117799 0.34625,0 0.47227,0.254459 0.28019,0.565464 -0.19259,0.311648 0.37517,0.710395 1.26499,0.888363 l 1.61445,0.322899 0.61847,6.517059 c 0.34018,3.58439 0.89123,7.14583 1.2246,7.91432 0.48668,1.12194 0.54017,0.73651 0.27167,-1.95616 -0.25224,-2.52955 -0.17589,-3.19964 0.31087,-2.72757 0.35505,0.34419 0.76176,2.12474 0.90387,3.95676 0.32417,4.18141 2.05427,8.88779 3.19075,8.68044 0.49904,-0.0911 1.55576,1.12394 2.67343,3.07394 1.8165,3.16917 1.85348,3.19664 2.15537,1.60022 l 0.30711,-1.6243 0.79307,1.48457 c 0.43617,0.81651 0.96308,1.48457 1.17088,1.48457 0.92347,0 2.30404,-2.23267 1.99082,-3.21957 -0.21849,-0.68879 0.0777,-1.4399 0.83973,-2.12967 1.4297,-1.29385 2.23401,-2.73718 2.77363,-4.97724 0.22396,-0.92942 0.60456,-2.17124 0.84593,-2.75961 0.25564,-0.62318 0.22428,-0.9371 -0.0754,-0.752 -0.28291,0.17476 -0.51416,-0.41272 -0.51416,-1.30555 0,-0.89284 0.21544,-1.62333 0.47896,-1.62333 0.26349,0 0.34128,-0.35887 0.17281,-0.79748 -0.16839,-0.43863 0.0238,-1.07163 0.428,-1.40667 0.4037,-0.33503 0.90636,-2.13264 1.11701,-3.99466 0.3415,-3.0182 0.47995,-3.30519 1.27614,-2.64536 0.81056,0.67172 0.84954,0.37853 0.42203,-3.172167 -0.93629,-7.77557 -0.42625,-17.559191 0.87347,-16.755925 0.34882,0.215602 0.33439,0.728085 -0.0406,1.42825 -0.40037,0.748118 -0.4061,1.737831 -0.017,3.142634 0.39704,1.438027 0.38378,2.27041 -0.0442,2.786358 -0.46375,0.558774 -0.3846,0.735746 0.32927,0.735746 0.51686,0 0.79836,0.228819 0.62553,0.508464 -0.38736,0.626747 0.20383,2.286021 0.81444,2.286021 0.24543,0 0.84433,-1.167328 1.33047,-2.594066 0.98571,-2.893 4.08832,-7.158661 7.66619,-10.540055 2.34066,-2.212138 2.34945,-2.215074 0.83675,-0.279443 -5.59603,7.160577 -8.11333,11.23804 -8.15172,13.203997 -0.0238,1.213958 3.21481,1.32981 5.69585,0.203771 6.0349,-2.739022 2.68575,-0.07345 -4.03139,3.208642 -2.58599,1.263525 -2.58715,1.264609 -1.81021,1.744774 0.49852,0.308107 0.36156,0.987004 -0.52943,2.624377 -0.66108,1.214832 -1.15544,2.902872 -1.09859,3.751222 0.057,0.84834 -0.30779,2.17 -0.81037,2.93702 -0.73112,1.11588 -0.77671,1.55969 -0.22804,2.22086 0.56651,0.68257 0.44051,0.91953 -0.7244,1.36243 -1.68,0.63874 -2.53742,2.73641 -1.42588,3.48851 0.41711,0.28224 1.82731,0.3814 3.13376,0.22036 1.3064,-0.16105 2.37529,-0.10772 2.37529,0.11857 0,0.22623 -1.4704,0.98149 -3.26755,1.67834 -1.79718,0.69688 -3.82759,1.86313 -4.51202,2.59166 l -1.24439,1.32462 1.28295,0.89863 c 0.74401,0.52113 2.40461,0.89862 3.95309,0.89862 1.46856,0 2.66779,0.18863 2.6649,0.41918 -0.003,0.23055 -1.8704,0.98545 -4.15008,1.67756 -2.38764,0.7249 -5.23081,2.08734 -6.70638,3.21367 -1.40887,1.0754 -3.19355,1.95528 -3.96595,1.95528 -0.77245,0 -2.34218,0.60031 -3.48829,1.33403 -1.14613,0.73371 -3.33306,1.49088 -4.85984,1.68262 -1.52677,0.19157 -3.72203,0.97468 -4.87838,1.73992 -1.15635,0.7652 -2.42224,1.39271 -2.81308,1.39445 -2.31624,0.0101 -5.27974,1.4601 -7.36093,3.60146 -2.30944,2.37627 -5.65928,3.66111 -9.54529,3.66111 -1.3064,0 -2.62481,0.95115 -3.50943,2.53188 -0.50421,0.90099 -3.33159,1.51083 -4.607045,0.99377 z m 5.782047,-10.09272 c 0.14249,-0.23042 -0.63759,-0.46967 -1.73344,-0.53141 -1.09588,-0.0617 -2.19978,-0.439 -2.45308,-0.83835 -0.37117,-0.58514 -0.46225,-0.57782 -0.46917,0.0378 -0.007,0.50459 -0.415206,0.65747 -1.20687,0.45046 -0.675325,-0.17657 -0.980229,-0.10357 -0.698605,0.16702 0.919384,0.8837 6.107505,1.44882 6.561165,0.71466 z m 6.51376,-9.32063 c 0,-0.1312 -0.79378,-0.63451 -1.76395,-1.11849 -1.75056,-0.87328 -1.75624,-0.87147 -0.75171,0.2385 0.88608,0.97913 2.51566,1.54915 2.51566,0.87998 z m 40.24075,-21.59155 c 0,-0.94032 -0.2178,-1.57508 -0.48395,-1.41058 -0.45022,0.27824 -0.20453,3.12027 0.26961,3.12027 0.11793,0 0.21441,-0.76937 0.21441,-1.70969 z m -46.49344,39.8919 c 0.40345,-0.16157 0.88551,-0.14146 1.07121,0.044 0.18577,0.18576 -0.14453,0.31768 -0.73355,0.29347 -0.65108,-0.0272 -0.78351,-0.15918 -0.3378,-0.33779 z m -10.787433,-2.20207 c -0.528343,-0.80631 -0.684357,-1.29532 -0.34673,-1.08668 0.645192,0.39878 1.946451,2.55276 1.542149,2.55276 -0.129188,0 -0.66711,-0.65975 -1.195419,-1.46608 z m 86.343633,-0.76953 c -0.67794,-0.43809 -0.59771,-0.54342 0.41916,-0.55034 0.69164,-0.004 1.25752,0.24305 1.25752,0.55034 0,0.70027 -0.59314,0.70027 -1.67668,0 z m -4.03658,-1.71283 c -0.88961,-0.51845 -0.84875,-0.7932 0.53888,-3.62252 0.82583,-1.68382 1.75827,-2.9759 2.07207,-2.87129 0.31393,0.1047 0.7756,1.05072 1.02622,2.10254 0.25054,1.05181 0.67268,2.60401 0.93791,3.44933 0.4663,1.48638 0.41476,1.53641 -1.56512,1.51998 -1.12605,-0.0101 -2.48052,-0.26927 -3.00996,-0.57804 z m -5.37502,-1.38742 c -0.35672,-0.78293 -0.6486,-1.89985 -0.6486,-2.48206 0,-0.58216 -0.25156,-1.21396 -0.55888,-1.40392 -0.30747,-0.18986 -0.55893,-0.89076 -0.55893,-1.55726 0,-1.19555 0.0204,-1.19317 1.38948,0.17759 0.90883,0.90887 1.51509,2.30607 1.75268,4.03932 0.39949,2.9147 -0.31598,3.5524 -1.37575,1.22629 z m 10.98349,-2.87054 c 0.40345,-0.16158 0.88551,-0.14147 1.07121,0.044 0.18578,0.18577 -0.14453,0.31769 -0.73354,0.29348 -0.65109,-0.0272 -0.78352,-0.15918 -0.33779,-0.33779 z m -11.91153,-4.47394 c -2.16607,-1.99649 -2.41746,-2.37979 -1.1178,-1.70441 1.79582,0.93327 5.30769,4.33931 4.43603,4.30235 -0.28803,-0.0136 -1.78126,-1.18127 -3.31823,-2.59794 z m -7.54515,-6.32225 c -2.53267,-1.38657 -0.9613,-1.41114 1.95617,-0.0306 1.49412,0.70706 1.86484,1.06514 1.11777,1.07973 -0.61479,0.0113 -1.99806,-0.46011 -3.07394,-1.04913 z m -69.974575,-4.3373 c -0.78539,-0.84211 -1.740975,-2.1599 -2.123564,-2.92839 -0.382553,-0.76848 -0.475474,-1.14574 -0.206564,-0.83835 0.268943,0.30739 1.351536,1.49828 2.405529,2.64641 1.054027,1.14812 1.789515,2.2144 1.634421,2.36949 -0.155095,0.15509 -0.924566,-0.40703 -1.709924,-1.24916 z m 75.004685,-1.04746 c -3.49252,-0.95438 -12.87286,-1.27213 -17.04643,-0.57742 -3.36964,0.56089 -2.80721,-0.13117 1.23345,-1.51767 2.75682,-0.94599 3.24049,-0.95015 9.18094,-0.079 5.76429,0.84534 9.98541,2.02039 9.98541,2.77967 0,0.16938 -0.063,0.2914 -0.13976,0.27119 -0.0766,-0.0202 -1.52299,-0.4148 -3.21365,-0.87679 z m -52.90914,-3.30276 c 0,-0.44757 0.20963,-0.81376 0.46576,-0.81376 0.256,0 0.46573,0.23666 0.46573,0.52591 0,0.28926 -0.20963,0.65545 -0.46573,0.81377 -0.25633,0.15833 -0.46576,-0.0784 -0.46576,-0.52592 z M 86.270201,114.7567 c -1.327606,-0.79563 -2.295122,-1.56532 -2.150049,-1.7104 0.339503,-0.33947 4.656544,1.85429 5.117838,2.60069 0.579199,0.93716 -0.417256,0.63824 -2.967789,-0.89029 z m 6.573985,-3.73041 c -0.990796,-0.77546 -0.635818,-3.67443 0.637831,-5.20908 0.630977,-0.76029 0.61315,-1.00271 -0.113169,-1.54041 -0.536796,-0.39737 -1.206463,-2.70214 -1.774823,-6.108276 -0.502028,-3.008575 -1.236358,-6.128064 -1.631899,-6.932199 -0.395507,-0.804136 -2.391621,-2.492401 -4.435798,-3.751704 -2.044176,-1.259304 -4.3077,-2.731665 -5.030099,-3.271879 -1.27075,-0.95034 -1.241027,-0.953994 0.91533,-0.112766 1.225789,0.478226 3.385621,1.611862 4.79957,2.5192 2.786482,1.788091 3.658213,2.006263 3.993796,0.999553 0.119305,-0.357585 0.803117,2.220341 1.519788,5.728724 0.716706,3.508371 1.608889,7.133377 1.982616,8.055567 l 0.679483,1.67669 0.598767,-3.07394 c 1.019224,-5.232789 1.190441,-7.232613 0.647986,-7.567885 -0.733408,-0.453278 -0.653031,-0.994841 0.333368,-2.245753 0.839793,-1.06502 0.852575,-1.06342 0.69864,0.08681 -0.08624,0.644412 0.184068,1.582215 0.600368,2.084002 0.595971,0.718118 0.631831,1.480033 0.168388,3.578978 -0.323823,1.466653 -1.138665,5.621818 -1.810785,9.233708 -0.67212,3.61187 -1.376692,6.55907 -1.565702,6.54929 -0.189181,-0.0101 -0.735147,-0.32416 -1.213622,-0.69863 z m -26.065788,-2.37521 c 1.822886,-1.60371 5.26257,-1.81157 12.40345,-0.74948 6.284215,0.93465 4.718922,1.17583 -2.64768,0.40794 -6.223268,-0.64868 -6.503393,-0.63078 -8.492519,0.54281 -2.700958,1.59361 -3.211064,1.51234 -1.263251,-0.20129 z m 12.404337,-3.31555 c -0.922181,-0.42226 -1.299418,-0.77927 -0.838328,-0.79334 0.46109,-0.014 1.46709,0.33384 2.235573,0.77315 1.779153,1.01706 0.81041,1.03106 -1.397245,0.0202 z m 50.065625,-2.30236 c 0.0272,-0.65109 0.15918,-0.78351 0.3378,-0.33767 0.16156,0.40346 0.14145,0.88552 -0.044,1.07123 -0.18577,0.18571 -0.31769,-0.14439 -0.29348,-0.73355 z m 1.07366,-1.00525 c 0,-0.4611 0.25156,-0.9938 0.55891,-1.18377 0.30747,-0.18996 0.5589,0.0318 0.5589,0.49293 0,0.4611 -0.25156,0.99379 -0.5589,1.18377 -0.30745,0.18996 -0.55891,-0.0318 -0.55891,-0.49293 z m 7.26571,-2.241772 c 0,-0.120833 0.39031,-0.369446 0.86737,-0.552503 0.49739,-0.190857 0.72171,-0.09714 0.52591,0.219646 -0.32825,0.531077 -1.39328,0.785519 -1.39328,0.332867 z m -10.22597,-2.596212 c -0.23213,-0.472858 -0.37556,-1.353132 -0.31905,-1.956155 0.0566,-0.603035 0.0453,-1.725181 -0.0238,-2.493673 -0.11692,-1.279349 -0.16463,-1.302923 -0.56401,-0.279443 -0.23997,0.614791 -0.72526,1.149235 -1.07854,1.187663 -0.35325,0.03843 -0.89378,0.1013 -1.20119,0.139728 -0.30746,0.03843 -0.59202,0.509989 -0.63248,1.047935 -0.0406,0.537934 -0.25871,0.09777 -0.48532,-0.978083 -0.2836,-1.346744 -0.43468,-1.557344 -0.48533,-0.675999 l -0.0736,1.280143 -1.31175,-1.280143 c -0.72147,-0.704071 -1.76779,-2.78011 -2.32522,-4.613382 -0.55743,-1.833285 -1.44575,-3.797239 -1.97406,-4.364328 -0.64223,-0.689354 -1.1794,-2.826223 -1.62078,-6.447485 -1.08464,-8.898572 -1.38359,-9.446107 -2.77565,-5.08377 -0.37178,1.165035 -1.24832,2.334265 -2.08611,2.782642 -0.79469,0.425295 -1.67535,1.379389 -1.95697,2.120174 -0.28156,0.740798 -0.64008,1.218923 -0.79651,1.062488 -0.15645,-0.156422 0.45336,-2.305941 1.35504,-4.776708 1.60385,-4.394592 2.6981,-9.066385 2.12364,-9.066385 -0.15884,0 -0.69588,0.407202 -1.19354,0.904881 -1.38921,1.389192 -1.61271,0.555334 -0.64482,-2.405641 0.4838,-1.480046 0.97349,-3.59508 1.08815,-4.700078 0.11453,-1.105011 0.37178,-2.273308 0.57133,-2.59622 0.19941,-0.322899 -0.0689,-0.75273 -0.59635,-0.955178 -0.80887,-0.310388 -0.8328,-0.446185 -0.1527,-0.866528 0.44356,-0.274152 0.64579,-0.659128 0.44942,-0.855516 -0.19634,-0.196401 0.0498,-0.832283 0.54713,-1.413105 0.84647,-0.988605 0.96997,-0.996517 1.93427,-0.123853 0.77804,0.704108 0.95645,0.734738 0.72906,0.125238 -1.08502,-2.908422 -0.45493,-8.296692 0.87411,-7.475299 1.17702,0.727413 3.95239,0.851764 4.72369,0.211644 0.44166,-0.366554 0.80301,-1.237942 0.80301,-1.936416 0,-1.158713 0.16839,-1.231952 1.92355,-0.836128 1.05795,0.238607 2.54304,0.921103 3.30013,1.516662 1.32458,1.041906 1.33637,1.107949 0.3119,1.747644 -2.104,1.313968 -0.98296,2.890939 2.05511,2.890939 2.07373,0 1.6046,0.946918 -0.74431,1.502428 -2.68603,0.635214 -2.79251,2.028589 -0.18407,2.409861 2.51587,0.367766 2.72417,1.284314 0.63072,2.775007 -1.7504,1.246376 -2.32479,3.372889 -0.91105,3.372889 0.43617,0 1.53643,0.42663 2.44497,0.948059 1.55637,0.893251 1.85789,0.891298 5.21509,-0.03377 1.95977,-0.53995 5.00937,-1.689071 6.7769,-2.553608 1.7675,-0.86455 3.21366,-1.410977 3.21366,-1.214274 0,0.196716 -1.0922,1.610829 -2.42714,3.142533 -3.02563,3.471543 -3.72072,4.769615 -3.72072,6.948112 0,1.342599 -0.39994,1.965491 -1.81645,2.829147 -0.99901,0.609121 -2.68413,1.108438 -3.74463,1.109584 -1.36925,0.0013 -1.75489,0.17541 -1.3303,0.599974 1.66831,1.66832 7.14273,-1.294267 7.55715,-4.08971 0.14623,-0.987319 0.27371,-1.040892 0.84007,-0.353201 0.53522,0.649981 0.28394,1.471252 -1.26748,4.144253 -1.06425,1.833487 -2.35856,3.96238 -2.8763,4.730872 -0.51771,0.768479 0.17827,0.165796 1.54695,-1.339323 2.82493,-3.106889 3.83711,-4.680512 3.86567,-6.009931 0.0101,-0.507053 0.93367,-2.267589 2.05059,-3.912297 2.80305,-4.127521 4.09035,-7.101171 4.10481,-9.482079 0.008,-1.192967 0.4946,-2.633678 1.18993,-3.517619 0.75417,-0.958781 1.09677,-2.048166 0.95273,-3.029556 -0.17657,-1.203616 -9.1e-4,-1.532436 0.81824,-1.532436 0.8977,0 0.98686,0.275523 0.63936,1.976113 -0.2219,1.086858 -0.43866,2.911777 -0.48126,4.05538 -0.0433,1.164165 -0.62107,2.814556 -1.31265,3.74994 -0.67935,0.918866 -1.23516,1.8732 -1.23516,2.120742 0,0.247541 -0.54852,1.452378 -1.21891,2.677411 -0.67038,1.22502 -1.52503,3.359092 -1.89921,4.742362 -0.37416,1.38327 -0.96444,2.44984 -1.31168,2.370135 -0.34728,-0.07975 -0.78736,0.297537 -0.97794,0.838343 -0.19054,0.540807 -0.96163,1.814663 -1.71334,2.830823 -1.23141,1.66454 -4.52653,9.060765 -6.64682,14.919414 -0.44501,1.229581 -1.26598,2.624128 -1.82439,3.099002 -1.28821,1.095498 -2.13908,8.109178 -1.03531,8.534233 0.38442,0.148044 0.13294,0.241305 -0.55855,0.207211 -0.97025,-0.04788 -1.27351,-0.417874 -1.3274,-1.619737 -0.0386,-0.856763 -0.1326,-1.809257 -0.20963,-2.116659 -0.0766,-0.307389 -0.21816,-1.6278 -0.3136,-2.934226 -0.11554,-1.578763 -0.2836,-0.782212 -0.50066,2.375326 -0.1885,2.740484 -0.50523,4.386869 -0.7486,3.890916 z m -5.18368,-7.483854 c -0.20555,-0.819066 -0.48159,-1.38143 -0.61331,-1.249703 -0.13156,0.131753 -0.0712,0.909681 0.13431,1.72876 0.20554,0.819078 0.48154,1.381443 0.61328,1.249703 0.13192,-0.131753 0.0712,-0.909681 -0.1343,-1.72876 z m 1.26004,0.693638 c -0.17828,-0.445857 -0.31088,-0.313424 -0.3378,0.337666 -0.0238,0.589163 0.10772,0.919269 0.29349,0.733553 0.18577,-0.185703 0.20554,-0.667771 0.044,-1.071231 z m 5.20721,-3.002137 c 0,-0.479233 -0.25565,-0.713356 -0.56802,-0.520282 -0.31224,0.193062 -0.42333,0.585182 -0.24644,0.871329 0.47911,0.775219 0.81446,0.630666 0.81446,-0.351047 z m 4.16658,-1.783441 c 0.30985,-1.02571 0.16328,-1.257527 -0.79462,-1.257527 -1.15671,0 -1.19437,0.201012 -0.62342,3.325452 0.0968,0.530072 1.05549,-0.867889 1.41804,-2.067925 z m -10.4916,0.314382 c -0.17827,-0.445845 -0.31087,-0.313424 -0.33779,0.337665 -0.0238,0.589164 0.10773,0.91927 0.29348,0.733554 0.18578,-0.185704 0.20555,-0.667772 0.044,-1.071232 z m 7.8246,-1.117799 c -0.17828,-0.445845 -0.31088,-0.313424 -0.33781,0.337665 -0.0238,0.589176 0.10773,0.91927 0.2935,0.733554 0.18576,-0.185704 0.20553,-0.667772 0.044,-1.071219 z m -1.49958,0.104827 c 0,-0.307401 -0.11075,-0.558899 -0.24646,-0.558899 -0.13565,0 -0.40191,0.251485 -0.59187,0.558899 -0.18986,0.307389 -0.0791,0.5589 0.24645,0.5589 0.32553,0 0.59188,-0.251498 0.59188,-0.5589 z m -7.1114,-6.008167 c -0.24303,-5.400785 -0.1302,-6.38954 1.11563,-9.780736 0.7622,-2.074917 1.17734,-3.772569 0.92255,-3.772569 -0.54198,0 -3.86917,10.105827 -3.86917,11.75201 0,1.045655 1.71541,7.809462 1.98059,7.809462 0.0665,0 -8.9e-4,-2.703681 -0.14964,-6.008167 z m 11.49528,3.031091 c -0.17009,-0.761247 -0.32041,-0.765544 -1.30721,-0.03729 -0.95089,0.701727 -0.99272,0.898531 -0.28395,1.336463 0.99175,0.612926 1.86007,-0.09601 1.59134,-1.299168 z m 1.78628,-4.29997 c 1.21734,-0.62104 2.21331,-1.406352 2.21331,-1.745139 0,-0.433888 -0.23042,-0.424741 -0.77949,0.03099 -0.42873,0.355822 -0.99465,0.608328 -1.25753,0.561155 -0.26281,-0.04712 -0.85526,-0.05216 -1.31635,-0.01134 -0.7452,0.0664 -0.7452,0.134953 0,0.616529 0.46109,0.29799 0.56588,0.545633 0.23281,0.550345 -1.07757,0.01537 -1.32563,-0.670493 -0.68061,-1.881352 0.53084,-0.996517 0.50562,-1.081235 -0.15952,-0.534872 -0.43457,0.357043 -1.54249,0.734309 -2.46205,0.838343 -1.15918,0.131173 -1.72546,0.531999 -1.84648,1.30698 -0.14452,0.925972 -0.0736,0.973938 0.4144,0.279443 0.40645,-0.57858 0.71883,-0.647851 1.00812,-0.223539 0.34205,0.501723 1.24778,1.022068 2.25786,1.297203 0.089,0.02419 1.15799,-0.464001 2.37533,-1.085028 z m -2.00228,-3.303428 c 0.17691,-0.286147 0.0887,-0.664219 -0.196,-0.840158 -0.66076,-0.408373 -2.29515,0.204994 -2.29515,0.861338 0,0.661459 2.08021,0.643782 2.49119,-0.02117 z m -3.05008,-0.597517 c 0,-0.307389 -0.11075,-0.5589 -0.24644,-0.5589 -0.13568,0 -0.40191,0.251498 -0.59188,0.5589 -0.18986,0.307402 -0.0791,0.558899 0.24645,0.558899 0.32552,0 0.59187,-0.251485 0.59187,-0.558899 z m 0.55889,-3.912297 c 0,-0.307389 -0.25156,-0.558887 -0.55889,-0.558887 -0.30746,0 -0.55891,0.251485 -0.55891,0.558887 0,0.307402 0.25156,0.558912 0.55891,0.558912 0.30747,0 0.55889,-0.251498 0.55889,-0.558912 z m -13.41357,-3.353385 c 0,-0.307389 -0.26623,-0.558899 -0.59188,-0.558899 -0.32554,0 -0.43645,0.251497 -0.24645,0.558899 0.18986,0.307402 0.45632,0.5589 0.59187,0.5589 0.13567,0 0.24646,-0.251486 0.24646,-0.5589 z m -12.29578,28.503865 c -0.71647,-0.463017 -0.69615,-0.543024 0.13976,-0.550344 0.53791,-0.005 0.97805,0.24293 0.97805,0.550344 0,0.681644 -0.0631,0.681644 -1.11778,0 z M 104.142,89.386749 c 0,-0.768492 0.12681,-1.082861 0.2819,-0.698628 0.15509,0.384246 0.15509,1.01301 0,1.397255 -0.15509,0.384246 -0.2819,0.0698 -0.2819,-0.698627 z M 88.47796,82.359222 c -1.293726,-2.388593 -1.447967,-2.932512 -0.618878,-2.182176 1.03753,0.938949 1.104408,0.940701 1.104408,0.0286 0,-0.533864 -0.90258,-2.521996 -2.005693,-4.41809 l -2.005658,-3.447439 2.187783,2.11424 c 1.967618,1.901498 2.254423,2.54295 2.850122,6.37466 0.364283,2.343236 0.560827,4.361947 0.436752,4.486014 -0.12408,0.124105 -1.001057,-1.206122 -1.948836,-2.956011 z m 54.54099,-10.018904 c 0.17249,-2.151761 0.40444,-4.017086 0.51522,-4.14516 0.42329,-0.48935 0.0995,5.877045 -0.35306,6.939658 -0.2877,0.675583 -0.35182,-0.429931 -0.16226,-2.794498 z m -55.100386,-2.45687 c -0.360228,-1.658681 -0.558715,-3.112042 -0.441048,-3.229696 0.369329,-0.36934 1.62048,4.725467 1.351707,5.504353 -0.140778,0.407618 -0.550466,-0.615988 -0.910659,-2.274657 z m 83.762006,-0.794459 c 0,-0.135772 1.13179,-1.174257 2.51506,-2.307755 1.38327,-1.133486 2.51505,-1.835175 2.51505,-1.55931 0,0.275865 -1.13178,1.314351 -2.51505,2.307743 -1.38327,0.993392 -2.51506,1.695081 -2.51506,1.559322 z m -85.335855,-4.71298 c -0.191568,-0.537934 -0.44991,-1.166698 -0.574361,-1.397243 -0.12442,-0.230532 0.01021,-0.419184 0.300305,-0.419184 0.289736,0 0.646929,0.628764 0.793843,1.397255 0.307462,1.607843 -0.0068,1.861105 -0.519958,0.419172 z M 132.69734,49.297854 c -3.73003,-0.267336 -3.8147,-0.972166 -0.12574,-1.047286 1.54085,-0.03136 2.9454,-0.200908 3.12122,-0.376743 0.17589,-0.175819 -0.33883,-1.631125 -1.14405,-3.233981 -0.80507,-1.602857 -1.31585,-3.062209 -1.13505,-3.243007 0.18066,-0.180796 1.19166,0.671404 2.24634,1.893786 1.50373,1.742785 1.88857,2.643719 1.78297,4.173999 -0.14793,2.14561 -0.18542,2.160062 -4.74561,1.833232 z m -4.05201,-6.299777 -1.39724,-0.447476 1.53697,-0.05573 c 0.84534,-0.03068 1.53696,0.195794 1.53696,0.503202 0,0.307392 -0.063,0.533826 -0.13975,0.503187 -0.0766,-0.03068 -0.76848,-0.257082 -1.53696,-0.503187 z m 19.88861,-4.364062 c 0.18714,-1.170665 0.0423,-4.5031 -0.32178,-7.405421 -0.36411,-2.902322 -0.63654,-6.871762 -0.60535,-8.820981 0.077,-4.820315 -0.83481,-7.833217 -2.98305,-9.855886 -1.72479,-1.623918 -12.00648,-7.1280662 -12.98753,-6.9526401 -0.26179,0.046807 -0.60166,0.036098 -0.75536,-0.023863 -1.31458,-0.5125071 -2.65027,-0.3802984 -3.44759,0.3412413 -0.52425,0.4744479 -1.20027,0.7099331 -1.50224,0.5232986 -0.30201,-0.1866245 -0.92862,0.040218 -1.39254,0.5041473 -0.46392,0.463916 -1.11296,0.8434849 -1.44231,0.8434849 -0.32928,0 -0.59883,0.2180866 -0.59883,0.4846308 0,0.8591296 -4.58104,3.5466162 -6.24143,3.6615662 -2.12473,0.147085 -3.03239,1.142632 -4.66695,5.118708 -1.57338,3.827242 -1.77908,3.441486 -0.49041,-0.919703 0.56158,-1.900534 1.82208,-4.121632 3.37097,-5.939864 1.36067,-1.5973105 2.8398,-3.6093502 3.28694,-4.4711938 0.44712,-0.8618436 1.00511,-1.5850149 1.23994,-1.6070426 0.23486,-0.022162 1.90998,-0.4907213 3.72253,-1.0415345 1.99544,-0.6063946 4.24015,-0.8950067 5.68995,-0.7315916 1.31695,0.1484481 2.61374,0.050587 2.88173,-0.2174038 0.62029,-0.6202955 6.16098,0.3890236 9.98056,1.8181164 3.3302,1.2459898 6.90515,4.8565876 9.46443,9.5589059 1.42953,2.626495 1.62717,3.617104 1.84215,9.233367 0.1752,4.579163 0.43355,6.29122 0.94904,6.29122 0.70061,0 1.38671,1.184004 1.38671,2.393087 0,0.435294 -0.20349,0.421421 -0.67068,-0.04571 -0.91332,-0.913324 -3.61248,-0.849021 -3.97461,0.0947 -0.16158,0.420959 0.18338,1.550169 0.76688,2.509363 0.81368,1.33801 0.9364,2.070581 0.52718,3.146924 -0.69032,1.815653 -1.60353,1.819781 -1.25677,0.0058 0.15577,-0.815633 0.008,-1.39725 -0.35692,-1.39725 -0.36704,0 -0.62406,1.035893 -0.62406,2.515046 0,1.383276 -0.25463,2.515046 -0.56553,2.515046 -0.342,0 -0.43096,-0.841259 -0.22497,-2.128466 z m -19.609,-35.3177857 c -0.18986,-0.3073929 -0.64495,-0.5550492 -1.01104,-0.550342 -0.39997,0.00517 -0.33098,0.2248009 0.17281,0.550342 1.0737,0.693889 1.26718,0.693889 0.83833,0 z M 118.13331,37.981668 c -4.28073,-0.358752 -5.91151,-1.847859 -5.45669,-4.98263 0.15134,-1.042247 0.0238,-2.362648 -0.28122,-2.934224 -0.79084,-1.47771 0.23487,-3.105583 2.23322,-3.544513 2.45976,-0.540253 7.87733,0.641558 9.37022,2.04406 0.71132,0.668239 1.29328,1.846246 1.29328,2.617794 0,1.569458 -1.92883,5.877277 -2.96217,6.615745 -0.36887,0.263592 -2.25735,0.346293 -4.1966,0.18376 z m -1.78358,-4.48488 c 0,-0.307394 -0.25156,-0.558902 -0.55893,-0.558902 -0.30746,0 -0.55888,0.251492 -0.55888,0.558902 0,0.307393 0.25156,0.558899 0.55888,0.558899 0.30747,0 0.55893,-0.251492 0.55893,-0.558899 z m 4.19173,0 c 0.18987,-0.307394 0.0791,-0.558902 -0.24645,-0.558902 -0.32552,0 -0.59187,0.251492 -0.59187,0.558902 0,0.307393 0.11075,0.558899 0.24644,0.558899 0.13566,0 0.40189,-0.251492 0.59188,-0.558899 z m -10.75761,0.279442 c 0.008,-1.22958 0.1207,-1.666779 0.25429,-0.971558 0.13362,0.695222 0.1285,1.701241 -0.0101,2.235597 -0.13975,0.53436 -0.24917,-0.0345 -0.24303,-1.264039 z M 130.668,33.254619 c -0.80499,-1.055366 -1.46362,-2.156345 -1.46362,-2.44661 0,-0.290282 -0.37724,-0.840849 -0.83831,-1.223523 -1.12538,-0.933982 -1.05571,-1.521052 0.26451,-2.22755 1.60707,-0.860087 6.75976,-1.74803 7.95054,-1.370088 1.38319,0.439006 0.83515,1.144878 -1.20578,1.553067 -2.62905,0.525809 -1.57427,1.860697 1.72041,2.177278 1.5365,0.147629 3.09324,0.592449 3.45936,0.988468 0.53291,0.576401 0.44275,0.632112 -0.45207,0.279272 -0.61479,-0.242425 -1.8723,-0.523868 -2.79448,-0.625456 -1.10257,-0.121447 -0.73945,0.116066 1.0605,0.693721 1.95328,0.626833 2.51489,1.015861 1.96084,1.358275 -0.44716,0.276374 -1.00355,0.252718 -1.31203,-0.05577 -0.84375,-0.843743 -1.99033,-0.631067 -1.632,0.302723 0.17691,0.461094 0.0238,0.838352 -0.33677,0.838352 -0.36225,0 -1.03587,0.377257 -1.49696,0.838347 -1.41861,1.418615 -3.29424,1.003654 -4.88394,-1.08051 z m -20.88415,-6.74408 c 0.008,-1.229578 0.1207,-1.666777 0.25429,-0.971555 0.13362,0.695221 0.1285,1.70124 -0.0101,2.235597 -0.13975,0.534356 -0.24917,-0.03446 -0.24303,-1.264042 z"
       style="fill:#333333;stroke-width:0.55889922" />
  </g>
</svg>
