<?xml version="1.0" encoding="UTF-8" standalone="no"?>
<svg
   xmlns:dc="http://purl.org/dc/elements/1.1/"
   xmlns:cc="http://creativecommons.org/ns#"
   xmlns:rdf="http://www.w3.org/1999/02/22-rdf-syntax-ns#"
   xmlns:svg="http://www.w3.org/2000/svg"
   xmlns="http://www.w3.org/2000/svg"
   id="svg1463"
   version="1.1"
   viewBox="0 0 210 297"
   height="297mm"
   width="210mm">
  <defs
     id="defs1457" />
  <metadata
     id="metadata1460">
    <rdf:RDF>
      <cc:Work
         rdf:about="">
        <dc:format>image/svg+xml</dc:format>
        <dc:type
           rdf:resource="http://purl.org/dc/dcmitype/StillImage" />
        <dc:title></dc:title>
      </cc:Work>
    </rdf:RDF>
  </metadata>
  <g
     id="layer1">
    <path
       id="path1192"
       d="m 33.815038,284.90043 c -0.335341,-3.30797 -0.609998,-8.56098 -0.609998,-11.67337 0,-3.11246 -0.354502,-8.36662 -0.788781,-11.67593 -0.433707,-3.30932 -0.886452,-6.97143 -1.005827,-8.13794 -0.691054,-6.75367 -2.372865,-11.95475 -4.663265,-14.42093 -0.885805,-0.95384 -1.073084,-2.01523 -1.194062,-6.76715 -0.07921,-3.09967 0.03834,-5.70197 0.256775,-5.78277 0.220365,-0.0812 0.516103,-0.98449 0.657846,-2.00833 0.141799,-1.02377 0.303401,-1.98113 0.35961,-2.12739 0.05749,-0.14628 0.150104,-0.98392 0.209508,-1.86142 0.05749,-0.87758 0.300209,-2.01441 0.535903,-2.52629 0.739214,-1.60714 -0.06836,-2.45334 -3.216062,-3.36827 -2.456981,-0.71426 -3.251193,-0.75997 -4.091136,-0.23571 -0.905162,0.5653 -0.995543,0.52889 -0.687032,-0.27465 0.268273,-0.69955 0.189708,-0.79426 -0.321923,-0.38772 -0.372388,0.29574 -1.517203,0.68869 -2.544108,0.87323 -1.026904,0.18459 -2.530884,0.95095 -3.342149,1.7032 -0.811265,0.75219 -1.765992,1.26203 -2.121706,1.13287 -0.35578,-0.12906 -1.10119,0.15267 -1.6566383,0.6266 -0.978745,0.83471 -0.999376,0.77103 -0.669466,-2.06383 0.187151,-1.60886 0.342366,-3.95585 0.344921,-5.21557 l 0.0036,-2.29039 1.4625893,0.77937 c 6.946694,3.70196 18.24379,6.14527 17.323364,3.7466 -0.156492,-0.40879 -0.602333,-0.7429 -0.990113,-0.7429 -0.387717,0 -0.848824,-0.45287 -1.024542,-1.00655 -0.225475,-0.71128 -1.679121,-1.43485 -4.955353,-2.46688 -2.549792,-0.80314 -4.331751,-1.56855 -3.959876,-1.70076 0.371748,-0.1323 1.372653,9.7e-4 2.224097,0.29892 0.851377,0.29702 2.080316,0.40049 2.731065,0.23059 0.815737,-0.21333 1.064973,-0.11816 0.802642,0.30595 -0.240804,0.39028 0.01916,0.61575 0.714624,0.61575 0.602334,0 1.095122,-0.23186 1.095122,-0.51483 0,-0.2836 0.367915,-0.3743 0.817524,-0.20119 0.449675,0.17245 1.273331,-0.0991 1.830379,-0.60298 0.990878,-0.89679 0.983085,-0.94406 -0.363446,-2.19191 -0.756844,-0.70145 -1.246758,-1.27537 -1.088542,-1.27537 0.158409,0 0.09836,-0.83764 -0.13222,-1.86148 -0.246553,-1.09378 -0.215894,-1.86143 0.07474,-1.86143 0.272104,0 0.212701,-0.52695 -0.132219,-1.17124 -0.482249,-0.90059 -0.480972,-1.2198 0.0035,-1.38134 0.459255,-0.1531 0.472668,-0.39985 0.0511,-0.9088 -0.351947,-0.42458 -0.382606,-0.82049 -0.07728,-1.00916 0.293182,-0.18114 0.327035,-1.08698 0.08176,-2.17472 -0.23761,-1.05532 -0.213978,-1.86431 0.05749,-1.86431 0.787249,0 0.535904,-1.9475 -0.346198,-2.6793 -0.452228,-0.37519 -0.685945,-1.03657 -0.519935,-1.4697 0.166073,-0.43313 -0.01916,-1.29224 -0.420291,-1.90919 -1.064335,-1.6527 -1.402804,-3.4285 -0.70779,-3.71348 0.419015,-0.17183 0.40113,-0.26246 -0.05749,-0.29147 -0.365359,-0.023 -0.664737,-0.64031 -0.664737,-1.37159 0,-0.73128 -0.239528,-1.32961 -0.532071,-1.32961 -0.292544,0 -0.479695,-0.17948 -0.415183,-0.39889 0.06387,-0.21941 -0.209506,-1.90062 -0.607442,-3.73609 -0.816502,-3.76496 -0.489276,-4.97105 0.510993,-1.88391 1.02371,3.15923 4.842105,10.80552 5.396085,10.80552 0.273381,0 0.317454,0.29918 0.09773,0.6648 -0.252942,0.42092 -0.05749,0.38662 0.534626,-0.0935 0.591474,-0.48032 0.822251,-1.16264 0.62916,-1.86145 -2.337346,-8.45266 -2.770476,-10.41048 -2.303231,-10.41048 0.316178,0 0.266355,-0.3331 -0.119448,-0.79778 -0.493108,-0.59448 -0.502049,-0.79775 -0.03194,-0.79775 0.34556,0 0.491832,-0.22134 0.324483,-0.49179 -0.167351,-0.27043 -0.394104,-1.40729 -0.503969,-2.52626 -0.109865,-1.11897 -0.356416,-3.47049 -0.546762,-5.22558 l -0.346835,-3.19108 1.002497,2.65922 c 0.551234,1.46261 1.518416,3.66687 2.148981,4.8984 0.906629,1.77086 1.146419,3.17818 1.146419,6.72901 v 4.48984 l 2.477862,-0.74572 c 4.44468,-1.33767 4.857633,-1.02196 2.108612,1.61201 -1.353428,1.29677 -2.924796,2.50502 -3.491871,2.68499 -0.679491,0.21565 -1.089372,0.90779 -1.202167,2.02998 -0.187152,1.86462 1.009594,6.22346 1.709009,6.22346 0.240806,0 1.546016,-0.47503 2.900467,-1.05562 2.970268,-1.27322 4.909677,-1.21558 5.268522,0.15649 0.373663,1.42823 -0.09389,2.33259 -1.430589,2.76578 -1.083496,0.35126 -1.058522,0.39846 0.38005,0.71723 1.490057,0.3301 1.433975,0.39193 -1.728496,1.9016 -1.797738,0.85817 -3.268623,1.87534 -3.268623,2.26035 0,0.82594 1.155859,0.92688 1.915513,0.16729 0.795105,-0.79511 4.998476,-1.28138 4.998476,-0.57825 0,0.31846 -0.449674,0.57914 -0.998736,0.57914 -1.396422,0 -5.256781,1.69841 -4.482174,1.97198 0.349391,0.12327 1.11153,-0.03 1.69355,-0.34198 0.581894,-0.31152 1.824188,-0.56631 2.760385,-0.56631 0.936145,0 3.165735,-0.24381 4.954524,-0.54179 5.646408,-0.94059 17.993146,-2.65067 18.884256,-2.61556 2.513956,0.0991 -2.690698,1.14547 -13.072861,2.62833 -6.380194,0.91128 -12.2676,1.91453 -13.08301,2.2295 -1.625468,0.62787 -1.669548,1.86909 -0.05749,1.57002 0.553787,-0.10279 2.083446,-0.25741 3.399764,-0.34492 2.654098,-0.17501 8.542651,-1.00161 15.423554,-2.16419 2.486365,-0.4201 5.537816,-0.76333 6.781006,-0.76276 2.156703,9.8e-4 2.260374,0.0741 2.260374,1.59664 0,0.87756 0.239529,1.59551 0.532072,1.59551 0.292545,0 0.532072,-0.36664 0.532072,-0.81446 0,-0.44776 0.419014,-0.96296 0.930711,-1.1445 0.512269,-0.18152 1.289746,-0.63172 1.728497,-1.00041 1.695154,-1.42436 12.764347,-2.53282 12.764347,-1.27825 0,0.30194 0.53846,0.78738 1.196676,1.07871 l 1.196618,0.5297 -1.247903,-0.2445 c -1.709534,-0.33503 -2.735346,0.14212 -2.367437,1.10089 0.251026,0.65331 0.397297,0.66948 0.80475,0.0888 0.396019,-0.56414 0.453507,-0.546 0.281047,0.0882 -0.119449,0.43883 -0.676363,0.8827 -1.237171,0.98648 -1.246575,0.23058 -5.030088,3.86675 -4.655019,4.47362 0.411349,0.66538 -0.922667,2.02052 -1.610337,1.63601 -0.35514,-0.19864 -0.330228,-0.0447 0.05749,0.37813 1.39335,1.5011 0.632354,1.9313 -4.655976,2.63116 -5.370216,0.7108 -6.429505,0.58446 -5.478547,-0.65221 0.34492,-0.4484 0.315539,-1.06938 -0.08749,-1.83639 -0.922279,-1.75672 -1.681486,-0.87078 -1.993065,2.3258 -0.03193,0.34938 -0.201203,0.62021 -0.372385,0.6017 -0.170545,-0.0191 -0.774794,-0.005 -1.342634,0.0319 -1.021603,0.064 -1.021603,0.0709 -5.12e-4,0.81746 1.199237,0.87687 1.379746,0.8176 -5.741963,1.88633 -3.649766,0.54803 -4.291767,0.51354 -5.671063,-0.30149 -1.474535,-0.87104 -1.708888,-0.87052 -4.507406,0.0135 -3.161385,0.99439 -4.173214,0.82142 -3.731525,-0.63811 0.152021,-0.50268 -0.06643,-0.31553 -0.486082,0.41582 -0.419014,0.73131 -1.047982,3.64562 -1.397055,6.4764 -0.348753,2.83077 -1.103808,7.37803 -1.677206,10.10514 -1.91533,9.10889 -2.092773,12.77162 -1.729265,35.6924 0.312345,19.71028 0.602972,24.06918 1.353302,20.32315 0.17246,-0.86192 0.429873,-0.64832 1.355854,1.12559 0.628523,1.20415 1.774744,2.99914 2.547301,3.98887 0.772559,0.98974 0.425403,0.72255 -0.770897,-0.59403 -1.196554,-1.3163 -2.17619,-2.70659 -2.176958,-3.08952 -5.74e-4,-0.38324 -0.267632,-0.53143 -0.59275,-0.33087 -0.383247,0.23698 -0.470115,1.27743 -0.247832,2.95654 0.305957,2.30669 0.23378,2.59113 -0.660331,2.59113 -0.889127,0 -1.07398,-0.68889 -1.613909,-6.01447 z M 64.742494,202.8056 c -0.30915,-0.80623 -1.022368,-0.93059 -1.442086,-0.25167 -0.361527,0.58509 0.01916,0.96061 0.967183,0.96061 0.410711,0 0.624689,-0.31937 0.474584,-0.70914 z m 15.265276,-5.73031 c 0,-0.12892 -0.239529,-0.38248 -0.532072,-0.56324 -0.292543,-0.18077 -0.532072,-0.0752 -0.532072,0.23454 0,0.30978 0.239529,0.56324 0.532072,0.56324 0.292543,0 0.532072,-0.10551 0.532072,-0.23454 z m -37.813733,92.1111 c -0.873477,-0.9507 -2.306175,-2.84233 -3.183741,-4.20368 -1.582864,-2.45544 -1.596406,-2.54098 -1.705886,-10.77014 -0.05749,-4.56221 0.0447,-8.29487 0.236334,-8.29475 0.556982,3.8e-4 1.514588,3.19868 1.514588,5.05792 0,3.37761 4.050067,8.08124 9.179606,10.66105 1.977345,0.99447 4.250943,2.28184 5.052501,2.86079 3.724562,2.69038 14.867537,5.13906 25.782083,5.6657 3.587298,0.1731 6.622149,0.41328 6.744021,0.53336 0.122006,0.12003 -8.759504,0.21844 -19.736457,0.21844 H 46.119102 l -2.468224,-2.17254 c -1.357453,-1.19497 -2.46816,-1.93777 -2.46816,-1.65071 0,0.28679 0.846019,1.26477 1.879944,2.17261 1.033993,0.90785 1.618826,1.65064 1.299646,1.65064 -0.318732,0 -1.294984,-0.77779 -2.168463,-1.7285 z m 79.563703,0.39986 c 12.92059,-1.7598 16.96107,-2.73932 27.39013,-6.64016 2.48635,-0.93002 6.31568,-2.26141 8.50955,-2.95859 3.54834,-1.12776 6.05745,-2.47231 9.9721,-5.34365 l 1.19668,-0.87769 0.0447,3.65481 c 0.0256,2.01019 0.064,5.33017 0.0849,7.37778 0.0512,4.62648 -0.39218,6.11627 -1.82443,6.11627 -0.91122,0 -0.98289,-0.13282 -0.43114,-0.79779 0.54867,-0.66096 0.49119,-0.79677 -0.33406,-0.79203 -0.54804,0.004 -2.17218,0.3628 -3.60985,0.79874 -1.43768,0.43626 -2.72244,0.68455 -2.85498,0.55187 -0.13229,-0.13229 0.37558,-0.39601 1.12961,-0.58509 0.75378,-0.18907 1.66149,-0.69457 2.01708,-1.12302 0.72989,-0.87944 -0.0256,-0.76133 -5.3895,0.84172 -3.77145,1.1273 -5.07352,1.10342 -4.97873,-0.0914 0.0383,-0.51163 -0.16481,-0.9307 -0.45543,-0.9307 -0.29126,0 -0.37622,-0.39986 -0.18906,-0.88837 0.19929,-0.51994 -0.26254,-0.28488 -1.11436,0.56721 -1.20185,1.20179 -1.32078,1.54038 -0.68287,1.94387 0.56464,0.35707 0.31937,0.49057 -0.91173,0.49695 -0.92631,0.005 -1.79391,-0.29127 -1.92799,-0.65664 -0.19482,-0.53206 -0.38452,-0.53206 -0.94846,0 -0.53527,0.50462 -4.6823,0.65307 -17.21855,0.6164 l -16.51383,-0.0511 9.04138,-1.23143 z m 27.90704,-3.96926 c 0.6659,-0.42095 0.6399,-0.54996 -0.17435,-0.86237 -0.59022,-0.22611 -1.29098,-0.0319 -1.82758,0.50332 -0.80609,0.80615 -0.79324,0.8699 0.17438,0.86236 0.57486,-0.005 1.39699,-0.23122 1.82755,-0.50331 z m -62.068062,2.27021 c 0.51738,-0.13479 1.235452,-0.12583 1.595511,0.0191 0.360249,0.14561 -0.06386,0.25612 -0.940802,0.24526 -0.877567,-0.0135 -1.172154,-0.13026 -0.654709,-0.26508 z m 4.011935,0.005 c 0.383877,-0.15394 0.842692,-0.13477 1.019432,0.0447 0.176925,0.17694 -0.137329,0.30213 -0.69808,0.27913 -0.619584,-0.0256 -0.745607,-0.15137 -0.321289,-0.32127 z m -24.215511,-1.24797 c -5.687989,-1.01063 -7.809951,-1.54263 -7.477742,-1.87491 0.10922,-0.1086 2.460431,0.26892 5.225606,0.83938 2.765174,0.5704 5.80539,1.0405 6.756093,1.04435 0.950701,0.004 1.728497,0.24655 1.728497,0.53908 0,0.29255 -0.179487,0.50653 -0.398575,0.47458 -0.219727,-0.0319 -2.844571,-0.49118 -5.833622,-1.02255 z m 8.226924,0.69462 c 0.950638,-0.11814 2.50629,-0.11814 3.456994,0 0.950639,0.11816 0.173099,0.21463 -1.728497,0.21463 -1.901405,0 -2.6792,-0.0965 -1.728497,-0.21463 z m 5.850293,0.0319 c 0.365359,-0.14755 0.963988,-0.14755 1.329603,0 0.365999,0.14755 0.06643,0.26827 -0.664801,0.26827 -0.731295,0 -1.030481,-0.12071 -0.664802,-0.26827 z m 38.326181,-0.54293 c 0.38389,-0.15394 0.8427,-0.13478 1.01939,0.0447 0.17692,0.17694 -0.13734,0.30277 -0.69808,0.27914 -0.61958,-0.0256 -0.74555,-0.15138 -0.32131,-0.32128 z m 5.56128,-0.53719 c 0.51738,-0.13477 1.23551,-0.12581 1.59557,0.0191 0.36024,0.14564 -0.0639,0.25615 -0.94087,0.24529 -0.87756,-0.0135 -1.17214,-0.13025 -0.6547,-0.26507 z m -26.868329,-0.53846 c 0.65809,-0.12649 1.735139,-0.12649 2.393299,0 0.65809,0.12651 0.11945,0.23058 -1.196689,0.23058 -1.31631,0 -1.85484,-0.10348 -1.19661,-0.23058 z m -28.586798,-1.05674 c -5.521725,-0.69137 -13.147842,-2.6164 -12.586971,-3.17729 0.159686,-0.15905 1.321556,0.0907 2.582496,0.5557 3.282171,1.2103 11.875155,2.45137 17.311609,2.50037 2.562695,0.0256 4.42009,0.12395 4.127545,0.22355 -1.626298,0.55572 -6.52838,0.51228 -11.434679,-0.10218 z m 13.429149,0.534 c 0.511632,-0.1335 1.349534,-0.1335 1.861421,0 0.51163,0.13349 0.09326,0.24336 -0.930711,0.24336 -1.023837,0 -1.442662,-0.10927 -0.93071,-0.24336 z m 34.842118,-0.54165 c 0.66162,-0.12718 1.61889,-0.1226 2.1274,0.0121 0.50843,0.13282 -0.0319,0.23698 -1.20282,0.23122 -1.17011,-0.005 -1.58612,-0.11492 -0.92458,-0.24208 z m 9.84312,-1.0561 c 0.51738,-0.13477 1.23546,-0.12583 1.59551,0.0191 0.36026,0.14564 -0.0639,0.25614 -0.94086,0.24527 -0.87751,-0.0121 -1.17216,-0.13026 -0.65465,-0.26506 z m -34.979058,-1.22696 -2.659203,-0.36472 2.792123,-0.0837 c 1.562619,-0.0447 2.792269,0.15075 2.792269,0.4484 0,0.29253 -0.0575,0.49438 -0.13287,0.44838 -0.0734,-0.0447 -1.329607,-0.24782 -2.792195,-0.44838 z m 3.722909,0 c -0.18077,-0.29255 0.0447,-0.53207 0.50076,-0.53207 0.45607,0 0.82923,0.23952 0.82923,0.53207 0,0.29254 -0.22548,0.53208 -0.50077,0.53208 -0.27531,0 -0.64846,-0.23954 -0.82922,-0.53208 z m -22.07164,-0.53271 c -3.36393,-0.20185 -6.953912,-0.53462 -7.977685,-0.74017 -5.21743,-1.04696 -6.914054,-1.53841 -6.914054,-2.00278 0,-0.2804 0.208868,-0.38132 0.464365,-0.22356 1.229257,0.75972 14.048983,2.40314 19.353027,2.48101 3.2876,0.0447 6.456141,0.2804 7.041163,0.51546 1.270137,0.51099 -3.12766,0.4995 -11.966561,-0.0319 z m 13.728336,0.16927 c 0.383885,-0.15394 0.842627,-0.13477 1.019369,0.0447 0.176931,0.17694 -0.137332,0.30277 -0.698082,0.27913 -0.619579,-0.0256 -0.745602,-0.15138 -0.321287,-0.32128 z m 26.692033,-0.29062 c 0.14627,-0.1482 2.30024,-0.41584 4.7866,-0.59468 2.48642,-0.17884 5.71737,-0.44265 7.17995,-0.58571 2.58238,-0.25295 2.59778,-0.24658 0.53208,0.22738 -2.44553,0.56082 -12.89797,1.35803 -12.49843,0.95325 z m -26.76964,-1.28137 c -0.0511,-0.0383 -4.157246,-0.22292 -9.130039,-0.4056 -4.972726,-0.18267 -10.178212,-0.56911 -11.567667,-0.85751 -1.389453,-0.28871 -3.782751,-0.78245 -5.318477,-1.09722 -2.85313,-0.5851 -9.77868,-3.10142 -13.216831,-4.80283 -1.053285,-0.52122 -3.052481,-2.05311 -4.442758,-3.40429 -2.530317,-2.45922 -4.006703,-2.9227 -2.115384,-0.6641 0.552512,0.65994 0.113701,0.37684 -0.9744,-0.62916 -1.088542,-1.00595 -2.11781,-2.26594 -2.287337,-2.79992 -0.169267,-0.534 -0.502691,-0.85081 -0.739976,-0.70403 -0.510354,0.31553 -1.482844,-2.13467 -1.523979,-3.84138 -0.01279,-0.65816 0.203759,-1.19669 0.488637,-1.19669 0.305957,0 0.266994,-0.4682 -0.09517,-1.14494 -0.50716,-0.94732 -0.49247,-15.68397 0.03193,-30.88562 0.0063,-0.21207 0.627244,-0.15203 1.37751,0.13282 0.75033,0.28552 2.037329,0.51866 2.860028,0.51866 0.822699,0 1.809808,0.37815 2.193564,0.84079 0.621495,0.74884 0.468837,0.80768 -1.397437,0.5378 -2.057002,-0.297 -2.063645,-0.29318 -0.366638,0.23826 0.950702,0.29765 1.728498,0.77338 1.728498,1.05756 0,0.62979 0.291903,0.65241 -3.058102,-0.23953 -1.53566,-0.4088 -2.792193,-0.63682 -2.792193,-0.50653 0,0.13028 1.076981,0.69835 2.393299,1.26261 2.196247,0.94137 2.3933,1.1818 2.3933,2.91942 0,2.10447 0.616385,2.504 5.46839,3.54457 1.420433,0.30469 2.720591,0.91352 2.889282,1.35305 0.168629,0.43945 0.01916,1.91206 -0.328951,3.27215 -0.350032,1.36007 -0.832919,3.37982 -1.073533,4.48836 -0.566563,2.60862 -0.791401,2.78479 -2.252073,1.76171 -1.981183,-1.38765 -2.45909,-0.95823 -0.580616,0.52186 0.950702,0.74924 1.728498,1.62131 1.728498,1.93801 0,0.32 -0.413266,0.21206 -0.93071,-0.24401 -0.511631,-0.45096 -2.247091,-1.4725 -3.855889,-2.27046 -3.801851,-1.8857 -4.786663,-2.79629 -4.786663,-4.42583 0,-1.86258 -0.368553,-1.28682 -0.757099,1.18313 -0.475224,3.02124 -0.03833,3.82215 3.342468,6.11766 1.673056,1.13621 3.384818,2.47889 3.803896,2.98389 0.419014,0.50524 -0.822763,-0.12772 -2.759745,-1.40664 -1.936983,-1.27863 -3.898621,-2.92314 -4.359217,-3.65443 l -0.837518,-1.3296 -0.01278,1.25922 c -0.01279,1.25314 0.424763,1.7465 7.092071,7.97627 1.679569,1.56939 2.908763,2.99844 2.731513,3.17569 -0.176932,0.17694 -0.544847,-0.0319 -0.817141,-0.4599 -0.388995,-0.61445 -0.496302,-0.51928 -0.502691,0.44585 -0.0038,0.68481 0.226754,1.08266 0.523769,0.89934 0.292542,-0.18075 0.532071,0.0447 0.532071,0.50078 0,0.45607 -0.320649,0.82917 -0.712388,0.82917 -0.391549,0 -0.990113,0.60934 -1.329604,1.35463 -0.788973,1.73168 -0.778688,1.83644 0.180126,1.83644 0.438815,0 0.797787,-0.23953 0.797787,-0.53208 0,-0.29255 0.358973,-0.53207 0.797788,-0.53207 0.438816,0 0.797723,-0.25358 0.797723,-0.56336 0,-0.3098 -0.275936,-0.39219 -0.61383,-0.18396 -0.392825,0.24273 -0.468836,0.14499 -0.212062,-0.27083 0.221004,-0.35769 0.736661,-0.52184 1.145838,-0.36472 0.473306,0.18141 0.744005,-0.0747 0.744005,-0.7044 0,-0.94758 0.158409,-0.93966 3.706424,0.18524 2.038543,0.64627 4.183563,1.60694 4.766798,2.13479 0.614469,0.55635 1.431482,0.8172 1.942732,0.62086 0.485442,-0.18651 2.588306,0.007 4.673476,0.4318 4.250248,0.86344 8.957509,1.26132 19.480578,1.64654 7.329043,0.26827 8.867198,0.42094 11.119017,1.10253 0.850853,0.25741 1.162753,0.19801 0.930633,-0.17758 -0.23569,-0.38068 1.03828,-0.56527 3.90579,-0.56527 2.340209,0 4.138969,0.18779 3.997239,0.4171 -0.41071,0.66459 -2.37146,1.0246 -2.6985,0.49566 -0.16415,-0.26508 -0.540369,-0.48225 -0.836299,-0.48225 -0.29637,0 -0.16287,0.37557 0.29575,0.83412 0.507149,0.50717 1.251919,0.70154 1.899479,0.49631 0.66862,-0.21207 1.06529,-0.0965 1.06529,0.31107 0,0.35705 0.47393,0.10218 1.05366,-0.56592 0.93544,-1.07859 1.09224,-1.11411 1.39822,-0.31683 0.18969,0.49375 0.66512,0.77512 1.05672,0.62468 0.39154,-0.1501 0.85356,-0.0447 1.02646,0.23571 0.1731,0.27977 0.0639,0.50844 -0.24911,0.50844 -0.30978,0 -0.56337,0.23953 -0.56337,0.53206 0,0.29255 0.50461,0.53208 1.12061,0.53208 0.71533,0 1.02224,0.25614 0.84851,0.70912 -0.18779,0.48993 0.20248,0.70914 1.26501,0.70914 1.02347,0 1.64055,-0.32575 1.84662,-0.97504 0.17181,-0.54229 0.81074,-0.97505 1.43895,-0.97505 1.10733,0 1.10924,-0.0121 0.0972,-0.78084 -0.96986,-0.7336 -0.91627,-0.78189 0.8844,-0.7978 2.03848,-0.0191 5.35744,2.29789 4.05154,2.82695 -0.35705,0.14498 -0.1648,0.28232 0.4286,0.30533 0.59274,0.0256 1.64208,-0.3526 2.33101,-0.83542 1.19426,-0.8365 1.29703,-0.81855 2.20565,0.38579 0.5244,0.6949 0.91123,1.50859 0.86012,1.80815 -0.0512,0.29957 0.50524,0.49695 1.23672,0.43881 1.73911,-0.13796 3.73255,0.28679 3.65679,0.77978 -0.21205,1.38045 0.13229,2.27175 0.73092,1.89164 0.36599,-0.23187 0.84429,-0.45544 1.06369,-0.49694 0.21974,-0.0383 0.57871,-0.10794 0.7978,-0.14946 0.21974,-0.0383 0.0383,-0.3328 -0.39857,-0.64852 -0.6818,-0.49056 -0.66742,-0.53208 0.0984,-0.28744 0.4931,0.15714 0.99878,5.1e-4 1.12386,-0.34874 0.12517,-0.3494 0.4139,-0.46117 0.642,-0.24912 0.22802,0.21207 0.14308,0.71303 -0.18843,1.11263 -0.33151,0.39984 -0.47586,0.85405 -0.32001,1.00984 0.15585,0.15585 -2.29946,0.66564 -5.45606,1.13307 -7.22972,1.07053 -20.1862,1.59877 -20.65388,0.84205 -0.22421,-0.36345 -0.59403,-0.33343 -1.10389,0.0896 -0.57295,0.47523 -1.09301,0.48673 -2.06102,0.0447 -0.71404,-0.32512 -1.4242,-0.38069 -1.58311,-0.12326 -0.15841,0.25678 0.0128,0.5819 0.38004,0.72349 0.36728,0.14117 0.12966,0.2306 -0.52887,0.19801 -0.65817,-0.0319 -1.19663,-0.26124 -1.19663,-0.50908 0,-0.24718 -0.299559,-0.26506 -0.664859,-0.0383 -0.52377,0.32383 -10.856554,0.67067 -11.2131,0.37621 z m 3.634309,-1.2564 c 0.180767,-0.29255 0.0754,-0.53207 -0.234413,-0.53207 -0.309793,0 -0.563374,0.23952 -0.563374,0.53207 0,0.29254 0.105399,0.53208 0.234418,0.53208 0.129029,0 0.382602,-0.23954 0.563369,-0.53208 z m 35.647811,-2.55656 c -0.16414,-0.16352 -0.59274,-3.2e-4 -0.95369,0.3628 -0.52121,0.52505 -0.46054,0.58636 0.29765,0.29766 0.52441,-0.19993 0.81971,-0.49694 0.656,-0.66085 z m -4.53479,-1.69822 c 0,-0.29255 -0.25358,-0.53208 -0.56337,-0.53208 -0.30979,0 -0.41519,0.23953 -0.23441,0.53208 0.18075,0.29254 0.43433,0.53208 0.56336,0.53208 0.12906,0 0.23442,-0.23954 0.23442,-0.53208 z m -9.04138,-1.27275 c 0,-0.11493 -0.35898,-0.34684 -0.79779,-0.51484 -0.43881,-0.16862 -0.79772,-0.0741 -0.79772,0.20888 0,0.2836 0.35897,0.51482 0.79772,0.51482 0.43881,0 0.79779,-0.094 0.79779,-0.20886 z m -43.345489,-5.10917 c -0.180764,-0.29254 -0.673617,-0.53208 -1.095122,-0.53208 -0.421569,0 -0.766361,0.23954 -0.766361,0.53208 0,0.29254 0.492469,0.53207 1.095057,0.53207 0.602333,0 0.947188,-0.23953 0.766426,-0.53207 z M 39.975242,229.4305 c -0.176931,-0.17694 -0.635547,-0.19545 -1.019361,-0.0447 -0.424125,0.1699 -0.298292,0.29574 0.321287,0.32128 0.560815,0.0256 0.87475,-0.1028 0.698074,-0.27912 z m 8.192813,49.9788 c -0.984683,-0.42987 -1.665452,-0.90604 -1.51273,-1.05878 0.152658,-0.15264 1.197639,0.2076 2.322206,0.80106 2.357339,1.24362 1.832933,1.41066 -0.809476,0.25805 z m 1.258512,-1.51374 c -1.462526,-0.68901 -2.499522,-1.27263 -2.304451,-1.29696 0.556982,-0.0695 5.229631,2.01228 5.229631,2.33012 0,0.36473 0.170543,0.42541 -2.92518,-1.03316 z m 6.96988,0.48417 c -1.139322,-0.41775 -2.335941,-0.95984 -2.659208,-1.20518 -0.323202,-0.24528 -1.954483,-0.98781 -3.624983,-1.65 -1.670436,-0.66219 -3.325158,-1.55093 -3.67717,-1.97505 -0.475861,-0.57358 0.03194,-0.50396 1.973519,0.27019 3.380091,1.3469 10.857131,4.91914 10.857131,5.18709 0,0.32831 -0.650111,0.18587 -2.869289,-0.62725 z m 77.666203,-1.55617 c 0.16798,-0.4369 0.51929,-0.66231 0.78112,-0.50077 0.75089,0.46437 0.55506,1.29517 -0.30533,1.29517 -0.47459,0 -0.66142,-0.3117 -0.47587,-0.79472 z m -9.02516,-2.21848 c -0.19483,-0.19482 -0.35451,-0.60169 -0.35451,-0.90414 0,-0.33341 0.24784,-0.30212 0.62916,0.0798 0.3462,0.3462 0.5059,0.75301 0.3545,0.90414 -0.15137,0.15138 -0.43434,0.1156 -0.62915,-0.0798 z m 12.40973,-0.64641 c 0,-0.29254 0.23953,-0.67975 0.53206,-0.86051 0.29253,-0.18076 0.53207,-0.0893 0.53207,0.20313 0,0.29254 -0.23954,0.67974 -0.53207,0.86051 -0.29253,0.18076 -0.53206,0.0896 -0.53206,-0.20313 z m 16.48723,-0.2721 c 0,-0.11492 0.37176,-0.3513 0.82545,-0.52568 0.47332,-0.18141 0.68678,-0.0926 0.50014,0.20886 -0.31234,0.50525 -1.32589,0.74753 -1.32589,0.31682 z m 12.74424,-1.4081 c 1.848,-1.5796 1.49121,-2.09252 -0.67963,-0.97703 -0.74304,0.38196 -0.40752,-0.1897 0.9311,-1.58574 2.29411,-2.39266 2.3047,-3.06537 0.0383,-2.20225 -1.8945,0.72031 -2.29735,0.29958 -1.04159,-1.08816 0.98334,-1.08656 0.97977,-1.09052 -0.49118,-0.53142 -1.74306,0.6627 -2.45622,0.35194 -2.45622,-1.07118 0,-0.56783 -0.26507,-1.03233 -0.58955,-1.03233 -0.3577,0 -0.46245,-0.50524 -0.26701,-1.28553 0.1795,-0.7152 0.0741,-1.36844 -0.23697,-1.4723 -0.75217,-0.25102 -1.01724,-2.14323 -0.40814,-2.91215 0.30786,-0.38835 0.26251,-0.7576 -0.12139,-0.99516 -0.37048,-0.22867 0.79939,-1.26642 2.9679,-2.63282 3.89556,-2.45462 3.91466,-3.34599 0.0447,-2.18194 -1.35035,0.40624 -2.45512,0.65624 -2.45512,0.55507 0,-0.10095 1.01713,-0.81478 2.26031,-1.58607 l 2.26038,-1.40228 -2.03222,0.33981 c -1.11767,0.18715 -2.434,0.44966 -2.92513,0.58444 -0.49119,0.13477 0.30341,-0.35449 1.76625,-1.08809 1.46259,-0.73314 3.06392,-1.33612 3.55857,-1.33989 0.49438,-0.004 1.04727,-0.24591 1.22804,-0.53845 0.49885,-0.80751 -3.43598,-0.64826 -6.4306,0.25996 -3.44179,1.04409 -3.51977,1.00263 -1.01521,-0.53974 2.39643,-1.476 1.53132,-1.71502 -1.86742,-0.51609 -2.09068,0.73761 -2.32311,0.72726 -2.98733,-0.13282 -0.39602,-0.51291 -0.67777,-1.41149 -0.62598,-1.99653 0.14627,-1.64399 -0.62469,-3.45698 -1.46935,-3.45698 -0.41901,0 -0.76189,-0.36664 -0.76189,-0.81452 0,-0.44776 -0.35898,-0.95219 -0.7978,-1.12055 -2.41131,-0.92528 0.9606,-2.12759 8.00522,-2.85441 4.65796,-0.48033 7.68424,-1.63683 7.68424,-2.93596 0,-0.95819 0.0191,-0.95793 -2.19541,-0.0383 -0.9864,0.41008 -3.46874,0.8966 -5.51636,1.08189 -2.04762,0.18524 -4.79988,0.44521 -6.11627,0.57806 -1.89265,0.19099 -2.13729,0.13284 -1.16927,-0.2772 0.67323,-0.28488 3.62121,-0.74395 6.55106,-1.01963 3.21018,-0.30213 5.84109,-0.83809 6.62074,-1.34889 1.98355,-1.29971 1.53643,-1.9345 -0.70077,-0.99491 -1.09691,0.46054 -4.50741,1.03898 -7.57878,1.28508 -3.07146,0.24592 -6.18276,0.59148 -6.914,0.7674 -1.11805,0.2689 -1.18326,0.2261 -0.40943,-0.26891 0.50589,-0.32386 3.85653,-0.89418 7.4458,-1.2674 6.98816,-0.72655 8.91933,-1.37686 8.91933,-3.00342 0,-1.01087 -0.0383,-1.01056 -2.43744,0.0191 -1.68762,0.72337 -3.64274,1.0448 -6.35599,1.0448 -2.15518,0 -5.12717,0.25931 -6.60439,0.57614 -1.47722,0.31681 -2.98484,0.46882 -3.35025,0.33787 -0.77384,-0.27719 2.94548,-1.3828 6.78151,-2.01598 1.88134,-0.31042 1.09212,-0.35898 -2.69772,-0.16415 l -5.35701,0.27465 -1.42406,-2.15192 c -0.78323,-1.18359 -1.42408,-2.30827 -1.42408,-2.49945 0,-0.19099 -0.52632,-1.1993 -1.16985,-2.24033 -2.21859,-3.58984 -2.00106,-3.80139 4.05096,-3.93936 13.38354,-0.30532 13.69294,-0.27977 14.27458,1.18596 1.11691,2.81401 1.75757,4.02501 2.65563,5.01985 1.19765,1.32674 1.18716,1.25244 -0.44711,-3.16068 -1.88979,-5.10309 -2.35658,-6.72882 -2.06684,-7.19766 0.13604,-0.22037 -0.16991,-0.56208 -0.6802,-0.76004 -0.86274,-0.33469 -0.8554,-0.41263 0.10469,-1.11939 0.89834,-0.66111 0.91559,-0.75978 0.13283,-0.75978 -1.22658,0 -1.13375,-0.90082 0.16416,-1.59558 1.63358,-0.87424 1.284,-1.58446 -0.52442,-1.06573 -1.54299,0.44264 -2.81295,-0.168 -1.47306,-0.70831 0.42796,-0.17246 0.35579,-0.28425 -0.20121,-0.31105 -0.95886,-0.0447 -3.65154,-6.58084 -3.65154,-8.8614 0,-1.24024 0.15394,-1.30785 2.79212,-1.22453 4.15605,0.13135 6.24919,-0.4569 6.24919,-1.75583 0,-0.74002 -0.25038,-0.98229 -0.79772,-0.77221 -0.43881,0.16831 -0.79779,0.0744 -0.79779,-0.209 0,-0.28334 0.33661,-0.51514 0.74784,-0.51514 0.50333,0 0.86166,-0.91266 1.09602,-2.79218 0.19162,-1.53572 0.8349,-5.18551 1.42988,-8.11068 0.59532,-2.92516 1.14187,-5.67747 1.21515,-6.11624 0.0735,-0.43876 0.465,-0.79777 0.86984,-0.79777 0.79516,0 0.78424,2.29491 -0.0383,7.41326 -0.23698,1.48052 -0.22868,2.76714 0.0191,2.85916 0.24656,0.0921 0.31745,0.51086 0.15585,0.93072 -0.16096,0.41992 -0.003,0.76341 0.35324,0.76341 0.42411,0 0.53143,0.45767 0.31233,1.32964 -0.19928,0.79358 -0.10605,1.32959 0.23187,1.32959 0.31041,0 0.52632,0.29919 0.47905,0.66483 -0.17822,1.37155 0.064,1.99441 0.76777,1.99441 0.4931,0 0.66895,0.50692 0.54485,1.57081 -0.10416,0.89396 0.15328,1.90681 0.59657,2.35058 0.5934,0.59365 0.62215,0.84375 0.12004,1.04795 -0.49501,0.20121 -0.46053,0.42285 0.13799,0.88663 0.66128,0.51292 0.59274,0.5736 -0.39987,0.3558 -0.6586,-0.14437 -1.06331,-0.0447 -0.89934,0.21971 0.16353,0.26509 0.0191,0.48225 -0.32768,0.48225 -0.36344,0 -0.50843,0.44521 -0.34747,1.0637 0.15777,0.60297 0.0122,1.07826 -0.33662,1.09743 -1.68231,0.0919 2.34444,1.07538 5.68262,1.38753 l 3.80741,0.35578 -3.61884,0.85521 c -1.99045,0.47012 -3.44639,1.02786 -3.23542,1.23878 0.21079,0.21079 0.09,0.38324 -0.26892,0.38324 -0.35834,0 -0.5046,0.23825 -0.32448,0.52951 0.18013,0.29127 -0.31937,1.12885 -1.11,1.86143 l -1.43715,1.33202 3.93354,0.0122 c 3.23836,0.0121 3.74553,0.12449 2.86986,0.63043 -1.72945,0.99854 -2.46681,1.90447 -1.85688,2.28146 0.29958,0.18524 0.43371,0.5161 0.29765,0.73596 -0.57613,0.93237 -0.72247,3.25004 -0.20503,3.25004 0.30724,0 0.4337,0.47842 0.28041,1.06369 -0.15329,0.5851 -0.0447,1.06371 0.23952,1.06371 0.28489,0 0.36856,0.46947 0.18653,1.04357 -0.18205,0.57423 -0.0575,1.55137 0.27274,2.17197 0.33214,0.62086 0.72229,2.24518 0.86702,3.6101 0.14499,1.36493 0.63044,3.05211 1.07985,3.74923 0.44904,0.69717 0.88613,2.13321 0.97095,3.19108 0.12516,1.56434 0.71227,5.82635 0.96055,6.97608 0.13605,0.62852 -1.32596,2.65947 -1.91578,2.66183 -1.46227,0.005 -3.45884,2.49855 -4.25798,5.31585 -1.8227,6.42541 -2.11353,8.71544 -1.85056,14.57033 0.14564,3.24819 0.15841,5.60661 0.0319,5.24093 -0.47779,-1.33522 -1.10067,-0.60872 -1.44469,1.68563 -0.30277,2.01601 -0.58702,2.43216 -2.00119,2.92512 -2.42192,0.8443 -2.484,0.69924 -0.44648,-1.04236 z m -1.71126,-44.28974 c 1.05099,-1.05105 0.15715,-1.22901 -1.55935,-0.31043 -0.6017,0.32192 -2.20117,0.78898 -3.55505,1.03802 -2.38902,0.43945 -2.36309,0.4484 0.87859,0.31044 2.27278,-0.0972 3.62639,-0.42861 4.23581,-1.0381 z m -15.36588,44.12859 c 1.53031,-1.62886 1.44055,-2.22365 -0.4535,-3.00829 -1.47199,-0.60934 -2.18526,-1.59558 -1.15446,-1.59558 0.67541,0 0.44329,-2.30215 -0.31298,-3.10102 -0.7023,-0.74208 -0.44137,-1.68563 0.46628,-1.68563 0.29254,0 0.38388,0.23952 0.20313,0.53207 -0.18079,0.29255 0.0383,0.53207 0.48352,0.53207 0.53399,0 0.69795,-0.2983 0.47841,-0.87055 -0.27657,-0.72024 -0.0447,-0.82799 1.34628,-0.62404 0.98716,0.14499 1.6958,0.0121 1.71783,-0.32641 0.0191,-0.31488 0.22994,-0.094 0.46628,0.4912 0.24463,0.60617 0.20055,1.34978 -0.1028,1.7285 -0.36535,0.45669 -0.33343,0.66481 0.10156,0.66481 0.38387,0 0.50397,0.40494 0.30531,1.0313 -0.22546,0.71079 0.007,1.20965 0.7451,1.60522 0.8918,0.47714 0.98507,0.80372 0.55379,1.93846 -0.28552,0.75051 -0.39539,1.56453 -0.24465,1.80891 0.267,0.43179 -2.04697,1.38307 -4.52208,1.85976 l -1.21974,0.23506 z m -25.55022,0.3513 c 0.38389,-0.1533 0.8427,-0.13477 1.01937,0.0447 0.17694,0.17693 -0.13733,0.30212 -0.69807,0.27912 -0.61959,-0.0255 -0.74555,-0.15137 -0.3213,-0.32128 z m -5.80634,-1.71833 c 0.59595,-0.37751 0.54357,-0.5206 -0.26636,-0.72791 -0.6215,-0.15905 -0.35513,-0.2817 0.69418,-0.32003 1.00985,-0.0383 1.92255,-0.44008 2.24416,-0.9924 0.29829,-0.51163 0.54932,-0.64788 0.55826,-0.30213 0.0191,0.64571 -2.71785,2.83481 -3.52292,2.82023 -0.24719,-0.005 -0.11559,-0.21972 0.29255,-0.47776 z m 30.17752,-0.30853 c 0.16798,-0.4369 0.52313,-0.65988 0.78973,-0.49502 0.55762,0.34491 0.10981,1.28981 -0.61063,1.28981 -0.26572,0 -0.34619,-0.35769 -0.17884,-0.79472 z m -25.86698,-1.33266 c 0,-0.29256 0.37303,-0.53207 0.82915,-0.53207 0.45608,0 0.68123,0.23951 0.50078,0.53207 -0.18077,0.29253 -0.55379,0.53206 -0.82916,0.53206 -0.27529,0 -0.50077,-0.23953 -0.50077,-0.53206 z m -53.816305,-7.27731 c 0.383885,-0.15393 0.842693,-0.13477 1.019431,0.0447 0.176932,0.17693 -0.137329,0.30213 -0.698016,0.27913 -0.619578,-0.0256 -0.745667,-0.15139 -0.321287,-0.32129 z M 53.14947,261.13141 c -0.701337,-0.30149 -0.791912,-0.46691 -0.265716,-0.48608 0.438815,-0.0135 1.156761,0.20311 1.595512,0.48608 0.972228,0.62853 0.132219,0.62853 -1.329605,0 z m 2.293655,-1.9589 c 0.383884,-0.15329 0.842627,-0.13476 1.019303,0.0447 0.176932,0.17693 -0.137329,0.30213 -0.698017,0.27914 -0.619578,-0.0256 -0.745601,-0.15139 -0.321286,-0.3213 z m -3.623259,-0.7003 c -0.687477,-0.44457 -0.673424,-0.51674 0.101565,-0.52377 0.494385,-0.005 1.047286,0.23123 1.228044,0.52377 0.415821,0.67304 -0.288072,0.67304 -1.329597,0 z m 94.003924,-0.88414 c 0.36535,-0.14756 0.96398,-0.14756 1.32968,0 0.36535,0.14754 0.0664,0.26825 -0.66481,0.26825 -0.73131,0 -1.03049,-0.12071 -0.66487,-0.26825 z M 81.307416,256.3779 c 0.738257,-0.8158 1.206071,-0.92661 2.244472,-0.53208 1.799144,0.68403 1.893613,0.64866 1.508452,-0.56528 -0.201203,-0.63362 -0.09582,-1.0637 0.261246,-1.0637 0.329589,0 0.461171,0.22293 0.293182,0.49504 -0.167989,0.27209 -0.06387,0.64653 0.23825,0.83169 1.081772,0.66851 -0.990496,1.8643 -3.230945,1.8643 -2.190052,0 -2.223777,-0.0255 -1.315104,-1.03061 z m -26.030555,-0.29765 c -0.292543,-0.0991 -1.429311,-0.33023 -2.526215,-0.5142 -1.096981,-0.18331 -1.994475,-0.55634 -1.994475,-0.82818 0,-0.29829 0.540375,-0.28936 1.364287,0.0256 0.750329,0.28551 1.932831,0.51866 2.627846,0.51866 0.694949,0 1.41149,0.23953 1.592317,0.53206 0.32512,0.52632 -0.03194,0.61639 -1.06376,0.26763 z m 28.187904,-1.86301 c 0.180763,-0.29255 0.434344,-0.53209 0.56337,-0.53209 0.12903,0 0.234417,0.23954 0.234417,0.53209 0,0.29252 -0.253579,0.53206 -0.56337,0.53206 -0.309789,0 -0.415181,-0.23954 -0.234417,-0.53206 z m 61.827215,0.15647 c 0.65814,-0.12648 1.73512,-0.12648 2.39328,0 0.65817,0.12651 0.12005,0.2306 -1.1966,0.2306 -1.31638,0 -1.85485,-0.10348 -1.19668,-0.2306 z m -91.740294,-0.72017 c -2.174212,-0.45925 -3.350646,-1.41603 -2.96772,-2.41393 0.244,-0.63427 0.45159,-0.65132 1.165064,-0.094 0.77837,0.60809 0.790762,0.57934 0.120081,-0.27465 -0.567203,-0.72203 -0.599139,-1.10266 -0.132852,-1.56895 0.729123,-0.72912 0.828001,-1.66065 0.130941,-1.22958 -0.569758,0.35196 -0.473946,-0.72905 0.154576,-1.73501 0.240166,-0.38515 0.297652,-0.84013 0.126473,-1.01112 -0.171182,-0.17118 0.10412,-0.63363 0.611275,-1.02831 0.868815,-0.67565 0.860582,-0.76676 -0.141162,-1.56485 -0.988451,-0.7875 -0.781563,-0.82085 2.925178,-0.47139 4.26577,0.4024 4.7866,0.55251 4.7866,1.38172 0,0.29254 -0.239529,0.38389 -0.532071,0.20311 -0.292544,-0.18075 -0.532072,0.16418 -0.532072,0.76637 0,0.60234 -0.284879,1.09513 -0.633631,1.09513 -0.348114,0 -0.169267,0.35131 0.398574,0.78079 1.001547,0.75754 0.994711,0.78138 -0.229307,0.79778 -1.021731,0.0135 -1.143987,0.15905 -0.642575,0.76299 0.475223,0.57295 0.459895,0.81036 -0.0677,1.0232 -0.536543,0.21654 -0.512271,0.41198 0.111145,0.89251 0.642509,0.49567 0.512907,0.55315 -0.664803,0.29637 -0.847481,-0.18458 -1.462589,-0.0914 -1.462589,0.22294 0,0.29827 0.239527,0.57166 0.532071,0.60872 0.292544,0.0383 0.811074,0.0965 1.152289,0.13281 0.341726,0.0383 0.732955,0.40368 0.870349,0.81606 0.174376,0.52248 -0.01916,0.64519 -0.648067,0.40497 -0.530794,-0.20376 -0.76502,-0.12973 -0.57295,0.18141 0.178847,0.28933 -0.06386,0.52568 -0.535905,0.52568 -0.473306,0 -0.737299,0.19928 -0.586364,0.44327 0.328312,0.5308 -0.416459,0.54614 -2.734131,0.0575 z m 1.991147,-5.60948 c 0,-0.11492 -0.358972,-0.20888 -0.797787,-0.20888 -0.438816,0 -0.797789,0.23186 -0.797789,0.51546 0,0.28361 0.358973,0.3775 0.797789,0.20888 0.438815,-0.16799 0.797787,-0.39985 0.797787,-0.51483 z m -10.371049,4.78417 c -0.585087,-0.45287 -2.200527,-1.40652 -3.589917,-2.11942 -1.389453,-0.71289 -2.526285,-1.52525 -2.526285,-1.80527 0,-0.60616 5.13401,2.30591 6.633328,3.76264 1.255446,1.21987 0.966543,1.31037 -0.517381,0.16223 z m 97.631206,0.004 c 0.27784,-1.49032 -0.094,-2.28222 -0.92229,-1.96438 -0.5953,0.22866 -0.75901,0.13605 -0.50076,-0.28234 0.21141,-0.34236 0.1616,-0.62213 -0.11048,-0.62213 -0.27275,0 -0.64505,-0.93728 -0.82826,-2.0828 -0.18267,-1.14553 -0.5525,-2.16272 -0.82129,-2.26038 -0.26827,-0.0978 -0.65457,-1.07505 -0.85783,-2.17198 l -0.36984,-1.9944 h 2.12011 c 3.39248,0 5.54083,0.57679 5.22408,1.4019 -0.15329,0.39922 -0.0862,0.72549 0.1482,0.72549 0.23441,0 0.45605,0.29893 0.49246,0.6648 0.34684,3.49028 0.53655,4.25905 1.14335,4.63412 0.38452,0.23763 0.5474,0.67925 0.36089,0.98088 -0.18651,0.30147 0.0512,0.93811 0.52695,1.41441 0.4765,0.4765 0.74299,0.98897 0.59276,1.13919 -0.50908,0.50908 -6.28777,0.8986 -6.19828,0.41774 z M 56.207635,239.47709 c 0.804431,-0.12206 2.120749,-0.12206 2.925116,0 0.804429,0.12205 0.146271,0.22164 -1.462527,0.22164 -1.60886,0 -2.267021,-0.0996 -1.462589,-0.22164 z m 81.771455,-0.68275 c -0.62916,-0.40688 -0.51739,-0.511 0.53206,-0.49311 0.73132,0.0135 2.28696,0.22035 3.45707,0.46244 l 2.1274,0.4401 -2.65928,0.0511 c -1.46259,0.0319 -3.01824,-0.17884 -3.45699,-0.46245 z m -81.942255,-1.66041 c -0.744637,-0.20824 0.397936,-0.35705 2.697085,-0.35195 3.962494,0.007 4.132209,0.19225 0.493748,0.53462 -1.044662,0.0984 -2.480617,0.0122 -3.191153,-0.18203 z m -8.085505,-0.68378 c -1.688958,-0.36279 -3.364312,-0.97626 -3.722959,-1.36333 -0.530155,-0.57231 -0.452868,-0.63107 0.411349,-0.31426 0.585087,0.21399 1.901339,0.50397 2.925114,0.64455 3.333783,0.45672 4.254783,0.72971 4.254783,1.26005 0,0.61447 0.06707,0.61831 -3.868535,-0.22675 z m 89.49589,0.26637 c -1.57477,-0.28936 -1.68367,-0.3922 -0.70692,-0.66698 1.11589,-0.31363 5.92913,0.34363 6.46925,0.88388 0.35449,0.35451 -3.43024,0.21206 -5.76233,-0.21716 z m -88.552469,-2.16623 c -3.065184,-0.42797 -4.520684,-0.97363 -4.520684,-1.69459 0,-0.27849 0.298931,-0.32193 0.664227,-0.0958 0.365361,0.22548 2.065362,0.5755 3.777829,0.77767 1.712402,0.20184 3.376002,0.62979 3.696842,0.95044 0.651643,0.65165 0.60808,0.65241 -3.618214,0.064 z m 7.529673,-0.40689 c -0.433066,-0.70045 5.262077,-1.26419 6.742169,-0.66748 1.096654,0.44202 1.085349,0.46627 -0.236974,0.49821 -0.763551,0.0191 -2.467137,0.18141 -3.785754,0.36217 -1.370995,0.18779 -2.535356,0.10536 -2.719696,-0.1929 z m 79.550106,-0.5212 c -1.83212,-0.22677 -1.88097,-1.21004 -0.0575,-1.21004 0.58508,0 0.91583,-0.23953 0.735,-0.53207 -0.18077,-0.29255 -0.85304,-0.53974 -1.49396,-0.54869 -0.64092,-0.0121 -1.54013,-0.30851 -1.9983,-0.66486 -0.93639,-0.72822 -2.62394,-3.90941 -2.62394,-4.94634 0,-0.37303 -0.38772,-1.06555 -0.8611,-1.53918 -0.4733,-0.4733 -0.71998,-1.00218 -0.54739,-1.17458 0.17245,-0.17246 -0.1584,-0.97587 -0.73444,-1.78533 -0.57613,-0.80943 -1.04797,-1.73395 -1.04797,-2.05446 0,-0.8432 3.27604,-0.71513 5.50238,0.21525 1.05008,0.43882 2.52946,0.79779 3.2874,0.79779 0.75793,0 1.25735,0.19546 1.10981,0.43435 -0.3858,0.62404 1.04658,4.54432 1.74516,4.77713 0.32322,0.10793 0.58765,0.53464 0.58765,0.94937 0,0.41455 0.23954,0.75346 0.53207,0.75346 0.29255,0 0.49311,0.17949 0.44585,0.39858 -0.0447,0.21973 0.19226,1.07264 0.53206,1.8961 0.93794,2.27328 0.79919,2.48783 -1.64258,2.53918 l -2.26038,0.0447 2.57125,0.70656 c 1.41424,0.38836 2.71062,0.8459 2.88085,1.01617 0.3296,0.3296 -3.76153,0.28297 -6.65887,-0.076 z m -86.305113,-1.75169 c -3.879651,-0.36089 -4.969854,-0.81288 -4.55646,-1.89009 0.454783,-1.18571 -1.200579,-2.35492 -3.334485,-2.35492 -3.467342,0 -3.986697,-0.79408 -3.552103,-5.43128 l 0.376218,-4.01251 2.221031,-0.3264 c 1.221592,-0.17948 2.975256,-0.47203 3.897024,-0.64921 1.370738,-0.2638 1.737631,-0.12838 2.01466,0.74445 0.503328,1.58657 1.732578,1.82272 5.750262,1.1047 2.469755,-0.44137 3.798593,-0.47458 4.169062,-0.10416 0.37047,0.37047 0.08239,2.26337 -0.902925,5.9387 -1.230534,4.58877 -1.607839,5.39499 -2.524879,5.39499 -1.034378,0 -1.038396,0.0319 -0.09837,0.71661 1.395012,1.02 0.522492,1.23921 -3.458974,0.86914 z m 7.014464,-0.0319 c -0.768598,-0.30469 -1.14009,-0.78903 -0.961881,-1.25341 0.159685,-0.41645 0.450313,-1.61122 0.646598,-2.65582 0.196093,-1.04459 0.594668,-1.89923 0.88587,-1.89923 0.291265,0 0.394743,-0.35131 0.229946,-0.78073 -0.164795,-0.42923 -0.06643,-0.92464 0.217813,-1.10042 0.284238,-0.17566 0.416457,-0.48289 0.293182,-0.68212 -0.123285,-0.19929 0.295097,-1.01356 0.929814,-1.80936 0.994264,-1.24702 1.675553,-1.49549 4.929613,-1.79792 l 3.775924,-0.35069 0.384524,2.04872 c 0.229944,1.2265 0.173736,2.11883 -0.139885,2.22332 -0.295737,0.0991 -0.396659,1.12393 -0.231224,2.35716 0.227391,1.69463 0.139883,2.08796 -0.391549,1.75966 -0.518657,-0.32065 -0.624689,-0.019 -0.438814,1.24817 0.162877,1.10916 0.01916,1.67113 -0.415821,1.67113 -0.364084,0 -0.741138,0.20312 -0.838668,0.45159 -0.266993,0.67905 -7.43968,1.14016 -8.875372,0.5704 z m 49.384399,-7.40403 c 0,-0.29254 0.23953,-0.53208 0.53207,-0.53208 0.29255,0 0.53207,0.23954 0.53207,0.53208 0,0.29253 -0.23952,0.53207 -0.53207,0.53207 -0.29254,0 -0.53207,-0.23954 -0.53207,-0.53207 z m -0.79779,-2.65921 c -0.18075,-0.29254 -0.0754,-0.53207 0.23443,-0.53207 0.30978,0 0.56336,0.23953 0.56336,0.53207 0,0.29255 -0.1054,0.53208 -0.23441,0.53208 -0.12904,0 -0.38261,-0.23953 -0.56338,-0.53208 z m 94.51505,-2.28229 c -0.37686,-1.04326 -1.9327,-3.19932 -3.45701,-4.79138 -3.18392,-3.32536 -4.42909,-5.02952 -4.22086,-5.77698 0.0805,-0.2887 -0.0991,-0.37303 -0.39858,-0.18777 -0.3002,0.18522 -0.83458,0.15775 -1.1885,-0.064 -0.42796,-0.26444 -0.20568,-0.52696 0.66481,-0.78418 0.71953,-0.21269 3.28275,-0.97714 5.69602,-1.69912 l 4.38772,-1.31267 -0.0319,6.1873 c -0.0191,3.40296 -0.19609,7.11768 -0.39858,8.25482 l -0.36791,2.06768 -0.68557,-1.89687 z M 47.215309,216.43493 c -1.014833,-1.0441 -1.347104,-1.11116 -2.871588,-0.57935 -0.948212,0.33024 -2.466053,0.5851 -3.373129,0.5653 -1.523845,-0.0319 -1.467315,-0.0926 0.744198,-0.78975 3.188276,-1.00454 5.156877,-0.96457 5.762211,0.11694 0.532071,0.95121 3.222641,1.08159 6.204349,0.30086 1.917819,-0.50206 4.520689,-0.24721 4.520689,0.44264 0,0.27275 -0.658157,0.49821 -1.462524,0.50013 -0.804495,9.7e-4 -3.018308,0.14308 -4.919649,0.31363 -3.096808,0.27785 -3.576567,0.18716 -4.604557,-0.87067 z m 14.443727,0.75652 c 0.877565,-0.13861 2.75093,-0.45095 4.163122,-0.69451 1.686215,-0.29061 2.387614,-0.26251 2.043462,0.0817 -0.288074,0.28808 -2.161629,0.60107 -4.16306,0.69451 -2.001495,0.094 -2.921027,0.0575 -2.043524,-0.0817 z m 69.140084,-0.20311 c -0.58509,-0.25167 -1.94707,-0.47396 -3.02673,-0.49439 -1.07967,-0.0191 -2.11092,-0.27658 -2.29169,-0.56912 -0.48927,-0.79121 3.04981,-0.65408 5.69874,0.221 1.25339,0.4139 2.75763,0.86485 3.34265,1.00199 0.59339,0.13924 0.2408,0.25997 -0.79778,0.27339 -1.02377,0.0122 -2.34017,-0.18141 -2.92519,-0.43243 z m 10.10507,-1.07303 c 1.43041,-0.62724 18.4445,-0.57614 18.05493,0.0511 -0.16543,0.26764 -4.53481,0.47013 -9.70971,0.44904 -5.87852,-0.0256 -9.00975,-0.21206 -8.34522,-0.50397 z m -93.254856,-1.44566 c -1.060688,-0.73845 -1.59449,-0.77379 -3.597646,-0.23826 -3.716708,0.99407 -5.135729,0.69629 -2.070927,-0.43433 3.309702,-1.22129 4.735115,-1.28918 5.584323,-0.26572 0.791272,0.95345 3.211016,1.02 6.817411,0.18778 1.454095,-0.33533 3.087804,-0.42285 3.630542,-0.19418 0.725801,0.30596 0.07282,0.59979 -2.470204,1.10931 -4.579263,0.91794 -6.393281,0.88018 -7.893499,-0.16416 z m 14.926678,0.40623 c 0.504606,-0.32127 2.538677,-0.68562 4.520691,-0.80948 2.844187,-0.17756 3.155381,-0.13282 1.476386,0.21335 -4.800587,0.98947 -6.949504,1.20306 -5.997077,0.59595 z m 67.691298,0.0256 c -0.58508,-0.23314 -2.2294,-0.59659 -3.65417,-0.80628 -1.68259,-0.24784 -2.40869,-0.56337 -2.0719,-0.9003 0.58382,-0.58381 9.71495,1.09506 9.71495,1.78643 0,0.52695 -2.59905,0.47457 -3.98888,-0.0798 z m 8.52043,-1.12123 c 0.43114,-0.69745 19.40151,-0.63882 19.40151,0.0574 0,0.28043 -4.21531,0.4893 -9.87054,0.4893 -6.65523,0 -9.75997,-0.17885 -9.53097,-0.54933 z m -76.082637,-2.13851 c -0.272744,-0.44135 -0.196733,-0.53397 0.224835,-0.27401 0.350669,0.21654 0.931987,0.14946 1.292111,-0.14946 0.93269,-0.7741 6.212587,-1.41181 6.212587,-0.75041 0,0.29191 -0.897494,0.66303 -1.994404,0.82513 -1.096911,0.16224 -2.743202,0.45734 -3.65839,0.65549 -1.10234,0.23888 -1.803296,0.1354 -2.076613,-0.30724 z m 64.371107,-0.0121 c -0.87756,-0.30149 -2.6219,-0.71494 -3.87626,-0.91935 -2.97601,-0.4848 -2.66584,-1.46666 0.41901,-1.3271 l 2.39332,0.1086 -2.10466,-0.52185 c -1.1576,-0.28681 -2.3922,-0.41135 -2.74366,-0.27658 -1.37067,0.52633 -11.95154,-3.2811 -12.33753,-4.43911 -0.27913,-0.83817 0.7656,-0.68557 2.98011,0.43497 1.42152,0.71935 2.82087,0.94974 5.0046,0.82398 2.47588,-0.14245 2.9771,-0.0319 2.73528,0.59721 -0.33981,0.88614 0.64181,1.0577 1.16928,0.20441 0.1929,-0.3117 -0.0511,-0.86288 -0.54804,-1.22428 -0.49438,-0.36153 -0.84882,-1.00358 -0.78801,-1.4272 0.23953,-1.67062 -0.0958,-2.08044 -2.15895,-2.63595 -1.17892,-0.31746 -2.01152,-0.79057 -1.8503,-1.0515 0.1616,-0.26061 -0.13094,-0.74228 -0.64878,-1.06971 -0.67208,-0.42482 -0.75148,-0.67544 -0.27721,-0.8748 0.366,-0.15361 0.6648,-0.61842 0.6648,-1.03283 0,-0.70346 0.64941,-0.86648 3.55421,-0.89229 1.90236,-0.0172 8.64524,1.8894 8.3534,2.3616 -0.1482,0.24004 0.11749,0.43646 0.59083,0.43646 0.47332,0 0.71265,0.23952 0.53207,0.53208 -0.18076,0.29253 0.0447,0.53206 0.50078,0.53206 0.45606,0 0.82915,-0.23953 0.82915,-0.53206 0,-0.29256 0.22548,-0.53208 0.50141,-0.53208 0.50971,0 0.35897,1.69751 -0.23697,2.66118 -0.18013,0.29127 -0.13417,0.52823 0.1028,0.5257 0.23697,-9.8e-4 0.70867,-0.60426 1.04886,-1.33779 0.49822,-1.0745 0.465,-1.48712 -0.17118,-2.12325 -1.16326,-1.16326 -0.0121,-0.96144 1.37546,0.24087 1.35549,1.17553 3.13413,0.93417 2.11999,-0.28776 -0.50908,-0.61299 0.52248,-0.68253 6.50161,-0.4383 3.90839,0.15955 8.53852,0.45562 10.28911,0.65772 3.14145,0.36281 3.18694,0.39219 3.48758,2.24704 0.16736,1.03372 0.45989,2.13083 0.64987,2.43807 0.18971,0.30722 0.48736,1.36626 0.66142,2.35343 0.17373,0.98725 0.541,2.06613 0.81624,2.39752 0.87239,1.05104 -0.071,1.30004 -5.2967,1.39826 -2.80325,0.0511 -3.90022,0.17055 -2.43763,0.26125 4.84895,0.30149 8.33754,0.79006 8.00617,1.12143 -0.17948,0.18013 -4.56776,0.35132 -9.75095,0.38006 -5.1832,0.0319 -11.45831,0.21654 -13.94468,0.41582 -2.72002,0.21782 -5.15624,0.14373 -6.11627,-0.18522 z m 10.62362,-1.01222 c 0.30021,-0.24782 1.26317,-0.5557 2.14074,-0.68388 1.42625,-0.20888 1.38064,-0.24209 -0.43052,-0.313 -1.11421,-0.0447 -1.91321,-0.26187 -1.77563,-0.48415 0.51291,-0.82967 -1.18327,-2.29157 -2.78901,-2.40397 -1.17303,-0.0823 -1.57916,-0.33406 -1.37967,-0.85649 0.23441,-0.61383 0.14052,-0.62214 -0.55251,-0.0447 -0.66116,0.54868 -0.69233,0.78131 -0.14948,1.11678 0.54614,0.33725 0.55125,0.55825 0.0256,1.08401 -0.90356,0.90355 -0.83202,1.69101 0.12004,1.32552 0.42923,-0.1648 0.9067,-0.0958 1.06063,0.15328 0.33342,0.53974 -0.94323,1.09303 -2.54973,1.10438 -0.95244,0.007 -1.01426,0.10281 -0.35579,0.55316 0.86863,0.5934 5.74101,0.19036 6.63481,-0.54804 z m 39.53617,0.15585 c 0.38387,-0.15392 0.84269,-0.13477 1.01942,0.0447 0.17694,0.17692 -0.13738,0.30277 -0.69807,0.27912 -0.61959,-0.0256 -0.74561,-0.15137 -0.3213,-0.32128 z m -75.4225,-3.03682 c 0,-0.11493 0.35897,-0.34684 0.79778,-0.51484 0.43882,-0.16861 0.79773,-0.0739 0.79773,0.20888 0,0.2836 -0.35898,0.51484 -0.79773,0.51484 -0.43881,0 -0.79778,-0.094 -0.79778,-0.20888 z m -0.53207,-2.98203 c 0,-0.87756 -0.25358,-1.59557 -0.56337,-1.59557 -0.30979,0 -0.41326,-0.24336 -0.22932,-0.54039 0.18397,-0.29699 0.61639,-0.37109 0.96214,-0.1635 0.46373,0.27849 0.47841,0.1763 0.0575,-0.39028 -0.31426,-0.42157 -0.50844,-1.42503 -0.43051,-2.22946 0.0951,-0.98373 -0.10987,-1.46258 -0.62469,-1.46258 -0.890339,0 -1.020839,-0.84338 -0.20822,-1.34557 0.37684,-0.23303 0.34236,-0.60432 -0.10732,-1.14617 -0.564639,-0.68027 -0.475859,-0.77367 0.58829,-0.61748 1.51854,0.22299 2.70423,3.17104 2.80126,6.96511 0.0383,1.38945 0.30915,2.52628 0.60744,2.52628 0.77403,0 -1.38447,1.5582 -2.18679,1.57865 -0.38772,0.0122 -0.66481,-0.64775 -0.66481,-1.57865 z m 9.83922,-1.12329 c -0.87762,-0.61383 -1.1572,-0.97139 -0.62148,-0.79427 0.5359,0.17694 1.43333,0.32193 1.99446,0.32193 0.56082,0 1.0202,0.35897 1.0202,0.79773 0,1.06917 -0.4963,1.00172 -2.39329,-0.32578 z m 68.77441,0.75997 c 0.38389,-0.15393 0.84264,-0.13477 1.01938,0.0447 0.17693,0.17693 -0.13739,0.30275 -0.69801,0.27912 -0.61958,-0.0256 -0.74568,-0.15138 -0.3213,-0.32128 z m -99.565045,-3.04919 c 0.178208,-0.46308 0.556982,-0.84225 0.842499,-0.84225 0.699039,0 0.261244,1.20877 -0.533988,1.47377 -0.388354,0.12973 -0.50716,-0.11372 -0.308511,-0.6317 z m 60.308095,-5.65577 c -1.93538,-0.20766 0.0511,-0.26564 4.51666,-0.13188 4.38547,0.13148 8.0751,0.34071 8.19927,0.46482 0.33341,0.33317 -8.71562,0.0962 -12.71593,-0.33303 z m 15.032,-0.35476 c 0.80839,-0.12218 2.00513,-0.11896 2.6592,0.007 0.65414,0.12625 -0.007,0.22626 -1.46986,0.2223 -1.46259,-0.005 -1.9978,-0.10725 -1.18934,-0.2295 z M 45.437565,194.40734 c 3.51231,-0.93047 4.667857,-1.02034 3.955085,-0.30756 -0.281685,0.2818 -1.945221,0.64068 -3.696324,0.79744 l -3.18394,0.28502 z m 72.065205,-0.41884 c -4.20157,-0.567 -5.32046,-0.84234 -4.94565,-1.21713 0.33087,-0.33075 7.54789,0.57481 9.99822,1.25447 1.83849,0.50996 1.84176,0.51604 0.26637,0.49068 -0.87759,-0.0135 -3.27088,-0.25173 -5.31849,-0.52805 z m -65.969953,-0.36694 c 0.19226,-0.3112 1.213096,-0.56575 2.268362,-0.56575 2.347054,0 2.144699,0.26962 -0.571036,0.76116 -1.393669,0.25216 -1.935258,0.18983 -1.697135,-0.1954 z m 91.141523,0.005 c -2.82897,-0.16728 -5.31497,-0.47657 -5.5244,-0.6873 -0.54995,-0.55366 10.0382,0.157 10.64149,0.71429 0.27785,0.25665 0.3973,0.424 0.26636,0.37187 -0.13162,-0.0523 -2.55401,-0.2316 -5.38301,-0.39888 z m 7.41024,0.11749 c 0.66159,-0.12704 1.6189,-0.12233 2.12739,0.0108 0.50843,0.13323 -0.0319,0.23722 -1.20283,0.23128 -1.17003,-0.005 -1.58611,-0.11478 -0.92456,-0.24202 z m -77.2569,-0.68728 c 0.877503,-0.2233 2.672493,-0.4068 3.988811,-0.40777 l 2.393299,-9.8e-4 -2.127391,0.44004 c -1.170046,0.24202 -2.965037,0.42554 -3.988812,0.40777 l -1.861483,-0.0319 1.595576,-0.40599 z m -11.534451,-0.89494 c 0.383882,-0.15362 0.842628,-0.13472 1.019366,0.0421 0.176932,0.17673 -0.137329,0.30244 -0.698079,0.27932 -0.61958,-0.0256 -0.745539,-0.15145 -0.321287,-0.3213 z m 53.960211,-0.67871 c -2.11468,-0.19482 -4.00938,-0.51872 -4.21045,-0.71978 -0.67119,-0.67122 7.49639,-0.29509 9.38495,0.43218 l 1.86142,0.71684 -1.59551,-0.0377 c -0.8775,-0.0204 -3.32574,-0.19693 -5.44041,-0.39175 z m -38.968829,-1.08603 c 0,-0.29254 0.373025,-0.53182 0.829213,-0.53182 0.456062,0 0.681218,0.23933 0.500775,0.53182 -0.180764,0.29247 -0.553789,0.53187 -0.829215,0.53187 -0.275297,0 -0.500773,-0.23932 -0.500773,-0.53187 z m 3.09138,-0.36332 c 0.383884,-0.15361 0.842627,-0.13471 1.01943,0.0421 0.176932,0.17675 -0.137328,0.30246 -0.698079,0.27933 -0.61958,-0.0256 -0.745603,-0.15143 -0.321288,-0.32129 z M 161.38014,189.882 c 0,-0.28334 0.35897,-0.37735 0.79778,-0.20899 0.43882,0.16831 0.7978,0.40017 0.7978,0.51515 0,0.11492 -0.35898,0.20899 -0.7978,0.20899 -0.43881,0 -0.79778,-0.23185 -0.79778,-0.51515 z m 1.86781,-3.0748 c -0.20759,-1.09693 -0.47906,-2.7949 -0.60234,-3.77327 -0.12328,-0.97835 -0.69794,-3.18461 -1.27679,-4.90279 -1.25793,-3.73403 -1.37883,-6.34862 -0.29317,-6.34862 0.41709,0 0.84032,0.41882 0.94009,0.93075 0.11951,0.61355 0.62086,0.0242 1.47167,-1.72852 1.08163,-2.22929 1.34487,-3.77709 1.62789,-9.57323 0.18524,-3.80272 0.37877,-5.99002 0.4286,-4.86067 l 0.0913,2.05334 1.09187,-1.25558 c 0.97459,-1.12078 1.06114,-1.14137 0.80678,-0.19187 -0.95498,3.56418 -2.91962,13.25395 -3.23502,15.9554 -0.20502,1.75509 -0.3577,6.00322 -0.33917,9.44028 0.019,3.43707 -0.0512,6.2492 -0.1501,6.2492 -0.10095,0 -0.35323,-0.8975 -0.56146,-1.99442 z m -49.9684,0.86456 c -3.36918,-0.78962 -2.97016,-1.12584 0.97171,-0.81877 2.01433,0.157 3.91695,0.53988 4.22814,0.85105 0.70154,0.70153 -2.14412,0.68385 -5.19985,-0.0319 z m 46.7103,-0.16616 c -0.1616,-0.42098 -0.69149,-0.64179 -1.18001,-0.49169 -0.7212,0.22165 -0.70747,0.15771 0.0734,-0.34243 0.75779,-0.48531 0.82813,-0.77404 0.33406,-1.36976 -0.51163,-0.61664 -0.39027,-0.75485 0.66576,-0.75485 1.09883,0 1.27614,0.23316 1.18448,1.55751 -0.0793,1.14076 0.0906,1.4813 0.63426,1.27271 0.40817,-0.15668 0.7421,-0.0198 0.7421,0.30397 0,0.86783 -2.11162,0.71685 -2.45397,-0.17546 z m -81.124022,-0.96601 c 0.267633,-0.26796 1.053349,-0.3982 1.745233,-0.28937 1.064589,0.16749 0.989665,0.2424 -0.487359,0.48724 -1.056926,0.17521 -1.553036,0.0971 -1.258002,-0.19787 z m 33.087042,-0.99643 c -1.58982,-0.26624 -2.97346,-0.56688 -3.07477,-0.66818 -0.3941,-0.39398 -0.61574,-2.54223 -0.33726,-3.26754 0.35324,-0.92133 2.31424,-0.0887 2.31424,0.98272 0,0.3658 0.41901,0.69454 0.93071,0.73054 2.1523,0.15144 5.92483,1.52306 5.56623,2.02394 -0.51609,0.72068 -1.96253,0.77388 -5.39876,0.19853 z m -1.63,-3.12368 c 0,-0.29248 -0.25357,-0.53181 -0.56337,-0.53181 -0.30979,0 -0.41518,0.23933 -0.23442,0.53181 0.18077,0.29255 0.43435,0.53188 0.56338,0.53188 0.12902,0 0.23441,-0.23933 0.23441,-0.53188 z m 14.4206,3.22865 c -0.45733,-0.28258 -0.51162,-0.55666 -0.15393,-0.77751 0.3034,-0.1876 0.71207,-0.082 0.90785,0.23478 0.48863,0.79039 0.0996,1.07021 -0.75354,0.54276 z m 32.38189,-0.0377 c 0,-0.29248 0.23953,-0.53182 0.53206,-0.53182 0.29255,0 0.53208,0.23934 0.53208,0.53182 0,0.29253 -0.23953,0.53188 -0.53208,0.53188 -0.29253,0 -0.53206,-0.23935 -0.53206,-0.53188 z m -72.862999,-1.80456 c 0,-0.11493 0.358971,-0.34676 0.797787,-0.51513 0.438816,-0.16831 0.797789,-0.0743 0.797789,0.20899 0,0.28334 -0.358973,0.51514 -0.797789,0.51514 -0.438816,0 -0.797787,-0.0942 -0.797787,-0.209 z m 15.26591,-0.37794 c 0.42093,-0.42068 0.865179,-0.42528 1.568949,-0.0153 0.86089,0.50039 0.78846,0.57276 -0.58701,0.58692 -1.144169,0.0122 -1.410019,-0.14282 -0.981989,-0.57076 z m -0.90604,-1.21761 c 0,-0.11493 0.35896,-0.34676 0.79777,-0.51515 0.43883,-0.16829 0.797789,-0.0742 0.797789,0.20901 0,0.28334 -0.358959,0.51514 -0.797789,0.51514 -0.43881,0 -0.79777,-0.0942 -0.79777,-0.209 z m -12.232479,-1.91834 c 0,-0.2925 0.25358,-0.53188 0.563371,-0.53188 0.309789,0 0.415181,0.23933 0.234416,0.53188 -0.180763,0.29252 -0.434343,0.5318 -0.563369,0.5318 -0.12903,0 -0.234418,-0.23933 -0.234418,-0.5318 z m 12.764289,0 c 0,-0.2925 0.35897,-0.53188 0.79778,-0.53188 0.438819,0 0.797789,0.23933 0.797789,0.53188 0,0.29252 -0.35897,0.5318 -0.797789,0.5318 -0.43881,0 -0.79778,-0.23933 -0.79778,-0.5318 z m -61.295332,-3.54339 c 0.36536,-0.14754 0.664803,-0.60732 0.664803,-1.02169 0,-0.43921 0.498855,-0.73596 1.196681,-0.71147 0.658158,0.0229 0.910909,0.15821 0.561453,0.30027 -0.349392,0.14211 -0.503328,0.60183 -0.342365,1.02169 0.214616,0.55844 -0.114967,0.75216 -1.226511,0.72143 -0.835729,-0.023 -1.220315,-0.16273 -0.854635,-0.31023 z m 101.981661,-4.58322 c -8.82951,-0.62597 -26.11065,-2.89858 -22.6035,-2.97252 1.60885,-0.0339 4.36113,0.15527 6.11625,0.42046 3.26366,0.49313 6.78,0.80859 15.68947,1.40765 2.7789,0.18684 5.89023,0.40049 6.91399,0.47485 1.02378,0.0742 3.15787,0.16921 4.74233,0.21084 1.5844,0.0414 2.72807,0.22847 2.54142,0.41512 -0.49758,0.49771 -6.70965,0.51795 -13.39996,0.0435 z m -52.386922,-3.03099 c 0,-1.37113 2.445804,-2.06289 6.5151,-1.84275 2.512413,0.13594 4.121853,0.0179 4.121853,-0.30289 0,-0.28923 0.35897,-0.52588 0.79772,-0.52588 0.43882,0 0.7978,0.20274 0.7978,0.45058 0,0.24782 0.538459,0.69621 1.196679,0.99647 0.86338,0.39383 -0.56401,0.47163 -5.126419,0.2793 -5.466979,-0.23051 -6.388619,-0.14939 -6.807503,0.59909 -0.530795,0.94877 -1.49523,1.17196 -1.49523,0.34606 z m -58.142432,-5.33074 c -0.47586,-1.13024 -0.188428,-4.78137 0.376221,-4.78424 0.259328,-9.7e-4 0.334061,-1.13919 0.16671,-2.52865 -0.19801,-1.64288 -0.143077,-2.15431 0.156492,-1.46257 0.25358,0.58501 0.477778,1.60218 0.498219,2.26034 0.03833,1.26645 1.101061,1.71508 1.101061,0.46539 0,-0.61325 2.117421,-1.39609 3.776105,-1.39609 0.477139,0 0.03832,3.20408 -0.522491,3.8145 -0.180764,0.19666 -1.251293,0.52715 -2.378986,0.7345 -1.970521,0.3623 -2.026795,0.33278 -1.443874,-0.75637 0.371109,-0.69391 0.402407,-1.1334 0.07984,-1.1334 -0.289351,0 -0.672921,0.89748 -0.851897,1.99443 -0.619579,3.79496 -0.581892,3.6854 -0.957601,2.79218 z M 161.30098,158.1288 c -1.01821,-0.27038 -1.84997,-3.77767 -1.07877,-4.54891 0.7105,-0.71043 2.6043,0.37731 2.98338,1.71352 0.16607,0.58534 0.43754,1.54294 0.60361,2.12795 0.3066,1.08207 -0.37431,1.27416 -2.50832,0.70744 z m -11.48462,-4.55546 c -0.0512,-0.65382 -0.32575,-1.2676 -0.6151,-1.36398 -0.59466,-0.19819 -0.16799,-1.702 0.48288,-1.702 0.40177,0 1.59067,2.84184 1.59067,3.80228 0,1.04508 -1.37689,0.3501 -1.4587,-0.7363 z m 10.88787,-1.25991 c -0.21336,-0.21329 -0.38773,-0.75479 -0.38773,-1.20331 0,-0.59863 0.15714,-0.65817 0.59148,-0.22381 0.32575,0.32543 0.50014,0.86691 0.38771,1.2033 -0.11237,0.33642 -0.37813,0.43709 -0.59146,0.22382 z m -66.868613,-2.29442 c 0,-1.14644 0.671132,-2.08407 1.314854,-1.83703 0.89149,0.3421 0.3973,2.32538 -0.579342,2.32538 -0.404324,0 -0.735698,-0.21973 -0.735698,-0.48832 z m 9.246423,0.0549 c 0.18331,-0.29674 0.0447,-0.63578 -0.30851,-0.75344 -0.3628,-0.12098 -0.42221,-0.34295 -0.1367,-0.51074 0.27849,-0.16322 0.979,-0.12489 1.55751,0.0851 1.00818,0.36593 0.99996,0.40949 -0.19737,1.0502 -0.68696,0.36767 -1.09895,0.42566 -0.91556,0.12893 z m 57.00268,-1.00627 c -0.28873,-0.75798 -0.22741,-0.81906 0.29764,-0.2977 0.36345,0.36075 0.52695,0.78992 0.36345,0.95366 -0.16417,0.16377 -0.46117,-0.13134 -0.66085,-0.65595 z m -60.930679,-1.23626 c 0,-0.28336 0.35897,-0.51515 0.79778,-0.51515 0.438819,0 0.797789,0.0941 0.797789,0.20899 0,0.11492 -0.35897,0.34677 -0.797789,0.51515 -0.43881,0.16836 -0.79778,0.0743 -0.79778,-0.20899 z m 60.342769,-0.55054 c -0.1929,-0.31196 -0.23635,-0.68129 -0.0972,-0.82071 0.13924,-0.13938 0.39538,0.11587 0.56848,0.56726 0.35961,0.93717 0.0512,1.10203 -0.47138,0.25351 z m -0.53207,-2.65924 c -0.19291,-0.31196 -0.23634,-0.68129 -0.0971,-0.8207 0.13924,-0.13938 0.39537,0.11586 0.56848,0.56727 0.35961,0.93716 0.0511,1.102 -0.4714,0.2535 z m -60.465859,-1.25557 c -0.80214,-0.58656 -0.61511,-0.9277 1.795239,-3.27191 3.12173,-3.03621 11.02391,-12.47319 12.07796,-14.42377 0.39602,-0.73261 0.77633,-1.71679 0.84538,-2.18704 0.069,-0.47023 0.86683,-1.04711 1.77295,-1.28191 0.90612,-0.23479 2.11582,-1.0223 2.68821,-1.74999 0.95663,-1.21613 1.39099,-1.32307 5.37435,-1.32307 2.38355,0 6.05866,-0.33706 8.16709,-0.74905 5.78302,-1.12999 8.80491,-1.40799 9.15462,-0.84219 0.17311,0.28021 0.1616,1.32837 -0.0256,2.32926 -0.32959,1.7584 -0.50907,1.8754 -5.30602,3.46607 -5.54051,1.8372 -7.40122,2.02132 -8.57408,0.84844 -1.54876,-1.54875 -3.52324,-0.96397 -6.31485,1.87029 -1.44534,1.46742 -3.86968,3.42063 -5.38746,4.34047 -1.51771,0.91984 -3.0374,2.19167 -3.37703,2.8263 -0.33981,0.6346 -1.33663,1.57867 -2.2156,2.09787 -1.49178,0.88121 -6.16673,4.95498 -8.67627,7.56055 -0.913209,0.94814 -1.256029,1.03216 -1.997849,0.48965 z m 16.507699,-20.26291 c -0.16353,-0.16378 -0.46118,0.13147 -0.66092,0.65594 -0.28871,0.75799 -0.2274,0.81908 0.29765,0.29772 0.36345,-0.36076 0.52697,-0.78992 0.36345,-0.95366 z M 81.461098,134.4859 c 0.360888,-0.36352 0.78993,-0.5269 0.953704,-0.36313 0.163518,0.16376 -0.131587,0.46111 -0.655987,0.66086 -0.757996,0.28864 -0.819058,0.22752 -0.297654,-0.29778 z m 13.342603,-2.27956 c -0.783671,-0.40892 -1.515227,-0.65317 -1.6256,-0.54286 -0.110496,0.11035 -1.000137,-0.52964 -1.977351,-1.4222 -1.171642,-1.07019 -2.112318,-1.51813 -2.762107,-1.31536 -0.542292,0.16907 -1.464059,0.45503 -2.049083,0.63543 -0.77096,0.23772 -1.063695,0.0827 -1.063695,-0.56326 0,-0.49016 -0.209507,-0.76187 -0.465004,-0.60386 -0.255496,0.15803 -1.552779,-0.72532 -2.882383,-1.96304 -1.329603,-1.23771 -2.735921,-2.53807 -3.125041,-2.88971 -0.388994,-0.35163 -1.016173,-1.00979 -1.39335,-1.46258 -1.199684,-1.44012 -1.737504,-0.93183 -1.379937,1.30415 0.315539,1.97389 0.249109,2.13031 -0.924451,2.16808 -0.695526,0.0224 -1.646609,0.11547 -2.113466,0.20681 -0.466918,0.0913 -1.275821,-0.40233 -1.797609,-1.09716 -0.662759,-0.88262 -1.292557,-1.17705 -2.089705,-0.97698 -0.985131,0.24726 -1.272691,-0.10104 -2.104908,-2.54945 -0.530156,-1.55969 -0.883123,-3.54661 -0.78431,-4.41539 0.212061,-1.86475 0.704148,-1.85929 5.539738,0.0614 4.097078,1.62742 6.147373,1.61114 9.775358,-0.0776 4.609221,-2.14552 4.600661,-2.09674 0.916977,-5.21903 -2.458323,-2.08364 -3.804725,-3.78619 -5.334766,-6.74567 -1.817474,-3.51552 -2.022447,-4.29508 -1.831335,-6.964726 0.160325,-2.244915 0.587004,-3.493333 1.682891,-4.930195 0.807114,-1.058238 1.602667,-2.756956 1.767908,-3.774929 0.299569,-1.846897 1.111922,-2.247901 3.804472,-1.878293 0.39474,0.05424 0.572949,-0.136311 0.39538,-0.423424 -0.176932,-0.287114 -0.01916,-0.662092 0.345558,-0.833337 0.530155,-0.246931 0.531433,-0.375262 0.0062,-0.620146 -0.479694,-0.2242 -0.510992,-0.588479 -0.114333,-1.329633 0.300209,-0.561445 0.357057,-1.020786 0.125826,-1.020786 -0.231223,0 -0.73353,-0.706637 -1.115752,-1.570308 -0.382606,-0.863656 -1.171323,-1.721446 -1.753407,-1.906175 -0.72823,-0.231105 -0.89954,-0.529268 -0.54932,-0.955975 0.27977,-0.341092 0.418378,-1.386774 0.307236,-2.323856 -0.123282,-1.04365 0.108588,-2.014374 0.599778,-2.505381 1.066697,-1.066717 4.635408,-1.737664 4.907129,-0.922575 0.111777,0.336113 0.841861,0.614722 1.621892,0.619203 0.780095,0.004 1.161551,0.18395 0.847608,0.398892 -1.273329,0.87192 -1.191443,2.028424 0.151383,2.139569 1.952824,0.161597 2.477869,-0.383496 1.456523,-1.512076 -0.491194,-0.542994 -0.930264,-1.656057 -0.975167,-2.473474 -0.04471,-0.817418 -0.223561,-1.725538 -0.397298,-2.01805 -0.530155,-0.893532 -1.07136,-3.789461 -0.567841,-3.037622 0.31426,0.469355 1.117799,0.579987 2.549598,0.350997 1.708,-0.273132 2.274684,-0.130941 3.096496,0.777273 0.638736,0.70548 1.655868,1.111556 2.785038,1.111556 0.97843,0 1.73156,0.179482 1.67363,0.398892 -0.0575,0.21941 0.0817,0.948855 0.30979,1.621068 0.44904,1.32195 -0.36856,2.76667 -1.56575,2.76667 -0.50141,0 -0.62277,-0.564269 -0.42923,-1.994429 0.25804,-1.90654 0.23186,-1.947559 -0.59084,-0.930729 -0.47331,0.585021 -0.75193,1.482524 -0.61894,1.99443 0.13286,0.51188 0.0128,0.930728 -0.2721,0.930728 -0.282325,0 -0.378781,0.218442 -0.21334,0.485437 0.16479,0.266996 1.07659,0.420747 2.02583,0.341671 0.94917,-0.07913 3.787609,-0.177893 6.307699,-0.219545 3.7618,-0.06191 4.83367,-0.273764 5.98833,-1.182006 0.83285,-0.655107 1.24566,-1.360047 1.01221,-1.728498 -0.21724,-0.342249 -0.43186,-1.30969 -0.47785,-2.149931 -0.0447,-0.840254 -0.40239,-1.724731 -0.79216,-1.96551 -0.38963,-0.240808 -0.54293,-0.602907 -0.34173,-0.804687 0.48992,-0.489917 2.79111,1.05914 4.66856,3.142671 1.48852,1.651846 1.54991,2.083547 0.73507,5.16278 -0.17183,0.650195 -1.16373,0.826878 -4.87016,0.867681 -7.24863,0.0798 -17.456727,2.340313 -16.917184,3.74621 0.173103,0.450515 -0.206952,0.685885 -1.106617,0.685885 -0.999182,0 -1.287,0.215884 -1.06376,0.797769 0.304041,0.792831 -0.427957,1.057996 -2.452638,0.888298 -0.511631,-0.04279 -0.930774,0.158541 -0.930774,0.447566 0,0.289093 0.239528,0.525567 0.532072,0.525567 0.292543,0 0.532072,0.358964 0.532072,0.79777 0,0.438738 -0.358973,0.797756 -0.797789,0.797756 -0.92266,0 -0.989282,0.490684 -0.309151,2.278933 0.607443,1.597275 3.81782,3.732727 4.534487,3.016065 1.251805,-1.25185 5.614083,0.260281 5.614083,1.946105 0,0.957832 0.74133,0.930622 2.73503,-0.100392 0.890219,-0.460337 1.755899,-0.699664 1.923759,-0.53181 0.16799,0.167855 -0.0191,0.30512 -0.42156,0.30512 -0.45544,0 -0.53846,0.184407 -0.22165,0.493874 0.54549,0.532901 5.54555,-0.206437 6.06032,-0.896076 0.16223,-0.217552 0.88082,-0.460917 1.5966,-0.540826 0.71571,-0.0798 1.69183,-0.498719 2.16923,-0.93073 0.47713,-0.43205 1.15829,-0.785496 1.51311,-0.785496 0.35513,0 1.15899,-0.47868 1.78693,-1.063702 0.6279,-0.585021 1.60874,-1.063688 2.17952,-1.063688 0.57039,0 1.35931,-0.418822 1.75238,-0.930729 0.66749,-0.869241 0.73685,-0.852016 1.0501,0.260792 0.26507,0.94218 0.60105,1.124906 1.60426,0.873077 1.51471,-0.380186 1.68634,0.559788 0.42987,2.353904 -0.4618,0.659025 -0.91525,2.016448 -1.00819,3.016509 -0.31235,3.357184 -3.15251,6.431276 -8.2213,8.897557 -1.62879,0.7925 -2.60243,1.45419 -2.16367,1.47043 0.85419,0.0319 0.4171,0.33265 -3.78378,2.60538 -1.28284,0.69405 -2.76063,1.71121 -3.28388,2.26035 -0.57297,0.60105 -1.68405,0.99842 -2.792279,0.99842 -1.50729,0 -1.84071,0.19953 -1.84071,1.10168 0,1.51334 1.02658,2.40809 3.672439,3.20081 1.96196,0.58783 2.44484,0.55577 3.81405,-0.253 0.95741,-0.56555 2.00514,-0.78717 2.6916,-0.56932 0.85821,0.27242 1.02121,0.18613 0.68931,-0.36504 -0.36088,-0.59915 -0.2887,-0.60373 0.42286,-0.0268 0.76828,0.62251 0.77767,0.92647 0.0901,2.92517 -0.91366,2.65676 -4.35111,6.75582 -5.66308,6.7531 -0.51227,-9.8e-4 -0.93072,0.23741 -0.93072,0.52995 0,0.73358 -1.38211,0.66643 -2.735979,-0.13296 -0.90074,-0.53188 -1.17413,-0.53188 -1.3667,0 -0.13223,0.36562 -0.56466,0.66481 -0.96055,0.66481 -0.42093,0 -0.79396,0.71795 -0.89845,1.7285 l -0.17885,1.72851 -0.86441,-1.92951 c -0.857707,-1.91454 -2.036624,-3.14295 -2.036624,-2.12212 0,0.29255 0.239523,0.67976 0.532063,0.86054 0.29255,0.18083 0.532073,0.77331 0.532073,1.31669 0,0.54338 0.235701,1.06775 0.523768,1.16527 0.28807,0.0975 0.75665,1.25428 1.04109,2.5706 0.28423,1.3163 0.67489,3.05148 0.86773,3.85588 0.39602,1.65139 0.0447,1.77698 -1.9962,0.71258 z m -7.131038,-3.82642 c 0.973571,-0.3736 0.608721,-1.27389 -0.51674,-1.27389 -0.42157,0 -0.766363,0.35898 -0.766363,0.79777 0,0.89475 0.09772,0.93098 1.283103,0.47612 z m 2.321505,-2.10182 c 0.746433,-0.5228 1.181991,-1.38077 1.181991,-2.32818 0,-3.46885 -3.995773,-3.48777 -5.122066,-0.0242 -0.566563,1.74198 -0.519936,1.88547 0.797723,2.47168 1.858035,0.8264 1.788476,0.82904 3.142352,-0.11923 z m 2.066069,-7.8146 c -0.147548,-0.36559 -0.268272,-0.0664 -0.268272,0.66483 0,0.7313 0.120735,1.03046 0.268272,0.66482 0.147557,-0.36563 0.147557,-0.96399 0,-1.32965 z m -0.520567,-2.62597 c -0.16991,-0.42426 -0.29574,-0.29823 -0.321291,0.32127 -0.01916,0.56063 0.102193,0.87478 0.27913,0.69805 0.176935,-0.17673 0.195456,-0.63542 0.0447,-1.01937 z M 83.427335,80.363782 c 0.344919,-0.558254 -0.982002,-1.788896 -1.437615,-1.333267 -0.410711,0.410707 0.132219,1.804855 0.702615,1.804855 0.243999,0 0.574867,-0.212183 0.735,-0.471588 z m 3.494233,50.522088 c 0,-0.26124 0.346836,-0.60801 0.770706,-0.77068 0.514825,-0.19763 0.672593,-0.0402 0.475223,0.47496 -0.322565,0.84125 -1.245674,1.06033 -1.245674,0.29574 z m 18.171482,0.008 c 0.27338,-0.72103 4.22509,-4.96932 4.43088,-4.76351 0.31172,0.31171 -3.52802,5.23099 -4.08302,5.23099 -0.28872,0 -0.4452,-0.21034 -0.34812,-0.4675 z m 7.88903,-9.84662 c 0,-0.11493 0.37174,-0.35157 0.82539,-0.52575 0.47329,-0.18166 0.68676,-0.0924 0.50077,0.20899 -0.31235,0.50538 -1.32585,0.7475 -1.32585,0.31676 z m 5.89233,-7.54708 c 0.0256,-0.61957 0.15137,-0.74558 0.32128,-0.32128 0.15394,0.38394 0.13477,0.84265 -0.0447,1.01939 -0.17693,0.17674 -0.30276,-0.1374 -0.27914,-0.69805 z m 4.56994,-16.44292 c 0.1469,-2.047613 0.0447,-5.106621 -0.23316,-6.797788 -0.55251,-3.397744 0.004,-4.567395 0.8811,-1.849615 1.17604,3.645966 1.20996,5.92354 0.13667,9.179256 l -1.052,3.191077 z M 93.414627,86.485662 c -1.200384,-0.648634 -1.203258,-0.672603 -0.190348,-1.588985 0.573595,-0.518784 0.917176,-1.354491 0.777416,-1.888925 -0.277851,-1.062773 1.528436,-1.640285 5.130556,-1.640285 2.421729,0 2.816779,0.347928 2.042379,1.798423 -1.739999,3.258822 -5.162629,4.723112 -7.759684,3.319772 z M 68.315101,69.001787 c 0.0063,-0.96767 0.106664,-1.043987 0.523768,-0.398892 0.666336,1.031121 0.666336,1.595539 0,1.595539 -0.292544,0 -0.528238,-0.538512 -0.523768,-1.196647 z m 29.24342,-0.865609 c 0,-1.044511 1.60055,-1.672381 3.919639,-1.537564 2.66131,0.154693 3.06569,0.580351 1.39885,1.472444 -0.72121,0.385999 -1.06371,0.392001 -1.06371,0.01858 0,-0.706002 -2.490579,-0.721923 -2.925179,-0.01858 -0.4056,0.656009 -1.3296,0.701279 -1.3296,0.06513 z m -31.080504,-3.65509 c -0.527599,-1.681963 -1.661684,-4.453761 -2.519961,-6.159556 -1.835486,-3.648012 -1.95046,-7.064866 -0.23314,-6.917776 0.929432,0.07953 0.974591,-0.192657 0.617024,-3.722929 -0.817843,-8.082029 -0.829981,-11.090755 -0.06515,-16.204454 0.81375,-5.441986 2.690186,-10.37573 4.605515,-12.109044 1.26407,-1.143986 2.011134,-0.609806 0.817143,0.584258 -1.077052,1.077018 -1.102149,1.523256 -0.06387,1.124616 0.438816,-0.168372 0.796575,-0.253835 0.795105,-0.189832 -0.0017,0.06393 -0.704786,2.077109 -1.562936,4.473685 -2.352233,6.568846 -2.837742,9.862093 -1.894379,12.851025 0.574868,1.821669 0.825958,5.994337 0.956517,15.899031 0.09773,7.386012 0.02556,13.429122 -0.15777,13.429122 -0.184597,0 -0.766936,-1.376142 -1.294671,-3.058119 z m 21.773218,-2.260349 c 0.180764,-0.292538 0.434345,-0.53181 0.563371,-0.53181 0.129029,0 0.234417,0.23934 0.234417,0.53181 0,0.292551 -0.253579,0.531877 -0.56337,0.531877 -0.309789,0 -0.415181,-0.239326 -0.234418,-0.531877 z m 39.136435,-3.329771 c -0.0512,-2.372489 -1.46884,-11.51179 -2.22506,-14.375251 -0.29253,-1.108547 -0.6202,-4.459179 -0.72841,-7.445856 -0.1214,-3.372897 -0.51738,-6.185953 -1.04467,-7.42474 -0.46691,-1.096929 -0.69629,-1.994424 -0.51034,-1.994424 0.18586,0 0.0383,-0.361018 -0.32768,-0.802272 -0.40369,-0.486018 -0.54803,-1.529652 -0.36665,-2.647448 0.1648,-1.014851 0.13606,-1.812492 -0.0645,-1.772525 -0.4401,0.08801 -2.28793,-0.680918 -3.02273,-1.258039 -0.29256,-0.229693 -1.30752,-1.039041 -2.25547,-1.798471 -0.94795,-0.759433 -2.86264,-1.958696 -4.25477,-2.665027 -2.29118,-1.162459 -2.38954,-1.284459 -1.03726,-1.286471 2.00494,-0.003 1.37348,-0.858602 -0.95619,-1.295646 -1.02704,-0.192645 -1.86736,-0.559795 -1.86736,-0.815808 0,-0.256007 -0.71642,-0.622835 -1.59207,-0.815161 -1.43398,-0.314963 -1.51062,-0.431022 -0.77236,-1.169267 0.92872,-0.928769 0.66486,-1.5519629 -0.38324,-0.904362 -1.07743,0.665921 -2.30637,0.614533 -2.9975,-0.125262 -0.50332,-0.5385227 -0.30786,-0.6347809 0.96138,-0.4741385 1.75417,0.2220275 1.8328,0.1261501 1.06817,-1.3025843 -0.50205,-0.9383108 -0.38837,-0.9480958 2.68559,-0.2309685 1.76548,0.4118605 3.9727,1.1432566 4.90495,1.6253271 3.01127,1.5572142 8.75082,6.5468482 9.4374,8.2043692 0.37686,0.909223 0.95671,1.50064 1.33094,1.357012 0.36473,-0.140012 1.16834,0.215831 1.78549,0.790755 1.29202,1.203746 1.53367,2.007635 0.29444,0.978992 -0.45541,-0.377878 -0.7762,-0.466983 -0.71333,-0.198073 0.0639,0.26891 -0.0658,0.899845 -0.28616,1.402093 -0.22037,0.502243 -0.27721,1.220252 -0.1265,1.595544 0.15075,0.375325 0.29318,0.12973 0.31618,-0.545676 0.0319,-0.84775 0.24783,-1.09732 0.70675,-0.805913 0.36601,0.232182 0.8443,0.425786 1.06371,0.430256 0.21974,0.0044 0.44137,0.247447 0.49375,0.539992 0.0511,0.292543 0.39218,0.828825 0.75492,1.191795 0.68997,0.69 1.03668,3.57301 1.55138,12.90215 0.23186,4.203665 0.11492,6.131494 -0.47458,7.797179 -1.07289,3.034001 -0.76809,5.986559 0.74445,7.211361 1.03878,0.841102 1.12411,1.162263 0.60935,2.292135 -0.65272,1.432543 -1.418,1.692648 -1.91002,0.649159 -0.17246,-0.365611 -0.19993,-0.05558 -0.064,0.689505 0.13859,0.744868 0.0383,2.061192 -0.21718,2.92516 l -0.46882,1.570844 -0.0447,-2.000151 z m -49.375072,0.670086 c -0.658478,-0.273629 -1.509281,-0.377884 -1.890546,-0.231548 -0.78399,0.300854 -3.980827,-1.714799 -4.793242,-3.022229 -0.380689,-0.613065 -0.318732,-1.117894 0.215894,-1.753475 2.030751,-2.413494 3.504454,-3.464452 5.733148,-4.088446 l 2.437054,-0.682332 -1.832931,-0.474965 c -1.241329,-0.321674 -1.894954,-0.288514 -2.025385,0.102544 -0.105397,0.317647 -0.591474,0.585531 -1.078898,0.595234 -1.204728,0.02423 -3.060974,1.64634 -3.512883,3.07011 -0.203759,0.641838 -0.567841,1.16696 -0.809477,1.16696 -0.707086,0 -1.027351,-1.361312 -0.511632,-2.175595 0.261244,-0.412241 0.485443,-1.587208 0.499496,-2.611022 0.01278,-1.172708 0.489914,-2.389568 1.281889,-3.288773 1.14916,-1.304916 1.627449,-1.437089 5.577296,-1.541511 2.376181,-0.06258 4.475533,0.04088 4.665175,0.230649 0.526961,0.527281 2.548641,0.410263 3.140817,-0.18185 0.328315,-0.328503 1.1429,-0.349965 2.163991,-0.05685 2.076612,0.595563 4.657641,2.777392 3.865086,3.267228 -0.318093,0.196668 0.159047,0.505058 1.059869,0.685252 1.992035,0.39838 2.021999,0.950161 0.266994,4.918163 -2.304009,5.209746 -3.098666,6.036476 -5.693425,5.923232 -1.233472,-0.0537 -3.439301,0.06971 -4.90189,0.274532 -1.462527,0.204848 -3.197987,0.148515 -3.856464,-0.125155 z m 0.284239,-5.836579 c -0.381967,-0.611854 -0.853103,-0.853267 -1.128209,-0.578198 -0.611274,0.611533 0.01916,1.628604 1.013364,1.628604 0.63427,0 0.654838,-0.185807 0.114966,-1.050406 z m 6.231432,-0.545107 c 0,-0.390023 -0.29957,-0.808858 -0.664802,-0.930742 -0.39538,-0.131882 -0.664803,0.245222 -0.664803,0.930742 0,0.685495 0.269551,1.062545 0.664803,0.93073 0.365359,-0.121925 0.664802,-0.540693 0.664802,-0.93073 z M 103.743,54.98117 c -0.84,-0.46194 -2.19918,-0.741236 -3.02047,-0.620723 -1.116709,0.163898 -1.626299,-0.05814 -2.020979,-0.87986 -0.58892,-1.225878 -0.67591,-2.819115 -0.22037,-4.024175 0.60553,-1.601621 0.56273,-2.127403 -0.17182,-2.127403 -0.94758,0 -0.9528,-0.583931 -0.0191,-1.864166 0.87278,-1.193597 9.395439,-3.388605 12.271169,-3.160434 1.18224,0.09383 1.76945,-0.05301 1.56084,-0.390718 -0.20568,-0.332529 0.0868,-0.315665 0.75843,0.04408 0.60107,0.32167 1.52749,0.590261 2.0586,0.596711 0.53144,0.0063 1.56403,0.479825 2.2954,1.051868 l 1.32952,1.040042 -1.69706,0.01145 c -0.9334,0.0063 -1.8537,-0.241508 -2.04507,-0.55117 -0.20248,-0.327801 -1.01074,-0.417416 -1.93448,-0.214487 -0.87259,0.191621 -2.15345,0.410709 -2.84625,0.48672 -2.78311,0.30551 -5.9705,2.340597 -3.84254,2.453397 8.77134,0.464927 12.0995,1.228932 12.0995,2.777411 0,1.001716 -2.41074,2.030066 -5.3135,2.266619 -1.86883,0.152271 -2.67996,0.54158 -3.72343,1.786958 -1.65037,1.969804 -3.52226,2.416617 -5.52056,1.317737 z m 9.64903,-4.361309 c 0.1156,-0.34735 -0.16863,-0.631597 -0.63172,-0.631597 -0.46308,0 -0.84206,0.378975 -0.84206,0.842084 0,0.939208 1.14494,0.775646 1.47364,-0.210527 z m 17.37828,-3.868996 c -0.19672,-0.31803 -0.0906,-0.844537 0.23443,-1.170065 0.43433,-0.434599 0.59211,-0.280984 0.59211,0.578189 0,1.284153 -0.27594,1.482018 -0.82634,0.591862 z m 1.62414,-2.08105 c -0.18077,-0.292543 -0.0754,-0.531817 0.23441,-0.531817 0.3098,0 0.56337,0.239337 0.56337,0.531817 0,0.292542 -0.10537,0.531878 -0.23442,0.531878 -0.12905,0 -0.3826,-0.239336 -0.56336,-0.531878 z M 72.561708,21.304446 c 0,-0.277725 0.239527,-0.652878 0.532072,-0.833661 0.292542,-0.180762 0.532071,-0.793239 0.532071,-1.361009 0,-0.567777 0.320648,-1.032302 0.712388,-1.032302 0.391548,0 0.990177,-0.609614 1.329605,-1.354642 0.783415,-1.719421 0.775559,-1.979173 -0.0447,-1.563435 -0.36536,0.18466 -0.0062,-0.229052 0.797787,-0.91932 0.804368,-0.690307 1.462525,-1.5488 1.462525,-1.907754 0,-0.780235 3.123253,-2.7771569 4.254783,-2.7204243 0.544846,0.027467 0.587003,0.125006 0.132866,0.308257 -1.096342,0.4423913 -0.749506,1.3895033 0.399213,1.0892063 0.77639,-0.203055 1.063631,-0.01598 1.063631,0.691418 0,0.533285 0.29957,1.090299 0.664866,1.237836 0.399213,0.161218 0.295737,0.285006 -0.259967,0.310236 -1.257298,0.05684 -3.06417,1.676703 -3.06417,2.74662 0,0.59173 -0.941824,1.168915 -2.925179,1.792768 -2.719306,0.855319 -3.496533,1.476571 -2.526285,2.019202 0.219727,0.122704 0.09964,0.150166 -0.265717,0.06131 -0.365998,-0.08917 -0.664865,0.01211 -0.664865,0.225156 0,0.212958 -0.478418,0.686154 -1.063703,1.051509 -0.585086,0.36536 -1.063695,0.437026 -1.063695,0.159301 z M 99.951821,10.631617 c -0.18075,-0.292479 -0.0754,-0.53188 0.234419,-0.53188 0.30979,0 0.56337,0.239336 0.56337,0.53188 0,0.292543 -0.1054,0.53188 -0.23441,0.53188 -0.12904,0 -0.38261,-0.239337 -0.563379,-0.53188 z M 90.382332,6.3829338 c -0.186513,-0.3014853 0.03194,-0.3906528 0.500773,-0.2089951 0.921386,0.3535427 1.090009,0.7347753 0.325119,0.7347753 -0.275298,0 -0.646726,-0.2365896 -0.825445,-0.5257479 z"
       style="fill:#333333;stroke-width:0.53184688" />
  </g>
</svg>
