<?xml version="1.0" encoding="UTF-8" standalone="no"?>
<svg
   xmlns:dc="http://purl.org/dc/elements/1.1/"
   xmlns:cc="http://creativecommons.org/ns#"
   xmlns:rdf="http://www.w3.org/1999/02/22-rdf-syntax-ns#"
   xmlns:svg="http://www.w3.org/2000/svg"
   xmlns="http://www.w3.org/2000/svg"
   id="svg2048"
   version="1.1"
   viewBox="0 0 210 297"
   height="297mm"
   width="210mm">
  <defs
     id="defs2042" />
  <metadata
     id="metadata2045">
    <rdf:RDF>
      <cc:Work
         rdf:about="">
        <dc:format>image/svg+xml</dc:format>
        <dc:type
           rdf:resource="http://purl.org/dc/dcmitype/StillImage" />
        <dc:title></dc:title>
      </cc:Work>
    </rdf:RDF>
  </metadata>
  <g
     id="layer1">
    <path
       style="fill:#333333;stroke-width:0.55365813"
       d="m 131.3599,295.70096 c 0.93427,-0.24412 1.07018,-0.4692 1.19035,-1.97141 0.0672,-0.84363 1.43544,-1.94169 4.89992,-3.93315 1.44643,-0.83144 2.62991,-1.78322 2.62991,-2.11509 0,-0.33186 -0.47018,-1.38022 -1.04424,-2.32971 -0.57412,-0.94947 -1.22658,-2.34917 -1.44958,-3.11047 -0.22314,-0.76127 -0.79783,-1.83056 -1.27726,-2.37622 -0.79389,-0.90342 -0.78962,-1.24972 0.0458,-3.87557 0.50551,-1.58597 0.89138,-3.63099 0.85706,-4.54454 -0.032,-0.91352 0.60685,-3.40501 1.4251,-5.53659 0.81812,-2.13157 1.70186,-5.12132 1.96384,-6.64389 1.44223,-8.38259 2.44501,-13.33198 3.75786,-18.54755 1.27875,-5.07967 1.46351,-6.93147 1.46397,-14.67195 3.2e-4,-4.8722 -0.31161,-12.94845 -0.69445,-17.94725 -0.68467,-8.9536 -0.67454,-9.17582 0.67968,-14.94874 0.75608,-3.22306 2.19045,-9.84644 3.18751,-14.71862 1.66594,-8.14073 1.95634,-8.99666 3.58426,-10.56303 2.95416,-2.84261 5.14615,-7.73616 5.7996,-12.94717 0.31836,-2.53793 0.45709,-4.93041 0.30914,-5.31665 -0.14852,-0.38619 0.0687,-0.83197 0.48194,-0.99056 0.43687,-0.1677 0.91484,-1.59615 1.14149,-3.4101 0.33934,-2.71612 0.70481,-3.43208 2.81245,-5.50987 2.32178,-2.28903 2.42229,-2.52484 2.42229,-5.68307 0,-1.81227 -0.37059,-4.51803 -0.82365,-6.01285 -1.37738,-4.54444 -1.63439,-10.51799 -0.65324,-15.17683 0.48058,-2.28294 1.10751,-7.51428 1.39244,-11.62518 1.50546,-21.720939 -0.24055,-36.24526 -5.51092,-45.848549 -2.5312,-4.61194 -3.64634,-8.567256 -4.12881,-14.644345 -0.17376,-2.191452 -0.61078,-4.341544 -0.97122,-4.777981 -0.36047,-0.436435 -2.02517,-1.391385 -3.69999,-2.122129 -1.67486,-0.73078 -3.79258,-2.061442 -4.70611,-2.957088 -0.91355,-0.895647 -2.25127,-2.077715 -2.97275,-2.626786 l -1.31187,-0.998369 1.22574,-2.402581 C 146.91038,17.908967 142.90358,6.2297753 135.76412,2.5984383 132.42682,0.90109002 124.927,0.44298012 121.2031,1.7090093 c -4.56326,1.5513842 -5.48616,2.1446567 -5.48616,3.5269099 0,1.4354441 1.09196,2.0668421 4.70614,2.7212281 1.21809,0.220653 2.494,0.458786 2.83543,0.529459 1.08098,0.22385 3.4271,1.9446117 3.73107,2.7367197 0.1606,0.41906 -0.20608,1.395649 -0.81531,2.170169 -1.06108,1.348925 -1.06847,1.490873 -0.17517,3.372454 0.68867,1.451221 0.83268,2.647181 0.55127,4.578967 -0.20928,1.438074 -0.41931,3.042613 -0.4656,3.56564 -0.0458,0.548075 -0.71877,1.090182 -1.58102,1.279567 -1.57267,0.345367 -2.09921,1.1616 -2.44988,3.797731 -0.25653,1.927914 -1.60457,3.539986 -3.84484,4.598048 -0.91356,0.431426 -2.65756,1.389539 -3.87559,2.129095 -1.21806,0.739555 -2.65062,1.348746 -3.18356,1.353755 -0.53294,0.0036 -0.96888,0.352476 -0.96888,0.77182 0,0.419487 -0.37322,1.072844 -0.83045,1.451931 -0.45711,0.379087 -0.83048,1.243005 -0.83048,1.919776 0,0.676808 -0.43601,1.601876 -0.96895,2.055686 -1.34914,1.148917 -4.65063,2.401337 -5.8166,2.206516 -0.84729,-0.141414 -0.78955,0.179792 0.44926,2.502817 1.3986,2.622096 1.40311,2.668075 0.27928,2.842251 -0.90873,0.140705 -1.07338,0.452318 -0.80476,1.522567 0.2537,1.012085 0.11477,1.345514 -0.56364,1.345514 -0.69311,0 -0.82558,0.351409 -0.57416,1.522568 1.31805,6.137351 1.61382,6.799981 4.24903,9.51954 1.48291,1.530349 3.34804,4.218855 4.14473,5.97444 0.79676,1.755585 1.60081,3.316562 1.78692,3.468814 0.73917,0.604679 3.9086,4.891611 3.9086,5.286724 0,0.231666 0.96393,1.338301 2.14216,2.459111 1.17816,1.120777 2.57079,2.691951 3.09467,3.49145 0.52377,0.799498 1.49077,1.617437 2.14867,1.817587 0.65791,0.200043 1.60355,0.720867 2.10152,1.157161 0.49766,0.436329 1.61915,0.876744 2.49145,0.97872 0.87237,0.101969 1.74784,0.2139 1.9455,0.248722 0.71689,0.125783 2.79116,4.734061 2.21711,4.925439 -0.31695,0.105532 -0.43946,0.549748 -0.27146,0.986858 0.18689,0.48739 -0.0394,0.79474 -0.58461,0.79474 -0.69219,0 -0.91071,0.64536 -0.98444,2.906686 -0.0522,1.59869 -0.11477,3.50777 -0.13893,4.24238 -0.0249,0.73466 -0.33328,1.43328 -0.68732,1.55256 -0.67478,0.2274 -1.31787,-0.55184 -4.21111,-5.10289 -2.00967,-3.161066 -4.54781,-5.915372 -5.01793,-5.44522 -0.71646,0.716434 -3.03259,-0.424991 -3.33887,-1.645399 -0.17766,-0.707755 -0.82807,-1.869214 -1.44536,-2.580985 -0.61733,-0.711771 -1.12244,-1.600702 -1.12244,-1.975348 0,-0.912454 -2.92956,-1.439958 -3.45045,-0.621308 -1.15272,1.811619 1.25391,24.80014 4.82012,46.04144 0.76685,4.56772 1.39529,9.12085 1.39643,10.11812 0.001,0.99726 0.50029,3.23096 1.10958,4.96373 0.60877,1.73278 1.10724,3.32751 1.10724,3.54383 0,0.67642 -12.74198,0.0768 -19.654878,-0.92517 -1.567232,-0.22705 -1.600276,-0.19436 -0.586557,0.57998 0.591176,0.45139 1.498726,0.82071 2.01699,0.82071 0.776865,0 1.614385,1.02165 1.614385,1.96923 0,0.11977 -0.68512,0.0817 -1.522535,-0.0842 -1.339331,-0.26543 -1.595443,-0.0807 -2.128383,1.53643 -1.18054,3.58212 -1.20637,3.49641 1.064884,3.53739 1.166008,0.0213 2.321674,0.36441 2.567984,0.76301 0.79676,1.28919 1.59263,0.0832 1.97741,-2.99661 l 0.37585,-3.00839 1.73906,1.21586 c 0.95655,0.6687 1.8162,1.25224 1.91043,1.29676 0.0938,0.0444 -0.34217,1.03823 -0.96891,2.20829 -0.6271,1.17006 -1.14778,2.62939 -1.15709,3.24291 -0.0142,0.96408 -0.0878,0.99403 -0.53948,0.22066 -0.34323,-0.58763 -1.00245,-0.80309 -1.91991,-0.62771 -0.78628,0.1503 -2.00456,-0.13117 -2.786434,-0.64326 -1.24478,-0.8156 -1.547369,-0.82462 -2.907698,-0.0863 -1.525659,0.82778 -1.112818,1.09242 1.388258,0.88983 2.012864,-0.16309 1.579098,1.89659 -0.695498,3.30241 -2.312401,1.42916 -2.064745,2.19646 0.728223,2.25619 l 2.043499,0.044 -1.590684,0.57882 c -1.560302,0.56773 -1.583718,0.63782 -1.227123,3.6723 0.2004,1.70144 0.542072,3.22763 0.760236,3.3915 0.218165,0.16381 0.476054,1.04545 0.572842,1.95901 0.09665,0.91351 0.407905,1.89763 0.692122,2.18693 0.808207,0.8237 0.615367,1.30562 -0.687041,1.71903 -1.165013,0.36981 -1.169346,0.40161 -0.138929,1.00622 1.08361,0.63555 1.160677,0.87962 1.713657,5.4296 l 0.31446,2.59057 -2.142848,0.59281 c -3.672555,1.01596 -4.194906,1.8135 -0.921728,1.40731 2.116373,-0.26259 3.193236,-0.14 4.052846,0.46223 0.64412,0.45101 0.9072,0.90886 0.58528,1.01748 -0.38068,0.12829 -0.29669,0.75299 0.23806,1.78334 1.03703,1.99688 1.03533,2.01293 -0.21567,2.01293 -0.57153,0 -1.34971,0.3737 -1.7288,0.83049 -0.37933,0.45676 -0.970154,0.83293 -1.313496,0.83593 -0.343236,0.003 -1.994571,0.64325 -3.669392,1.42293 -2.670276,1.24304 -2.917401,1.48903 -2.007541,1.99834 0.725665,0.40622 1.641067,0.40332 3.045102,-0.011 3.836817,-1.12831 5.588387,-1.24627 5.245687,-0.35319 -0.17127,0.44647 -0.54865,0.81173 -0.83855,0.81173 -0.28994,0 -0.36928,0.25511 -0.1766,0.56737 0.19294,0.31196 0.11762,0.49893 -0.16699,0.41522 -0.64412,-0.18938 -5.401529,3.76209 -9.802234,8.14218 -2.653542,2.64108 -3.121991,3.35147 -2.314355,3.5094 1.456407,0.28461 4.175682,-0.93569 6.795575,-3.04986 2.596264,-2.09508 3.565,-2.3184 3.148498,-0.7258 -0.159537,0.609 -0.01776,1.10731 0.311257,1.10731 0.330089,0 0.473389,0.33222 0.318008,0.7382 -0.155273,0.40602 -0.583963,0.73927 -0.951503,0.74056 -1.640142,0.007 -5.924374,2.43743 -6.814052,3.86761 -0.538837,0.86592 -1.475132,2.13493 -2.081019,2.82008 l -1.101623,1.24575 h 2.205343 c 1.913346,0 5.485168,1.59636 3.676854,1.64333 -0.372763,0.011 -1.057885,0.75267 -1.522532,1.65113 -0.967598,1.8712 -1.100203,3.01904 -0.291005,2.51895 0.757891,-0.46842 0.703421,1.56659 -0.06538,2.33243 -0.338617,0.33898 -0.837729,1.80231 -1.108553,3.25209 -0.270751,1.44975 -0.835882,3.02864 -1.255546,3.50859 -0.43942,0.50257 -0.602938,1.30917 -0.385946,1.9017 0.333999,0.91047 0.565629,0.80337 2.010027,-0.92958 0.897992,-1.07718 2.043463,-2.53682 2.545489,-3.24358 1.263648,-1.77901 1.853618,-0.93132 0.787201,1.13098 -2.086629,4.03508 -9.527779,10.5949 -12.018408,10.5949 -0.531626,0 -1.143978,0.2878 -1.361289,0.63922 -0.266844,0.43139 -0.142839,0.49045 0.382462,0.18157 0.427658,-0.25157 0.316943,0.0679 -0.245525,0.71005 -1.506258,1.7189 -0.735647,2.28562 2.951615,2.17056 2.789381,-0.087 3.393135,-0.29277 3.958551,-1.34842 0.720224,-1.34498 1.322486,-1.56854 1.864134,-0.69209 0.188318,0.30451 0.105531,0.5537 -0.184409,0.5537 -0.289938,0 -0.698055,0.68515 -0.908047,1.52256 -0.386411,1.54012 -2.034083,3.46037 -2.969526,3.46037 -0.279633,0 -0.861217,0.53006 -1.291362,1.17791 -0.761729,1.14714 -0.809235,1.11778 -1.819685,-1.12309 -0.570888,-1.2655 -1.308027,-2.21239 -1.638507,-2.10415 -0.961701,0.31517 -1.031733,3.6696 -0.105888,5.08237 0.761938,1.16295 0.761231,1.32691 -0.0036,1.62181 -1.206621,0.46301 -1.318047,0.42493 -1.318047,-0.45058 0,-0.51435 -0.38861,-0.67713 -1.143944,-0.4795 -0.809869,0.21178 -0.971541,0.47147 -0.553863,0.88937 0.943007,0.94308 0.683732,2.02977 -0.484545,2.02977 -1.427845,0 -1.882223,0.83969 -0.955771,1.76617 0.411425,0.41147 1.066274,1.34247 1.455026,2.06888 0.629085,1.17578 0.563035,1.43235 -0.604859,2.33756 -1.115339,0.86476 -1.187288,1.09892 -0.480669,1.56606 0.727117,0.48088 0.720583,0.55026 -0.05223,0.55773 -0.485897,0.004 -1.334038,-0.4898 -1.885134,-1.09885 -2.406205,-2.6588 -2.626394,-0.38726 -0.276791,2.85615 0.913555,1.26112 1.660964,2.5047 1.660964,2.7635 0,0.25904 -0.860684,0.47055 -1.912598,0.47055 -1.316166,0 -2.356712,0.44404 -3.336531,1.4239 -3.529043,3.52904 -18.09895,9.07298 -25.755637,9.80013 l -1.937794,0.18406 1.937792,0.88251 c 2.9449,1.3411 14.142673,3.35048 16.504179,2.96162 1.123832,-0.18511 8.103285,-0.56278 15.509898,-0.83929 8.813526,-0.32902 13.737719,-0.72787 14.251331,-1.15413 0.836983,-0.69461 0.741758,-1.53852 -0.722645,-6.40388 -1.051275,-3.49302 -0.730211,-4.8864 1.774027,-7.70019 1.569043,-1.76289 1.957937,-2.65332 1.958328,-4.48324 5.34e-4,-3.09157 1.257963,-6.435 3.696751,-9.82958 4.121642,-5.73713 9.670652,-20.82505 12.140432,-33.01011 0.40133,-1.97932 1.2231,-5.3428 1.82657,-7.47437 0.60354,-2.13162 1.11339,-4.62307 1.13318,-5.53658 0.0178,-0.91356 1.15535,-3.62054 2.52339,-6.01555 1.36808,-2.39501 2.49073,-4.76188 2.49493,-5.25976 0.0178,-2.06894 0.72349,-3.32114 2.06261,-3.65723 1.02861,-0.25832 1.24624,-0.52008 0.80163,-0.96465 -0.44468,-0.44461 -0.81851,-0.43744 -1.37731,0.0249 -0.60944,0.506 -0.91189,0.3251 -1.47293,-0.88161 -1.11293,-2.39364 -3.87658,-11.36493 -3.88742,-12.61913 -0.004,-0.62421 -0.23771,-1.37166 -0.51595,-1.66095 -0.27857,-0.28924 -1.17021,-2.89286 -1.98168,-5.78574 -2.20033,-7.84436 -3.04112,-14.35831 -2.25676,-17.48354 0.38769,-1.54572 3.61851,-2.3442 4.33128,-1.07053 0.3539,0.63175 1.01013,0.75469 2.63922,0.49417 2.08109,-0.33292 2.29194,-0.21851 5.23108,2.84066 1.68445,1.75309 3.06258,3.65564 3.06258,4.2279 0,0.57229 0.28888,1.50328 0.64213,2.06888 0.52186,0.83574 0.41537,1.34729 -0.57017,2.73072 -0.68559,0.96276 -1.11908,2.25657 -0.99784,2.97812 0.47346,2.8168 -0.58002,8.79036 -1.77438,10.06153 -0.97126,1.03388 -1.17571,1.93706 -1.17571,5.19382 0,2.16824 -0.25654,4.61592 -0.5689,5.43926 -0.68963,1.81381 -0.28994,2.35387 1.10078,1.48564 0.81221,-0.50724 1.17226,-0.48078 1.67329,0.12293 0.91625,1.10393 0.55717,7.80766 -0.58656,10.94643 -0.52708,1.44642 -0.91981,2.65702 -0.87298,2.6902 0.0458,0.032 1.57722,0.34466 3.40078,0.69209 2.52957,0.48195 3.36335,0.88158 3.51731,1.6857 0.18761,0.98035 -0.0732,1.03095 -3.73072,0.72431 -2.16295,-0.1812 -3.93261,-0.15422 -3.93261,0.0607 0,0.21461 1.30803,0.76876 2.90674,1.23145 l 2.90671,0.84124 -0.13005,2.56981 c -0.12401,2.44379 -0.0458,2.58763 1.52747,2.93381 1.77278,0.38931 1.73981,1.38121 -0.0458,1.38121 -1.46021,0 -1.37959,0.27218 0.90844,3.06426 1.90513,2.32494 1.95684,2.50274 1.31617,4.52244 -0.36708,1.1563 -0.88329,2.53146 -1.14771,3.0559 -0.29172,0.57842 -0.23629,1.4903 0.14035,2.31772 0.34252,0.75282 0.42897,1.81426 0.19222,2.36841 -0.23628,0.55231 -0.37717,1.66466 -0.31374,2.47187 0.0654,0.8072 -0.14959,1.63164 -0.47413,1.83208 -0.74681,0.4616 -0.77737,3.06735 -0.032,3.06735 1.03184,0 0.5604,1.18562 -1.15205,2.89817 l -1.70569,1.7057 0.95356,2.11459 c 0.76251,1.69085 0.81734,2.27871 0.27395,2.93357 -0.89746,1.08137 -0.28496,1.97479 1.35348,1.97479 0.72534,0 1.44155,0.19861 1.59175,0.44166 0.55582,0.89895 -0.64284,1.81516 -3.84283,2.93729 -1.80706,0.6337 -3.59694,1.4089 -3.97755,1.72267 -0.51333,0.4233 -0.69212,0.28248 -0.69212,-0.54537 0,-0.6137 0.37407,-1.25927 0.83044,-1.43455 0.63627,-0.24411 0.83052,-1.29275 0.83052,-4.4885 0,-2.29339 -0.21639,-4.16983 -0.48064,-4.16983 -0.48327,0 -1.92301,4.66315 -2.57718,8.34871 -0.29101,1.63772 -0.0963,2.28529 1.12074,3.73164 l 1.47261,1.75004 -1.20452,1.52811 -1.20464,1.52808 1.57523,0.34963 c 0.86647,0.19222 1.26386,0.37926 0.88321,0.41525 -0.88332,0.0839 -0.90407,2.95397 -0.0249,3.83039 0.36576,0.36538 0.42766,0.68729 0.13893,0.71525 -0.28887,0.0284 -1.25143,0.0902 -2.13808,0.13858 -2.46182,0.13365 -2.51511,1.47169 -0.059,1.47169 4.91108,0 5.1285,2.35055 0.27643,2.99415 l -2.75864,0.36594 v 2.1595 c 0,3.25449 -0.86587,4.96971 -4.23676,8.39234 l -3.06855,3.11559 3.51429,0.30274 c 8.39333,0.72338 15.64094,1.5325 15.88145,1.77302 0.1432,0.14321 -0.64998,0.64035 -1.76269,1.10525 -1.1126,0.4649 -2.02289,0.96643 -2.02289,1.11459 0,0.3205 2.6404,0.2466 4.01409,-0.11233 z m -1.69948,-9.48916 c -0.1176,-0.79851 0.11513,-1.20237 0.69205,-1.20237 0.56503,0 0.869,0.49987 0.869,1.43027 0,1.73448 -1.30025,1.54462 -1.56105,-0.22776 z m -63.770621,-0.10024 c 0,-0.61183 0.748261,-1.89536 1.662882,-2.85239 1.616941,-1.69194 1.693439,-1.71241 2.768273,-0.73966 0.608196,0.55022 1.105426,1.18562 1.105426,1.41204 0,0.42779 -4.392036,3.23281 -5.121358,3.27076 -0.22847,0.011 -0.415366,-0.47898 -0.415366,-1.09075 z M 79.17758,274.43052 c 0,-0.63261 1.501427,-0.64693 1.890073,-0.0178 0.162024,0.26221 0.152429,0.61861 -0.01776,0.79232 -0.432492,0.43206 -1.868679,-0.16308 -1.868679,-0.77434 z m 0,-3.47173 c 0,-0.11508 0.374079,-0.51923 0.830518,-0.89832 0.680147,-0.56444 0.830446,-0.52664 0.830446,0.20893 0,0.49407 -0.37319,0.8983 -0.830446,0.8983 -0.45715,0 -0.830518,-0.0941 -0.830518,-0.20891 z m 3.893206,-9.92791 c 0.01777,-1.17318 0.04549,-1.17852 0.812788,-0.16238 0.437323,0.57773 0.66128,1.26695 0.497656,1.53155 -0.493749,0.79879 -1.329311,-0.0743 -1.310586,-1.36899 z m 53.800074,-9.21592 c 0.37145,-0.59522 0.75335,-1.00456 0.84822,-0.90976 0.32831,0.32831 -0.52776,1.99187 -1.02492,1.99187 -0.2743,0 -0.19506,-0.48695 0.1766,-1.08211 z M 93.849533,229.64347 c -0.188316,-0.3045 -0.09309,-0.55367 0.21106,-0.55367 0.304861,0 0.707578,0.24906 0.895824,0.55367 0.188319,0.30451 0.0931,0.5537 -0.211058,0.5537 -0.304862,0 -0.707613,-0.24908 -0.895826,-0.5537 z m -1.384135,-8.85853 c 0,-0.30451 0.342526,-0.55366 0.761266,-0.55366 0.418457,0 1.602159,-0.15741 2.629912,-0.34999 1.28209,-0.24019 1.69479,-0.17019 1.314886,0.22313 -1.018587,1.05444 -4.706064,1.58774 -4.706064,0.68059 z m 9.412202,-8.30486 c 0,-0.30451 0.26435,-0.55369 0.58655,-0.55369 0.32228,0 0.43207,0.24907 0.24375,0.55369 -0.18832,0.3045 -0.45186,0.55365 -0.58656,0.55365 -0.13395,0 -0.24374,-0.24907 -0.24374,-0.55365 z m 29.93011,-50.79886 c -0.65862,-0.53329 -1.25768,-1.38019 -1.33131,-1.88198 -0.0739,-0.50173 -0.44077,-1.28205 -0.81587,-1.734 -0.54929,-0.66189 -0.51788,-0.88472 0.16309,-1.1458 1.37024,-0.52579 2.40606,0.16344 4.16758,2.77364 0.91295,1.3528 1.65996,2.57169 1.65996,2.70869 0,0.65858 -2.78468,0.1364 -3.84299,-0.72055 z m 6.37388,-5.65509 c -0.93519,-0.29384 -2.44777,-0.68909 -3.36137,-0.87811 l -1.66096,-0.3436 1.50423,-0.79094 c 0.82739,-0.43497 2.63372,-0.94574 4.01409,-1.13495 2.27438,-0.31161 2.50977,-0.23735 2.50977,0.79331 0,1.32853 -0.53425,2.88884 -0.9888,2.88884 -0.17375,0 -1.08187,-0.24055 -2.01696,-0.53448 z m 7.73429,-1.53612 c -2.0078,-2.16527 -1.76898,-2.79319 1.22335,-3.21677 1.4464,-0.20466 4.1247,-0.71465 5.95173,-1.13307 4.00467,-0.91714 4.15245,-0.92506 4.15245,-0.22349 0,0.30451 -0.6232,0.5537 -1.38409,0.5537 -0.76127,0 -1.38414,0.25547 -1.38414,0.56772 0,0.42663 -6.39042,4.93428 -7.03673,4.96359 -0.0654,0.003 -0.74902,-0.67734 -1.52257,-1.51166 z m -1.17869,-37.09796 c 0.60489,-0.60482 1.01954,0.35705 0.58527,1.35749 -0.41188,0.94858 -0.44137,0.94773 -0.67098,-0.0213 -0.13217,-0.55679 -0.0934,-1.15884 0.0856,-1.33803 z m -26.8035,-20.317046 c 0,-0.58436 1.06257,-0.82991 1.37852,-0.31837 0.19151,0.30949 -0.0394,0.56269 -0.51532,0.56269 -0.4747,0 -0.86317,-0.1098 -0.86317,-0.24411 z m 13.35536,-9.885054 c -1.57871,-1.764647 -2.72336,-3.446396 -2.54361,-3.737189 0.58983,-0.954486 3.78246,-0.541004 8.49989,1.10095 5.18805,1.805755 6.25464,2.500044 4.53228,2.950444 -0.62909,0.164511 -1.14394,0.07319 -1.14394,-0.202885 0,-0.276082 -0.62252,-0.501815 -1.38411,-0.501815 -0.76126,0 -1.38416,0.232378 -1.38416,0.516346 0,0.283899 -0.4983,0.674498 -1.10731,0.86779 -0.60877,0.193293 -1.11112,0.770648 -1.11577,1.283014 -0.004,0.803834 -0.0824,0.817726 -0.54541,0.101268 -0.51138,-0.791148 -0.81233,-0.354962 -0.57284,0.830517 0.059,0.304507 0.004,0.429117 -0.12649,0.276792 -0.13076,-0.152075 -1.52981,-1.720657 -3.10852,-3.485302 z m 12.4174,0.654777 c -0.84562,-0.790153 0.36753,-0.547651 1.91014,0.381787 l 1.38417,0.833964 -1.38417,-0.362174 c -0.76122,-0.199334 -1.62081,-0.583289 -1.91014,-0.853577 z m 7.56327,-1.323519 c -3.97774,-2.703002 -15.56724,-6.365466 -20.14287,-6.365466 -1.43456,0 -2.72773,-0.193292 -2.8737,-0.429435 -0.44663,-0.722396 3.42956,-12.885458 5.47671,-17.186318 2.23399,-4.693167 6.71695,-9.758491 9.94894,-11.241371 3.07445,-1.410572 5.48364,-1.289018 8.65428,0.436614 4.89019,2.661607 9.06279,10.932778 9.06279,17.964923 0,3.396082 -0.26223,4.189789 -3.59876,10.904387 -1.9793,3.982924 -3.79887,7.255357 -4.04337,7.272056 -0.24445,0.01776 -1.36232,-0.593236 -2.48402,-1.355427 z M 111.03208,67.006356 c -1.06122,-1.446424 -1.93565,-3.011167 -1.94322,-3.477166 -0.0142,-0.807208 3.30608,-9.252236 4.36492,-11.105923 0.29634,-0.518229 0.29953,-1.201077 0.004,-1.660964 -0.27217,-0.429507 -0.49829,-1.065311 -0.50288,-1.412882 -0.004,-0.606348 3.78125,-2.413169 5.06096,-2.413169 0.76276,0 0.2004,4.800649 -0.68779,5.870793 -0.32973,0.397528 -0.92706,2.166686 -1.32696,3.931473 -0.40002,1.764788 -1.12259,4.419609 -1.60597,5.899645 -0.75654,2.316595 -0.76439,2.59598 -0.059,2.008428 0.4525,-0.375392 0.82242,-1.155028 0.82242,-1.732525 0,-0.57746 0.74745,-2.450655 1.661,-4.162572 0.91355,-1.711916 1.66647,-3.38894 1.67329,-3.72674 0.004,-0.337907 0.50281,-1.236999 1.10323,-1.998265 0.90819,-1.152293 1.17901,-1.248192 1.61679,-0.572452 0.58009,0.895115 -1.35553,4.929666 -2.59395,5.407069 -0.38069,0.146747 -0.69205,0.701289 -0.69205,1.232381 0,0.531128 -0.5722,2.061618 -1.27079,3.401128 -0.69891,1.339544 -1.61083,3.494398 -2.02637,4.788568 -0.41583,1.294171 -0.96256,2.353051 -1.21533,2.353051 -0.25299,0 -1.32796,-1.183454 -2.38915,-2.629878 z m 8.49503,-17.675554 c 0.48259,-0.829806 0.5905,-0.853719 0.60421,-0.133951 0.0178,0.932422 -0.56431,1.771929 -0.95662,1.379553 -0.12969,-0.129332 0.0249,-0.689989 0.35248,-1.24574 z m 11.69436,-20.307596 c 0,-0.412309 0.6428,-1.443368 1.42869,-2.291225 0.86339,-0.931606 1.32199,-1.949765 1.15897,-2.573098 -0.14852,-0.567334 -0.0455,-0.891846 0.23238,-0.721186 0.68878,0.425705 0.63499,-0.507926 -0.0696,-1.212768 -1.09867,-1.098639 0.0394,-2.489349 1.88826,-2.309346 2.90216,0.282477 2.46437,3.253885 -1.1874,8.057875 -1.37703,1.811475 -3.45101,2.442339 -3.45101,1.049748 z M 86.517856,227.47882 c 0.230246,-1.03831 0.292427,-2.01411 0.137863,-2.1685 -0.577425,-0.57728 -0.906626,0.41085 -0.734474,2.20371 l 0.177657,1.85262 z m 0.833148,-5.1229 c 0.376742,-0.37684 0.685156,-1.23742 0.685156,-1.91241 0,-0.67499 0.311258,-1.35295 0.692016,-1.50654 0.380686,-0.15349 0.149589,-0.29883 -0.513326,-0.32299 -0.662879,-0.0249 -1.319114,-0.4797 -1.458398,-1.01261 -0.22847,-0.87352 -0.259381,-0.87671 -0.316943,-0.032 -0.03198,0.51493 0.184766,1.09021 0.489129,1.27844 0.759312,0.46925 0.699441,2.35055 -0.08278,2.61139 -0.350343,0.11659 -0.533615,0.52062 -0.407905,0.89742 0.181212,0.54447 0.368819,0.54447 0.913521,0 z m -0.237352,-6.92302 c 0.202885,-0.20288 0.343235,-1.13729 0.312678,-2.07622 l -0.05899,-1.70712 -0.454416,1.93407 c -0.473459,2.01507 -0.424603,2.47257 0.198979,1.84927 z m -0.03198,-6.87282 c -0.195423,-0.74866 -0.446632,-0.99965 -0.585241,-0.58497 -0.133594,0.39945 0.01776,0.98951 0.342525,1.31124 0.410568,0.41086 0.483266,0.19472 0.241971,-0.72623 z m 2.004306,-10.53667 c 0.341105,-0.97843 0.523098,-1.8759 0.404813,-1.99433 -0.118675,-0.11838 -0.494387,0.58528 -0.835456,1.56373 -0.341105,0.97846 -0.523132,1.87589 -0.404847,1.99431 0.118674,0.1184 0.494351,-0.58527 0.83549,-1.56371 z m 1.125148,-4.13703 c -0.02487,-0.64496 -0.157761,-0.77617 -0.334709,-0.33435 -0.160249,0.39969 -0.140351,0.87721 0.04584,1.06116 0.183698,0.18405 0.314453,-0.14284 0.291003,-0.72666 z m 29.348634,-3.41423 c -0.032,-1.34918 -0.0931,-1.39646 -0.51464,-0.41525 -0.65002,1.51226 -0.65002,1.93781 0,1.93781 0.30486,0 0.53621,-0.68515 0.51464,-1.52256 z M 91.513145,153.79231 c 1.603973,-1.26166 2.949202,-1.42802 3.357851,-0.41527 0.223494,0.55369 0.287451,0.55369 0.322983,0 0.02487,-0.38062 0.05899,-0.87891 0.07319,-1.10731 0.01421,-0.22847 -1.04257,-0.67749 -2.353014,-0.99806 l -2.382719,-0.58274 0.17375,-4.95379 c 0.09629,-2.72461 0.414477,-7.66109 0.70843,-10.97005 0.369282,-4.15877 0.342171,-7.80084 -0.08812,-11.79627 -0.34217,-3.17899 -0.45971,-6.42754 -0.260804,-7.21901 0.33542,-1.33727 -0.302019,-2.34158 -1.502492,-2.36609 -0.228113,-0.004 -0.415365,4.95976 -0.415365,11.03202 0,6.7631 -0.214612,11.17307 -0.553868,11.38268 -0.304861,0.18831 -0.553867,1.43391 -0.553867,2.76827 0,1.33436 0.249077,2.5801 0.553867,2.7683 0.319076,0.19721 0.553868,3.14315 0.553868,6.95341 0,3.63618 0.215677,6.61121 0.479323,6.61121 0.263289,0 1.112496,-0.49826 1.886697,-1.1073 z M 97.87321,90.547905 c 0.956619,-2.518307 2.15077,-6.679564 2.65365,-9.24719 0.50288,-2.567661 1.31414,-5.506805 1.80273,-6.531469 0.87902,-1.843276 0.87113,-1.877174 -0.74908,-3.201262 -2.168032,-1.771858 -2.860189,-1.712521 -3.298472,0.282832 -0.37454,1.707546 -1.384066,2.313007 -1.384066,0.830482 0,-0.456759 -0.249078,-0.830482 -0.553903,-0.830482 -0.304863,0 -0.553833,0.62287 -0.553833,1.384137 0,0.77889 0.288518,1.323625 0.659184,1.245741 1.088548,-0.228469 1.118822,1.521678 0.06787,3.946503 -0.934057,2.156027 -1.834785,2.988534 -1.834785,1.69582 0,-0.322273 -0.251564,-0.430715 -0.559766,-0.240549 -0.307705,0.19045 -1.355782,-0.450044 -2.328605,-1.422902 l -1.768867,-1.768837 1.904923,-3.565355 1.90496,-3.565356 -1.31183,-0.989521 c -1.026261,-0.77413 -1.256223,-1.368503 -1.056356,-2.730327 0.14035,-0.957399 0.178724,-1.740767 0.08386,-1.740767 -0.314456,0 -2.798049,5.230725 -3.471765,7.312313 -0.365762,1.128913 -1.8943,3.739602 -3.397543,5.801577 -2.758463,3.783661 -3.285006,5.490852 -2.068758,6.707066 1.746347,1.746452 5.979485,-0.135023 5.979485,-2.657556 0,-1.174144 1.341357,-1.518731 1.967602,-0.505404 0.204663,0.331157 0.845405,0.47808 1.424074,0.326893 2.241406,-0.586202 2.417434,3.826441 0.248367,6.223372 -0.735257,0.812469 -0.630367,1.257326 0.98863,4.180588 0.996237,1.799217 2.059064,3.353909 2.361865,3.454818 0.303085,0.100909 1.333148,-1.876929 2.289692,-4.395272 z M 97.9187,69.663913 c -0.238062,-0.713761 -0.997304,-0.84196 -1.065772,-0.17979 -0.02487,0.220651 0.257604,0.501032 0.622515,0.62287 0.365336,0.121878 0.565025,-0.07745 0.442724,-0.442904 z m -3.165485,-7.397909 c -1.136125,-1.136125 -2.842961,-0.959604 -2.840048,0.293847 0.0011,0.435157 0.760876,0.725983 1.965044,0.752134 1.952146,0.04264 1.957193,0.03661 0.875004,-1.045803 z M 111.28955,33.648435 c 0,-0.304506 -0.38857,-0.553655 -0.86317,-0.553655 -0.47478,0 -0.70921,0.249077 -0.52122,0.553655 0.18832,0.304507 0.57679,0.55369 0.86321,0.55369 0.28638,0 0.52118,-0.249077 0.52118,-0.55369 z m 0.83059,-2.768273 c 0.194,-0.3141 -0.27147,-0.55369 -1.07462,-0.55369 -0.77925,0 -1.41683,0.249076 -1.41683,0.55369 0,0.304506 0.48327,0.553689 1.07466,0.553689 0.59117,0 1.22861,-0.249076 1.41679,-0.553689 z m -2.02975,-4.360697 c 0.58915,-0.373473 0.55188,-0.539761 -0.18405,-0.822025 -1.28824,-0.494352 -1.38528,-0.460952 -1.38528,0.476586 0,0.932068 0.47737,1.037206 1.56894,0.345369 z m 5.82556,-6.427219 c 0.18832,-0.490551 -0.14675,-1.069326 -0.83073,-1.435408 -1.90681,-1.020505 -0.37983,-1.94504 2.0042,-1.213372 2.00573,0.615517 2.45463,0.319786 1.28706,-0.847679 -0.76869,-0.768727 -5.33504,-0.880226 -6.4754,-0.158115 -1.06904,0.676878 -0.37187,2.16999 1.31215,2.810271 0.76909,0.292426 1.39839,0.786955 1.39839,1.099031 0,0.862175 0.9466,0.677339 1.30433,-0.254762 z m 2.98992,-0.137155 c 0.38246,-0.133237 0.55454,-0.470403 0.38246,-0.748901 -0.40307,-0.652183 -2.46227,-0.662133 -2.46227,-0.01073 0,0.638362 1.18633,1.072416 2.07967,0.760876 z"
       id="path8912" />
  </g>
</svg>
