<?xml version="1.0" encoding="UTF-8" standalone="no"?>
<svg
   xmlns:dc="http://purl.org/dc/elements/1.1/"
   xmlns:cc="http://creativecommons.org/ns#"
   xmlns:rdf="http://www.w3.org/1999/02/22-rdf-syntax-ns#"
   xmlns:svg="http://www.w3.org/2000/svg"
   xmlns="http://www.w3.org/2000/svg"
   id="svg3310"
   version="1.1"
   viewBox="0 0 210 297"
   height="297mm"
   width="210mm">
  <defs
     id="defs3304" />
  <metadata
     id="metadata3307">
    <rdf:RDF>
      <cc:Work
         rdf:about="">
        <dc:format>image/svg+xml</dc:format>
        <dc:type
           rdf:resource="http://purl.org/dc/dcmitype/StillImage" />
        <dc:title></dc:title>
      </cc:Work>
    </rdf:RDF>
  </metadata>
  <g
     id="layer1">
    <path
       id="path8836"
       d="m 78.872637,294.40254 c -0.926039,-0.24194 -1.06075,-0.46506 -1.179864,-1.95404 -0.06656,-0.83619 -1.422794,-1.92459 -4.856721,-3.89849 -1.43368,-0.82411 -2.606743,-1.76752 -2.606743,-2.09645 0,-0.32895 0.466048,-1.36807 1.03504,-2.30918 0.569064,-0.94112 1.215784,-2.32849 1.436816,-3.08308 0.221173,-0.75456 0.790799,-1.81444 1.266004,-2.35528 0.78689,-0.89547 0.782665,-1.23872 -0.04543,-3.84144 -0.501056,-1.57199 -0.883531,-3.59899 -0.849509,-4.5045 0.0317,-0.90547 -0.6015,-3.375 -1.41255,-5.48781 -0.810909,-2.1128 -1.686867,-5.0762 -1.946535,-6.58536 -1.429524,-8.30874 -2.423465,-13.21453 -3.724758,-18.38413 -1.267484,-5.03493 -1.450621,-6.87042 -1.451079,-14.54269 -3.17e-4,-4.82928 0.308867,-12.83438 0.688348,-17.78914 0.678628,-8.87471 0.668591,-9.09499 -0.673697,-14.81707 -0.749418,-3.19463 -2.17116,-9.75966 -3.15943,-14.58892 -1.651261,-8.06901 -1.939103,-8.91739 -3.552681,-10.46998 -2.928148,-2.81757 -5.100822,-7.66802 -5.748528,-12.83312 -0.315559,-2.51557 -0.453053,-4.88698 -0.306403,-5.2698 0.147214,-0.3828 -0.06797,-0.82464 -0.477705,-0.98183 -0.433013,-0.16609 -0.906775,-1.5821 -1.131435,-3.38005 -0.336338,-2.69218 -0.698596,-3.40183 -2.787662,-5.46133 -2.301326,-2.26885 -2.400959,-2.5026 -2.400959,-5.63302 0,-1.79628 0.36733,-4.47822 0.816402,-5.95988 1.365251,-4.50437 1.619988,-10.42532 0.647496,-15.04312 -0.476364,-2.26283 -1.097762,-7.44806 -1.380181,-11.52277 -1.492179,-21.529581 0.238431,-35.925932 5.462377,-45.44463 2.508906,-4.571282 3.614209,-8.491779 4.092442,-14.515309 0.172219,-2.172149 0.605409,-4.303292 0.962667,-4.735883 0.357293,-0.432598 2.007322,-1.379149 3.667388,-2.103455 1.660102,-0.724317 3.759168,-2.04328 4.664639,-2.931023 0.905507,-0.887756 2.231454,-2.059396 2.946568,-2.603655 L 68.167262,28.28655 66.952325,25.905136 C 63.459158,19.057891 67.430659,7.4815953 74.507212,3.8822496 77.815088,2.1998554 85.248833,1.7457711 88.939923,3.0006462 c 4.523061,1.5377094 5.437829,2.1257766 5.437829,3.4958447 0,1.4227879 -1.08234,2.0486202 -4.664674,2.6972381 -1.207366,0.2186024 -2.472032,0.4547498 -2.810448,0.524821 -1.071458,0.221737 -3.39691,1.927453 -3.698205,2.712597 -0.159189,0.415362 0.204268,1.383332 0.808128,2.151031 1.051734,1.33707 1.059059,1.477746 0.173627,3.342768 -0.682608,1.438432 -0.825348,2.623859 -0.546417,4.538602 0.207438,1.425412 0.415615,3.015815 0.461505,3.534244 0.04543,0.543226 0.712439,1.080586 1.567089,1.268295 1.558813,0.342394 2.080718,1.151374 2.428291,3.764277 0.254278,1.910904 1.590438,3.508784 3.810974,4.557529 0.905507,0.427632 2.634143,1.377309 3.841438,2.110348 1.207331,0.733047 2.627276,1.336868 3.155521,1.341837 0.528247,0.005 0.960347,0.349227 0.960347,0.765005 0,0.415798 0.369932,1.063399 0.823132,1.439143 0.45308,0.375758 0.82316,1.232036 0.82316,1.902871 0,0.670841 0.43217,1.587738 0.96041,2.03755 1.33725,1.138805 4.60967,2.380189 5.76537,2.187085 0.83982,-0.140311 0.7826,0.178277 -0.4453,2.480756 -1.38628,2.599026 -1.39075,2.644571 -0.27682,2.817213 0.90072,0.139571 1.06392,0.448341 0.79767,1.509151 -0.25146,1.003179 -0.11377,1.33367 0.55867,1.33367 0.687,0 0.8183,0.348242 0.5691,1.509148 -1.30645,6.083309 -1.5996,6.740091 -4.2116,9.435677 -1.46985,1.516874 -3.31854,4.181696 -4.10821,5.921814 -0.78975,1.740115 -1.586712,3.287331 -1.771192,3.438236 -0.73265,0.599373 -3.874153,4.848536 -3.874153,5.240163 0,0.229666 -0.955446,1.32652 -2.123297,2.437441 -1.16778,1.11092 -2.548139,2.668227 -3.067404,3.460703 -0.519157,0.792466 -1.477632,1.603173 -2.129741,1.80155 -0.652108,0.198421 -1.589418,0.714529 -2.083007,1.146997 -0.493273,0.432467 -1.604879,0.868998 -2.469496,0.970087 -0.864688,0.101056 -1.73244,0.211945 -1.928362,0.246381 -0.710571,0.12482 -2.766569,4.69237 -2.197573,4.882056 0.314151,0.10479 0.435584,0.544907 0.269071,0.978167 -0.185251,0.483086 0.03909,0.787712 0.579452,0.787712 0.686094,0 0.902689,0.639672 0.975768,2.881106 0.05177,1.5846 0.113756,3.47686 0.137705,4.20503 0.02465,0.72815 0.330351,1.42065 0.681269,1.53886 0.668837,0.22536 1.306259,-0.54698 4.174009,-5.05792 1.991966,-3.133238 4.507739,-5.863287 4.973717,-5.397278 0.71015,0.710127 3.005877,-0.42123 3.309461,-1.630898 0.176094,-0.701526 0.820771,-1.852755 1.432625,-2.558254 0.611889,-0.705499 1.112557,-1.586583 1.112557,-1.957953 0,-0.904385 2.903741,-1.427259 3.420051,-0.615816 1.14256,1.795664 -1.242872,24.581669 -4.77766,45.635839 -0.760089,4.52743 -1.383001,9.04047 -1.384127,10.02896 -0.0011,0.98848 -0.495879,3.20249 -1.099809,4.92 -0.603401,1.71751 -1.097483,3.29819 -1.097483,3.5126 0,0.67048 12.629729,0.0761 19.481719,-0.917 1.55343,-0.22508 1.58619,-0.19271 0.5814,0.57486 -0.58597,0.44742 -1.48552,0.81347 -1.99923,0.81347 -0.77001,0 -1.60015,1.01266 -1.60015,1.95191 0,0.11869 0.67909,0.0811 1.50911,-0.0833 1.32754,-0.26319 1.58139,-0.0799 2.10964,1.52286 1.17014,3.5506 1.19574,3.46563 -1.0555,3.50627 -1.15574,0.0208 -2.30123,0.36117 -2.54536,0.75627 -0.78975,1.27785 -1.5786,0.0824 -1.95999,-2.97023 l -0.37255,-2.98189 -1.72374,1.20514 c -0.94812,0.66282 -1.8002,1.24123 -1.8936,1.28534 -0.093,0.0441 0.33916,1.02909 0.96038,2.18885 0.62157,1.15976 1.13767,2.60621 1.14689,3.21434 0.0141,0.95558 0.087,0.98528 0.53473,0.21874 0.34021,-0.58243 0.99362,-0.79602 1.90301,-0.62217 0.77935,0.14897 1.98689,-0.12979 2.76188,-0.6376 1.23382,-0.80843 1.53373,-0.81735 2.88208,-0.0857 1.51222,0.82047 1.10301,1.08279 -1.37603,0.88198 -1.99513,-0.16159 -1.56518,1.87993 0.68938,3.27333 2.29202,1.41657 2.04655,2.17711 -0.72181,2.23632 l -2.0255,0.0436 1.57667,0.5737 c 1.54656,0.56273 1.56977,0.63221 1.21631,3.63995 -0.19864,1.68644 -0.53729,3.19918 -0.75354,3.36163 -0.21624,0.16244 -0.47186,1.03623 -0.5678,1.94173 -0.0958,0.90548 -0.4043,1.88093 -0.68602,2.16768 -0.80108,0.81644 -0.60994,1.29412 0.68099,1.70388 1.15475,0.36654 1.15905,0.39806 0.13771,0.99736 -1.07407,0.62995 -1.15045,0.87185 -1.69856,5.38176 l -0.31169,2.56777 2.12396,0.58756 c 3.64021,1.00701 4.15796,1.79755 0.91361,1.39489 -2.09772,-0.26036 -3.16509,-0.13858 -4.01714,0.45818 -0.63844,0.44705 -0.8992,0.90086 -0.58012,1.00852 0.37733,0.12717 0.29407,0.74636 -0.23596,1.76765 -1.0279,1.97926 -1.02621,1.99518 0.21377,1.99518 0.56649,0 1.33782,0.37041 1.71357,0.82318 0.37599,0.45274 0.9616,0.82559 1.30192,0.82853 0.34021,0.002 1.977,0.6376 3.63707,1.41041 2.64675,1.23208 2.89169,1.47592 1.98985,1.98074 -0.71927,0.40265 -1.62661,0.39978 -3.01828,-0.009 -3.80301,-1.11839 -5.53915,-1.23531 -5.19947,-0.35015 0.16976,0.4425 0.54381,0.80457 0.83117,0.80457 0.28738,0 0.36602,0.25305 0.17503,0.56236 -0.19123,0.30929 -0.11657,0.49454 0.16553,0.41157 0.63845,-0.18771 5.35394,3.72895 9.71588,8.07045 2.63016,2.61782 3.09448,3.32195 2.29396,3.47848 -1.44358,0.28217 -4.1389,-0.92743 -6.73571,-3.02298 -2.57338,-2.07665 -3.53359,-2.298 -3.12076,-0.71944 0.15814,0.60366 0.0177,1.09757 -0.3085,1.09757 -0.3272,0 -0.46923,0.3293 -0.31521,0.73172 0.1539,0.40243 0.57881,0.73274 0.94311,0.73403 1.6257,0.006 5.87218,2.41596 6.75402,3.83353 0.53409,0.85827 1.46214,2.11612 2.06269,2.79524 l 1.09192,1.23475 h -2.18592 c -1.89648,0 -5.43684,1.58234 -3.64446,1.62889 0.36948,0.009 1.04857,0.74604 1.50912,1.63655 0.95908,1.85471 1.09051,2.99249 0.28845,2.49675 -0.75122,-0.46426 -0.69723,1.55282 0.0648,2.31193 0.33563,0.33598 0.83035,1.78643 1.09879,3.22339 0.26837,1.43699 0.82852,3.00195 1.24449,3.47773 0.43554,0.49809 0.59761,1.2976 0.38253,1.8849 -0.33105,0.90244 -0.56064,0.79633 -1.99232,-0.92135 -0.89008,-1.06773 -2.02545,-2.51447 -2.52306,-3.21505 -1.25251,-1.76329 -1.83728,-0.92308 -0.78026,1.12101 2.06825,3.99957 9.44384,10.50161 11.91253,10.50161 0.52694,0 1.13389,0.28527 1.3493,0.63358 0.26449,0.42759 0.14158,0.48612 -0.3791,0.17996 -0.42389,-0.24934 -0.31416,0.0672 0.24336,0.70382 1.49299,1.70374 0.72917,2.26547 -2.92561,2.15144 -2.76481,-0.0862 -3.36325,-0.29021 -3.92368,-1.33655 -0.71387,-1.33314 -1.31084,-1.55473 -1.84771,-0.68599 -0.18665,0.30182 -0.10456,0.54881 0.18278,0.54881 0.2874,0 0.69191,0.67912 0.90005,1.50915 0.38301,1.52652 2.01617,3.42988 2.94337,3.42988 0.27717,0 0.85363,0.52538 1.27998,1.16753 0.75502,1.13703 0.80211,1.10795 1.80366,-1.11319 0.56585,-1.25435 1.2965,-2.19293 1.62407,-2.08562 0.95323,0.31239 1.02264,3.63728 0.10491,5.03761 -0.75523,1.15271 -0.75453,1.31517 0.003,1.60749 1.196,0.45897 1.30643,0.42121 1.30643,-0.44658 0,-0.50986 0.38519,-0.67115 1.13387,-0.47531 0.80274,0.20991 0.96298,0.46735 0.549,0.88156 -0.93472,0.93478 -0.67772,2.01186 0.48027,2.01186 1.41526,0 1.86564,0.83229 0.94735,1.75062 -0.4078,0.40783 -1.05689,1.33067 -1.44221,2.05068 -0.62355,1.16542 -0.55807,1.41973 0.59953,2.31696 1.10551,0.85712 1.17683,1.08924 0.47643,1.55223 -0.7207,0.47668 -0.71423,0.54546 0.0517,0.55283 0.48161,0.003 1.32229,-0.48547 1.86853,-1.08914 2.385,-2.63542 2.60325,-0.38385 0.27434,2.83098 -0.9055,1.24998 -1.64632,2.48259 -1.64632,2.73916 0,0.25675 0.8531,0.4664 1.89575,0.4664 1.30457,0 2.33594,0.44013 3.30714,1.41135 3.49795,3.49792 17.93954,8.99301 25.52876,9.7138 l 1.92072,0.18243 -1.92072,0.87473 c -2.91896,1.32929 -14.01807,3.32098 -16.35877,2.93554 -1.11394,-0.18348 -8.03193,-0.55783 -15.3733,-0.83194 -8.73587,-0.32611 -13.61668,-0.72145 -14.12578,-1.14396 -0.82961,-0.68846 -0.73522,-1.52493 0.71628,-6.34743 1.04201,-3.46223 0.72378,-4.84333 -1.75839,-7.63237 -1.55523,-1.74733 -1.9407,-2.62992 -1.94108,-4.44375 -5.3e-4,-3.06433 -1.24688,-6.37827 -3.66419,-9.74299 -4.08532,-5.68654 -9.58546,-20.64158 -12.033472,-32.71926 -0.397794,-1.9619 -1.212331,-5.29573 -1.810484,-7.40854 -0.598224,-2.1128 -1.103576,-4.58232 -1.123193,-5.48781 -0.01761,-0.90548 -1.145169,-3.58864 -2.501158,-5.96253 -1.356023,-2.3739 -2.468792,-4.71994 -2.472948,-5.21342 -0.01761,-2.0507 -0.717122,-3.29189 -2.044442,-3.62503 -1.019545,-0.25589 -1.235259,-0.51548 -0.794568,-0.95613 0.440762,-0.44069 0.811297,-0.4336 1.365181,0.026 0.604069,0.50154 0.90385,0.32228 1.459953,-0.87388 1.103119,-2.37253 3.842424,-11.26477 3.853167,-12.50791 0.0035,-0.61873 0.235612,-1.3596 0.51141,-1.64634 0.276113,-0.28675 1.159891,-2.86738 1.964213,-5.73475 2.180949,-7.77527 3.014331,-14.23182 2.236879,-17.32952 -0.38427,-1.53211 -3.586633,-2.32354 -4.293119,-1.0611 -0.350777,0.6262 -1.001231,0.74803 -2.615971,0.48982 -2.062755,-0.32986 -2.271743,-0.21641 -5.184995,2.81564 -1.66961,1.73763 -3.035601,3.62343 -3.035601,4.19067 0,0.56721 -0.286326,1.49002 -0.63647,2.05063 -0.517256,0.82835 -0.411706,1.3354 0.565153,2.70665 0.679544,0.95429 1.109212,2.23671 0.989045,2.95189 -0.469288,2.79197 0.57491,8.71291 1.758749,9.9729 0.962702,1.02477 1.16535,1.91999 1.16535,5.14803 0,2.14916 0.254279,4.57528 0.563886,5.39136 0.683558,1.79782 0.287384,2.33312 -1.091074,1.47256 -0.805063,-0.50278 -1.161933,-0.47654 -1.658552,0.12186 -0.908183,1.0942 -0.552263,7.73885 0.58139,10.84997 0.522433,1.4337 0.911705,2.63363 0.865287,2.66653 -0.04543,0.033 -1.56332,0.34159 -3.370812,0.68597 -2.507286,0.47771 -3.333727,0.87381 -3.48633,1.67086 -0.185953,0.97171 0.07255,1.02186 3.697853,0.7179 2.1439,-0.17975 3.897964,-0.15273 3.897964,0.0603 0,0.21273 -1.296503,0.76201 -2.881132,1.22063 l -2.881096,0.83384 0.1289,2.54716 c 0.122913,2.42224 0.04543,2.56481 -1.514014,2.90795 -1.757167,0.3859 -1.724484,1.36907 0.04543,1.36907 1.447346,0 1.367435,0.26967 -0.900435,3.03723 -1.888357,2.30447 -1.9396,2.48071 -1.304572,4.48263 0.363844,1.14608 0.875504,2.50911 1.137601,3.02898 0.289144,0.57328 0.234203,1.47714 -0.139114,2.29732 -0.339508,0.74613 -0.425198,1.79825 -0.190533,2.34753 0.234204,0.54743 0.373847,1.64995 0.310981,2.45005 -0.0648,0.8001 0.148271,1.61728 0.469957,1.81595 0.740226,0.45752 0.770514,3.04031 0.0317,3.04031 -1.022754,0 -0.555469,1.17518 1.141893,2.87265 l 1.690672,1.69067 -0.945163,2.09597 c -0.755792,1.67598 -0.810135,2.25867 -0.271536,2.90772 0.889552,1.07184 0.282454,1.95741 -1.341549,1.95741 -0.718954,0 -1.428859,0.19688 -1.577728,0.43777 -0.550926,0.891 0.637179,1.79918 3.80897,2.91139 1.79115,0.62812 3.565254,1.39653 3.942516,1.70754 0.508804,0.41953 0.686024,0.27999 0.686024,-0.54057 0,-0.6083 -0.370782,-1.24819 -0.82313,-1.42191 -0.63066,-0.24196 -0.823201,-1.28137 -0.823201,-4.44897 0,-2.27318 0.214482,-4.13308 0.476403,-4.13308 0.479009,0 1.906069,4.62202 2.554479,8.27511 0.288441,1.62329 0.09544,2.26519 -1.110867,3.69877 l -1.459636,1.73462 1.193912,1.51465 1.194018,1.51465 -1.561348,0.34656 c -0.858843,0.19052 -1.252727,0.37588 -0.87543,0.41155 0.875535,0.0831 0.896103,2.92797 0.02465,3.79664 -0.362541,0.3622 -0.423891,0.68124 -0.137705,0.70899 0.286328,0.0282 1.240401,0.0894 2.119247,0.13736 2.440124,0.13242 2.492952,1.45871 0.05846,1.45871 -4.867815,0 -5.083318,2.32986 -0.274,2.96778 l 2.73434,0.36268 v 2.14048 c 0,3.22586 0.858243,4.92597 4.199436,8.3184 l 3.041518,3.08818 -3.483336,0.30006 c -8.319384,0.71699 -15.503145,1.51898 -15.741541,1.75738 -0.141931,0.14194 0.644255,0.63474 1.747166,1.09555 1.102802,0.46077 2.005068,0.95791 2.005068,1.10477 0,0.31768 -2.617133,0.24441 -3.978722,-0.11135 z m 1.684508,-9.40556 c 0.116573,-0.79147 -0.114108,-1.19177 -0.685953,-1.19177 -0.560047,0 -0.861346,0.49546 -0.861346,1.4177 0,1.71917 1.288795,1.53099 1.547299,-0.22575 z m 63.208805,-0.0994 c 0,-0.60643 -0.74167,-1.87867 -1.64823,-2.82724 -1.6027,-1.67708 -1.67852,-1.69733 -2.74389,-0.73315 -0.60284,0.54536 -1.09569,1.17518 -1.09569,1.39959 0,0.42403 4.35335,3.20433 5.07625,3.24195 0.22645,0.0102 0.4117,-0.47476 0.4117,-1.08115 z m -13.17071,-11.57813 c 0,-0.62703 -1.48821,-0.64122 -1.87342,-0.0177 -0.1606,0.25991 -0.1511,0.61315 0.0177,0.78538 0.42867,0.42821 1.85221,-0.16166 1.85221,-0.76756 z m 0,-3.44114 c 0,-0.11376 -0.37078,-0.51466 -0.8232,-0.8904 -0.67416,-0.55948 -0.82313,-0.52201 -0.82313,0.20708 0,0.48972 0.3699,0.8904 0.82313,0.8904 0.45312,0 0.8232,-0.0934 0.8232,-0.20708 z m -3.85892,-9.84045 c -0.0177,-1.16284 -0.045,-1.16812 -0.80562,-0.16094 -0.43347,0.57265 -0.65545,1.25579 -0.49327,1.51809 0.4894,0.79172 1.3176,-0.0736 1.29904,-1.35697 z m -53.326064,-9.13473 c -0.368176,-0.58998 -0.746705,-0.99569 -0.840738,-0.9017 -0.325421,0.32543 0.523102,1.97428 1.015881,1.97428 0.271888,0 0.19335,-0.48266 -0.175036,-1.07258 z m 42.642284,-21.97614 c 0.18666,-0.30182 0.0922,-0.54881 -0.2092,-0.54881 -0.30218,0 -0.70134,0.24688 -0.88793,0.54881 -0.18666,0.30182 -0.0922,0.54881 0.2092,0.54881 0.30217,0 0.70138,-0.24688 0.88793,-0.54881 z m 1.37194,-8.78049 c 0,-0.30186 -0.3395,-0.5488 -0.75455,-0.5488 -0.41477,0 -1.58804,-0.15617 -2.60675,-0.34694 -1.27079,-0.23804 -1.67986,-0.16862 -1.3033,0.22117 1.00961,1.04517 4.6646,1.57377 4.6646,0.6746 z m -9.32927,-8.23171 c 0,-0.30187 -0.26204,-0.54879 -0.5814,-0.54879 -0.31942,0 -0.42825,0.24695 -0.24159,0.54879 0.18665,0.30185 0.44787,0.5488 0.58138,0.5488 0.13278,0 0.24161,-0.24695 0.24161,-0.5488 z M 78.428777,161.5635 c 0.652809,-0.52858 1.246599,-1.36801 1.319568,-1.86536 0.07325,-0.49735 0.436891,-1.27079 0.808694,-1.71874 0.544445,-0.65605 0.513313,-0.87692 -0.161653,-1.1357 -1.358176,-0.52119 -2.384869,0.16212 -4.130866,2.7492 -0.904908,1.34087 -1.645313,2.54903 -1.645313,2.6848 0,0.65279 2.760121,0.13528 3.809111,-0.7142 z m -6.317701,-5.60525 c 0.926954,-0.29132 2.426213,-0.68303 3.331719,-0.87037 l 1.646331,-0.3406 -1.490981,-0.78398 c -0.820067,-0.43117 -2.610477,-0.93742 -3.978686,-1.12494 -2.254346,-0.30902 -2.487669,-0.23523 -2.487669,0.78629 0,1.31684 0.529547,2.86339 0.9801,2.86339 0.172218,0 1.072337,-0.23841 1.999186,-0.52976 z m -7.666148,-1.52258 c 1.9901,-2.14621 1.753396,-2.7686 -1.212579,-3.18844 -1.433645,-0.20294 -4.088356,-0.70833 -5.899299,-1.12308 -3.969387,-0.90905 -4.115862,-0.91693 -4.115862,-0.22156 0,0.30185 0.6177,0.5488 1.371907,0.5488 0.754559,0 1.371942,0.25325 1.371942,0.56274 0,0.42285 6.334109,4.89082 6.974736,4.91987 0.0648,0.002 0.74241,-0.67137 1.509155,-1.49833 z m 1.168308,-36.77113 c -0.599562,-0.5995 -1.010564,0.35391 -0.580122,1.34551 0.408255,0.94026 0.437487,0.9394 0.66507,-0.0197 0.131013,-0.55185 0.09262,-1.14863 -0.08487,-1.32623 z M 92.180567,97.526461 c 0,-0.579197 -1.053215,-0.822578 -1.366378,-0.315694 -0.18983,0.306788 0.03909,0.55774 0.510776,0.55774 0.47052,0 0.855567,-0.108863 0.855567,-0.242024 z M 78.942863,87.728502 c 1.5648,-1.749109 2.699369,-3.416027 2.521198,-3.704267 -0.58463,-0.946086 -3.749131,-0.536228 -8.424974,1.091264 -5.142344,1.789825 -6.199537,2.477998 -4.492349,2.924442 0.623546,0.163058 1.133864,0.07265 1.133864,-0.200923 0,-0.273574 0.617031,-0.497401 1.371907,-0.497401 0.75456,0 1.371978,0.230288 1.371978,0.511795 0,0.281496 0.493906,0.668551 1.097554,0.860149 0.603401,0.191587 1.101322,0.763869 1.105935,1.271738 0.0035,0.796742 0.0817,0.810481 0.540575,0.100263 0.506864,-0.784193 0.805165,-0.351872 0.567795,0.823167 -0.05846,0.301865 -0.0035,0.425338 0.125379,0.274355 0.129604,-0.150871 1.516338,-1.705473 3.081138,-3.454593 z m -12.30797,0.649007 c 0.838169,-0.783186 -0.364301,-0.542837 -1.893319,0.378409 l -1.371977,0.826618 1.371977,-0.358956 c 0.754525,-0.197471 1.606535,-0.578166 1.893319,-0.84606 z m -7.496641,-1.311877 c 3.942693,-2.679182 15.430099,-6.309371 19.965381,-6.309371 1.421921,0 2.703704,-0.191519 2.848382,-0.425633 0.442698,-0.716046 -3.39934,-12.771966 -5.428462,-17.034909 -2.214269,-4.651847 -6.657736,-9.672515 -9.861259,-11.142344 -3.047364,-1.398159 -5.43533,-1.277674 -8.57803,0.432773 -4.847107,2.638145 -8.982938,10.836464 -8.982938,17.806629 0,3.36617 0.259913,4.152905 3.56705,10.808332 1.961855,3.947852 3.765401,7.191451 4.007741,7.207984 0.242304,0.01618 1.350318,-0.588012 2.462135,-1.343472 z M 99.021368,67.72283 c 1.051872,-1.433687 1.918602,-2.984632 1.926112,-3.446535 0.0141,-0.800101 -3.276961,-9.17071 -4.326476,-11.00806 -0.293724,-0.513667 -0.296894,-1.190517 -0.0035,-1.646338 0.269775,-0.425723 0.493907,-1.055939 0.49845,-1.400452 0.0035,-0.600982 -3.747933,-2.391909 -5.016368,-2.391909 -0.756038,0 -0.198633,4.758349 0.681728,5.819081 0.326829,0.394037 0.918889,2.147588 1.315275,3.896823 0.396492,1.749237 1.112698,4.380696 1.591812,5.847677 0.749876,2.296175 0.75766,2.57312 0.05846,1.99073 -0.448509,-0.37206 -0.815171,-1.144834 -0.815171,-1.717236 0,-0.572399 -0.740859,-2.429069 -1.646366,-4.125917 -0.905506,-1.696839 -1.65179,-3.359095 -1.658552,-3.693895 -0.0035,-0.334753 -0.498379,-1.226102 -1.093504,-1.980679 -0.900188,-1.142141 -1.168625,-1.237188 -1.602553,-0.567403 -0.57498,0.887224 1.343591,4.886238 2.571102,5.359421 0.377333,0.145454 0.685954,0.695132 0.685954,1.221549 0,0.526438 0.56716,2.043431 1.259594,3.371164 0.692751,1.327729 1.596637,3.463599 2.008519,4.746372 0.412164,1.282772 0.954074,2.332312 1.204619,2.332312 0.250757,0 1.316262,-1.173017 2.368105,-2.606705 z M 90.601186,50.203008 c -0.478339,-0.822489 -0.585298,-0.846201 -0.598893,-0.132598 -0.01761,0.92419 0.559343,1.756315 0.948192,1.367378 0.128547,-0.128266 -0.02465,-0.683911 -0.349369,-1.234755 z M 79.009846,30.074301 c 0,-0.408662 -0.637138,-1.430634 -1.416104,-2.271035 -0.855778,-0.923373 -1.310344,-1.932567 -1.148762,-2.550408 0.147214,-0.56235 0.04509,-0.884006 -0.230329,-0.714865 -0.682717,0.421962 -0.629396,-0.503433 0.06903,-1.202058 1.088996,-1.088954 -0.03909,-2.467407 -1.87159,-2.288993 -2.876588,0.279952 -2.44266,3.225186 1.176902,7.986863 1.364898,1.795525 3.420611,2.420842 3.420611,1.040496 z M 123.31963,226.78154 c -0.22822,-1.02915 -0.28985,-1.99638 -0.13665,-2.14938 0.57234,-0.57221 0.89864,0.40722 0.728,2.18429 l -0.17609,1.83629 z m -0.8258,-5.07774 c -0.37343,-0.37354 -0.67914,-1.22653 -0.67914,-1.89559 0,-0.66904 -0.3085,-1.34102 -0.6859,-1.49325 -0.37734,-0.15225 -0.14828,-0.2963 0.50879,-0.32014 0.65704,-0.024 1.3075,-0.47548 1.44556,-1.00369 0.22645,-0.86582 0.25709,-0.869 0.31414,-0.032 0.0317,0.51037 -0.18313,1.0806 -0.48481,1.26715 -0.75262,0.46513 -0.69328,2.32987 0.082,2.5884 0.34725,0.11569 0.52892,0.51602 0.40431,0.88949 -0.17961,0.53966 -0.36556,0.53966 -0.90547,0 z m 0.23525,-6.86205 c -0.2011,-0.20121 -0.34021,-1.12727 -0.30992,-2.05792 l 0.0585,-1.69208 0.45041,1.91701 c 0.46928,1.99733 0.42086,2.4508 -0.19723,1.83299 z m 0.0317,-6.81227 c 0.1937,-0.74207 0.4427,-0.99082 0.58008,-0.5798 0.13242,0.39592 -0.0177,0.98077 -0.33951,1.29967 -0.40694,0.40723 -0.47901,0.19296 -0.23984,-0.71985 z m -1.98665,-10.44382 c -0.3381,-0.96984 -0.51849,-1.85939 -0.40125,-1.97676 0.11764,-0.11739 0.49004,0.58011 0.8281,1.54992 0.3381,0.96985 0.51852,1.85939 0.40128,1.97678 -0.11763,0.11737 -0.49,-0.58013 -0.82813,-1.54994 z m -1.11523,-4.10062 c 0.0247,-0.63928 0.15637,-0.76933 0.33176,-0.33154 0.15884,0.39618 0.13911,0.86948 -0.0454,1.05183 -0.18208,0.18229 -0.31169,-0.14176 -0.28844,-0.72027 z M 90.568823,190.1009 c 0.0317,-1.3373 0.09227,-1.38417 0.510106,-0.41158 0.644291,1.49892 0.644291,1.92074 0,1.92074 -0.302176,0 -0.531484,-0.67913 -0.510106,-1.50916 z m 27.799517,-36.35672 c -1.58984,-1.25052 -2.92322,-1.41542 -3.32826,-0.41158 -0.22153,0.54882 -0.28492,0.54882 -0.32014,0 -0.0247,-0.37727 -0.0585,-0.87118 -0.0725,-1.09754 -0.0141,-0.22639 1.03338,-0.67154 2.33229,-0.98926 l 2.36172,-0.57764 -0.17222,-4.91015 c -0.0954,-2.70058 -0.41082,-7.5936 -0.70218,-10.87341 -0.36603,-4.1221 -0.33916,-7.73209 0.0874,-11.69231 0.33915,-3.15098 0.45565,-6.37091 0.2585,-7.15542 -0.33246,-1.32548 0.29936,-2.32094 1.48926,-2.34524 0.2261,-0.005 0.4117,4.91605 0.4117,10.93482 0,6.70352 0.21273,11.07463 0.549,11.2824 0.30217,0.18651 0.54898,1.42128 0.54898,2.7439 0,1.3226 -0.24688,2.55736 -0.54898,2.7439 -0.31627,0.19549 -0.549,3.11545 -0.549,6.89215 0,3.60413 -0.21377,6.55297 -0.47509,6.55297 -0.26097,0 -1.1027,-0.49389 -1.87007,-1.09757 z m -6.30403,-62.687184 c -0.94819,-2.496139 -2.13182,-6.620719 -2.63027,-9.165745 -0.49845,-2.545026 -1.30256,-5.458287 -1.78685,-6.473912 -0.87128,-1.827047 -0.86346,-1.860656 0.74248,-3.173075 2.14894,-1.756256 2.835,-1.697415 3.26941,0.28041 0.37125,1.692507 1.37188,2.292635 1.37188,0.823176 0,-0.452745 0.24687,-0.823176 0.54902,-0.823176 0.30217,0 0.54895,0.617379 0.54895,1.371957 0,0.772026 -0.28598,1.311954 -0.65337,1.234754 -1.07896,-0.226521 -1.10897,1.508262 -0.0672,3.911753 0.92581,2.137013 1.81861,2.962182 1.81861,1.68086 0,-0.31961 0.24935,-0.4269 0.55483,-0.23829 0.305,0.188633 1.34385,-0.44607 2.3081,-1.410341 l 1.75329,-1.753273 -1.88814,-3.533954 -1.88818,-3.533948 1.30027,-0.980805 c 1.01722,-0.76728 1.24516,-1.356445 1.04705,-2.706246 -0.13911,-0.948991 -0.17715,-1.725436 -0.0831,-1.725436 0.31169,0 2.7734,5.184643 3.44118,7.247885 0.36254,1.118968 1.87761,3.706656 3.3676,5.750456 2.73417,3.750336 3.25607,5.442478 2.05055,6.648003 -1.73097,1.731037 -5.92681,-0.133794 -5.92681,-2.634154 0,-1.163824 -1.32954,-1.505342 -1.95027,-0.500966 -0.20286,0.328097 -0.83796,0.473875 -1.41153,0.323876 -2.22166,-0.581018 -2.39613,3.79275 -0.24618,6.168539 0.72878,0.80532 0.62482,1.246275 -0.97992,4.143751 -0.98746,1.783397 -2.04092,3.324375 -2.34106,3.424412 -0.30041,0.100037 -1.3214,-1.860417 -2.26951,-4.356556 z m -0.045,-20.700019 c 0.23596,-0.707458 0.98851,-0.83453 1.05637,-0.178382 0.0247,0.218814 -0.25533,0.496625 -0.61702,0.61738 -0.36212,0.120764 -0.56005,-0.07682 -0.43883,-0.439004 z m 3.13759,-7.332723 c 1.12611,-1.126116 2.81792,-0.95116 2.81502,0.291117 -10e-4,0.431296 -0.75417,0.719559 -1.94772,0.745502 -1.93495,0.04222 -1.93995,0.03613 -0.8673,-1.036612 z M 98.766171,34.658797 c 0,-0.301859 0.385157,-0.548798 0.855567,-0.548798 0.470592,0 0.702962,0.246953 0.516622,0.548798 -0.186662,0.301859 -0.571702,0.548806 -0.855602,0.548806 -0.28386,0 -0.516587,-0.246954 -0.516587,-0.548806 z m -0.82327,-2.743895 c -0.192294,-0.311263 0.26907,-0.548806 1.065147,-0.548806 0.77239,0 1.404352,0.246953 1.404352,0.548806 0,0.301858 -0.479012,0.548802 -1.065192,0.548802 -0.585967,0 -1.217789,-0.246954 -1.404307,-0.548802 z m 2.011867,-4.322272 c -0.58396,-0.370194 -0.54702,-0.535003 0.182432,-0.814776 1.27689,-0.490012 1.37307,-0.456892 1.37307,0.472387 0,0.923838 -0.47316,1.028061 -1.555112,0.342396 z m -5.774241,-6.370581 c -0.186658,-0.486254 0.145454,-1.05993 0.823413,-1.422788 1.890008,-1.011508 0.376487,-1.927886 -1.986543,-1.202689 -1.988057,0.610118 -2.433011,0.317109 -1.275726,-0.840211 0.761921,-0.76192 5.288046,-0.872446 6.418352,-0.156723 1.059625,0.670934 0.368599,2.150909 -1.300589,2.785542 -0.762308,0.289849 -1.386065,0.780018 -1.386065,1.089326 0,0.854605 -0.93826,0.671395 -1.292842,-0.252447 z m -2.963578,-0.13605 c -0.379093,-0.13221 -0.549657,-0.466288 -0.379093,-0.742328 0.39952,-0.646414 2.440581,-0.656289 2.440581,-0.01162 0,0.632742 -1.17588,1.062969 -2.061347,0.754169 z"
       style="fill:#333333;stroke-width:0.54878044" />
  </g>
</svg>
